<svg width="85" height="24" viewBox="0 0 85 24" fill="none" xmlns="http://www.w3.org/2000/svg">
    <defs>
        <clipPath id="clip0_116_17">
            <rect width="85" height="24" fill="white" />
        </clipPath>
    </defs>
    <g clip-path="url(#clip0_116_17)">
        <path
            d="M48.8599 20.5148C49.2478 20.956 49.4237 21.551 49.3557 22.1785C49.2558 23.0528 48.46 23.8421 47.6203 23.8867C47.0725 23.9272 44.1854 23.9393 43.4977 23.9393C42.8939 23.9393 42.2501 23.9352 41.4063 23.9029C40.1308 23.8502 38.8952 23.5143 37.7396 22.899C36.9838 22.5023 36.28 21.9923 35.6602 21.381C34.2647 20.0047 33.385 18.3208 33.0651 16.3738C32.7812 14.6898 32.9891 13.0019 33.6769 11.3746C34.1327 10.2776 34.8125 9.29399 35.6842 8.45203C37.0918 7.09193 38.7792 6.27831 40.6946 6.02329C42.7179 5.76018 44.5573 6.13663 46.2607 7.12837C47.2684 7.71531 48.1721 8.48036 48.8879 9.41138C49.7836 10.5731 50.5033 12.0182 50.2354 13.5321C50.0395 14.6413 49.3597 15.6492 48.412 16.2402C47.4604 16.8312 46.3007 16.9891 45.1811 16.9971C44.3414 17.0052 43.5057 16.9324 42.6659 16.9364C41.8862 16.9364 41.1864 17.0336 40.5466 16.4831C40.0828 16.0783 39.8229 15.4832 39.8429 14.8518C39.8669 14.2243 40.1588 13.6617 40.6466 13.2974C41.0265 13.0181 41.4423 12.8845 41.9062 12.8845H42.0461L45.8289 12.8926C45.9448 12.8926 46.0368 12.84 46.0808 12.7388C46.1128 12.6861 46.1368 12.5768 46.0128 12.4149C45.2411 11.2046 44.2294 10.4598 42.9778 10.1724C42.7419 10.1157 42.498 10.0793 42.2461 10.055C40.8505 9.93761 39.567 10.3707 38.5193 11.3706C37.5956 12.2368 37.0838 13.3257 36.9998 14.6008C36.8159 17.0822 38.6033 19.353 41.0545 19.7659C41.2824 19.8023 41.5223 19.8266 41.8182 19.8266H47.2684C47.9042 19.8266 48.468 20.0655 48.8599 20.5148Z"
            fill="#010101" />
        <path
            d="M67.8616 21.9316C67.8616 23.0285 66.9819 23.9191 65.8982 23.9191H57.1331C55.5296 23.9191 54.2341 22.6035 54.2341 20.9843C54.2341 20.3367 54.446 19.7052 54.8379 19.1911L61.9675 9.84452H56.1934C55.1058 9.84452 54.2261 8.95398 54.2261 7.85296C54.2261 6.75193 55.1058 5.86139 56.1934 5.86139H64.3547C65.9582 5.86139 67.2538 7.17696 67.2538 8.79612C67.2538 9.44378 67.0418 10.0753 66.65 10.5893L59.5123 19.944H65.8982C66.9819 19.9481 67.8616 20.8346 67.8616 21.9316Z"
            fill="#010101" />
        <path
            d="M84.9999 21.9316C84.9999 23.0285 84.1202 23.9191 83.0366 23.9191H74.2715C72.668 23.9191 71.3724 22.6035 71.3724 20.9843C71.3724 20.3367 71.5843 19.7052 71.9762 19.1911L79.1059 9.84452H73.3358C72.2481 9.84452 71.3684 8.95398 71.3684 7.85296C71.3684 6.75193 72.2481 5.86139 73.3358 5.86139H81.4971C83.1005 5.86139 84.3961 7.17696 84.3961 8.79612C84.3961 9.44378 84.1842 10.0753 83.7923 10.5893L76.6547 19.9481H83.0406C84.1242 19.9481 84.9999 20.8346 84.9999 21.9316Z"
            fill="#010101" />
        <path
            d="M29.8663 2.42062V21.7655C29.8663 22.3646 29.6343 22.9232 29.2145 23.3442C28.7946 23.7652 28.2388 24 27.643 24C26.4194 24 25.4277 22.9961 25.4277 21.7655V2.42062C25.4277 1.82963 25.6517 1.26292 26.0795 0.841939C26.4994 0.420957 27.0552 0.194275 27.643 0.194275C28.8666 0.194275 29.8663 1.19006 29.8663 2.42062Z"
            fill="#010101" />
        <path
            d="M20.9331 18.7904C20.9731 19.5433 20.6852 20.2719 20.1334 20.7819C18.174 22.6682 15.5509 23.8017 12.7278 23.9636C12.4959 23.9717 12.256 23.9798 12.016 23.9798C5.7581 23.9757 0.567813 19.2397 0.0399868 12.9128C0.0159947 12.6052 0 12.2975 0 11.9939V11.9858C0 11.6822 0.0159947 11.3746 0.0399868 11.067C0.567813 4.73604 5.7581 0 12.02 0C12.26 0 12.4999 0.0080958 12.7318 0.0161916C15.5549 0.178108 18.178 1.31152 20.1374 3.19784C20.6892 3.70788 20.9771 4.4365 20.9371 5.18941C20.8571 6.57379 19.6895 7.63434 18.306 7.56148C17.7462 7.52909 17.2263 7.31051 16.7865 6.92191L16.5945 6.73571C15.315 5.48086 14.0914 4.92225 12.3799 4.8251C8.5012 4.61461 5.1743 7.66672 4.95037 11.658C4.94237 11.7672 4.93837 11.8765 4.93837 11.9858V11.9939C4.93837 12.1032 4.94237 12.2125 4.95037 12.3218C5.1743 16.313 8.5012 19.3652 12.3799 19.1547C14.0914 19.0575 15.315 18.4989 16.5945 17.2441L16.7865 17.0579C17.2263 16.6693 17.7462 16.4507 18.306 16.4183C19.6855 16.3454 20.8531 17.406 20.9331 18.7904Z"
            fill="#010101" />
    </g>
</svg>