<svg width="104" height="124" viewBox="0 0 104 124" fill="none" xmlns="http://www.w3.org/2000/svg">
<g clip-path="url(#clip0_116_27)">
<path d="M72.9885 86.3741C71.0776 81.8049 68.3712 77.5849 65.5437 73.5395C61.9692 68.427 58.0746 63.5376 54.0829 58.7453C49.7906 53.594 45.3674 48.5591 40.8956 43.563C36.6615 38.8288 32.3789 34.1432 28.1254 29.4236C24.7352 25.6692 21.345 21.9052 18.1294 18.0005C17.8093 17.6124 17.494 17.2244 17.1788 16.8315C17.237 16.9722 17.2952 17.1177 17.3582 17.2583C17.3534 17.205 17.397 16.9722 17.3728 16.9334C17.3534 16.8994 16.815 16.9479 16.8587 17.1225C16.8732 17.1807 17.0333 17.2923 17.0721 17.336C17.431 17.7046 17.7705 18.0975 18.1051 18.4904C18.4398 18.8881 18.7793 19.2956 19.0606 19.7418C19.1043 19.8097 19.1528 19.9456 19.211 19.9989C19.2304 20.0426 19.2352 20.0426 19.2158 19.9989C19.2692 20.2123 19.3322 20.0668 19.4001 19.5527C19.3419 19.509 18.9151 19.5963 18.8132 19.5866C19.0073 19.737 19.2013 19.8825 19.4001 20.0329C19.3904 19.9698 19.4389 19.8583 19.3759 19.9504C19.2546 20.0426 19.1334 20.1347 19.0121 20.2269C19.0364 20.222 19.0606 20.2123 19.08 20.2075C18.9248 20.1881 18.7696 20.1687 18.6144 20.1444C18.3622 20.0377 18.3767 19.7467 18.4737 20.1444C18.5125 20.3142 18.5416 20.484 18.5707 20.6537C18.6483 21.1097 18.7114 21.5657 18.7696 22.0216C18.852 22.657 18.9248 23.2925 18.9927 23.9279C19.0752 24.6943 20.2877 24.704 20.2052 23.9279C20.084 22.7928 19.953 21.6578 19.7736 20.5325C19.7105 20.1299 19.6814 19.4993 19.3613 19.1986C19.0509 18.9075 18.5562 18.9949 18.3282 19.3344C18.1245 19.6303 18.1682 20.0135 18.2312 20.353C18.2846 20.6295 18.5659 20.7799 18.8181 20.7993C19.3565 20.8429 20.2489 20.7556 20.4138 20.125C20.5447 19.6109 20.0791 19.0579 19.7978 18.6796C19.3419 18.0635 18.8472 17.4718 18.3331 16.9043C17.9742 16.5065 17.5134 15.8711 16.9169 15.9341C16.3106 15.9972 16.1021 16.7054 16.1457 17.2292C16.1894 17.7434 16.7908 18.2624 17.1109 18.6553C17.916 19.6351 18.7308 20.6052 19.5553 21.5657C23.7021 26.4017 28.0041 31.097 32.277 35.8166C37.3454 41.4142 42.404 47.0069 47.351 52.7063C52.206 58.299 56.9784 63.9839 61.4211 69.9113C65.0101 74.7037 68.5264 79.6852 71.1067 85.1081C71.354 85.632 71.5965 86.1607 71.8196 86.6943C72.1155 87.4025 73.2892 87.092 72.9885 86.3741Z" fill="#47494C"/>
<path d="M1.24632 5.80625C0.213253 7.9502 -0.257203 10.327 0.135652 12.6892C0.494557 14.8283 1.64402 16.7491 3.19119 18.248C6.32919 21.2796 10.7767 22.7929 15.0545 21.6288C17.5813 20.94 19.9045 19.5867 21.8931 17.9036C22.2471 17.6028 21.9561 16.9868 21.5196 17.0014C18.1052 17.1129 14.4434 16.9335 11.3539 15.3182C9.88429 14.5518 8.48747 13.441 7.58536 12.0344C6.53774 10.3997 6.29524 8.41586 6.79965 6.54839C7.37195 4.42384 8.72997 2.57092 9.97644 0.79561C10.2577 0.393012 9.79214 -0.0774929 9.37988 0.0195185C6.03818 0.771357 3.09904 2.88621 1.27542 5.7723C0.911663 6.34951 1.82833 6.88308 2.19208 6.30586C3.87505 3.63804 6.58624 1.73177 9.65633 1.03329C9.45748 0.776208 9.25863 0.514277 9.05978 0.257196C7.85696 1.97915 6.61049 3.73506 5.93633 5.74319C5.29127 7.65432 5.32522 9.76432 6.15944 11.6172C7.67266 14.9787 11.3539 16.9044 14.8071 17.6077C17.0139 18.0588 19.2789 18.1316 21.5245 18.0636C21.3983 17.7629 21.2771 17.4622 21.151 17.1614C18.1294 19.7177 14.0747 21.6046 10.0492 20.7994C6.31464 20.0524 2.53159 17.2439 1.41122 13.4993C0.69826 11.1225 1.10082 8.55652 2.16298 6.35436C2.45883 5.73349 1.54217 5.19508 1.24632 5.80625Z" fill="#47494C"/>
<path d="M103.956 105.631C104.475 111.573 100.377 117.786 94.455 120.1C88.5573 122.404 82.7081 120.086 81.0785 114.774C80.2443 112.058 80.4431 109.186 81.7914 106.198C83.4696 102.483 86.2341 99.8733 89.8571 98.2338C89.8668 98.1416 89.8862 98.0883 89.8765 98.0495C89.634 96.7835 89.3915 95.5126 89.149 94.2466C88.9259 93.0922 88.9113 93.0728 87.7134 93.6888C87.5388 93.781 87.2866 94.2078 87.3351 94.3194C87.6503 95.0615 87.1944 95.3283 86.5542 95.5514C86.3069 95.6387 86.0595 95.8328 85.8218 95.8619C85.5745 95.891 85.2932 95.8425 85.1137 95.7163C84.9197 95.5805 84.8179 95.3234 84.7015 95.1003C83.7266 93.2668 82.3104 91.8941 80.4577 90.9773C79.1093 90.3128 77.7319 89.6968 76.0393 89.8083C74.4436 89.9151 72.7267 91.3072 72.4502 92.8351C72.1786 94.3242 72.2223 95.7648 72.9789 96.9047C73.7064 98.0107 74.4969 99.0729 75.3554 100.072C76.4273 101.319 77.2712 102.721 77.8241 104.326C78.3236 105.772 78.6049 107.28 78.1199 109.017C77.5185 111.165 76.1508 112.936 74.7685 114.711C74.4872 115.07 74.2108 115.056 73.9343 114.852C73.5027 114.537 73.0856 114.192 72.6103 113.935C72.0671 113.644 72.0767 113.261 72.4987 112.713C72.62 112.553 72.7267 112.378 72.8382 112.213C74.754 109.312 74.7685 106.999 72.8285 104.918C71.9312 103.953 70.9806 103.046 70.0397 102.129C67.2994 99.4561 66.1645 96.0656 67.1248 91.6419C67.8184 88.455 70.0446 85.7145 73.0759 84.6522C75.821 83.6918 78.0811 84.332 80.0842 85.6514C82.5383 87.2666 84.4881 89.4057 86.0886 91.8844C86.3408 92.2724 86.6269 92.3209 87.078 92.1803C87.7619 91.9668 88.4457 91.7777 89.1296 91.5885C90.0754 91.3266 90.2597 91.4381 90.4391 92.3597C90.7835 94.1157 91.1327 95.8716 91.4819 97.6614C98.9025 95.8958 103.491 100.3 103.956 105.631ZM93.4752 108.134C93.5577 108.561 93.6304 108.997 93.7177 109.424C93.8099 109.89 93.6159 110.278 93.1503 110.477C92.6459 110.69 92.3015 110.496 92.1948 110.021C92.0251 109.254 91.8844 108.478 91.7341 107.707C91.2297 105.068 90.7204 102.43 90.216 99.7908C86.5978 100.955 81.578 106.024 82.2134 112.237C82.7857 117.849 88.0868 120.823 93.7905 118.791C99.5475 116.739 103.447 110.423 102.225 104.991C100.983 99.4755 95.5899 97.9913 91.768 99.2621C92.3403 102.221 92.9078 105.175 93.4752 108.134Z" fill="#47494C"/>
<path d="M60.7858 100.271C67.2364 99.6744 71.8925 104.428 71.2038 110.913C70.5054 117.5 64.6416 123.321 58.0843 123.947C51.7744 124.548 47.1862 119.678 47.9089 113.144C48.6219 106.737 54.5001 100.853 60.7858 100.271ZM58.3657 122.336C63.8947 121.837 68.9534 116.841 69.5936 111.243C70.2532 105.461 66.3343 101.358 60.6452 101.877C55.1695 102.376 50.1254 107.382 49.49 112.96C48.8304 118.723 52.7347 122.846 58.3657 122.336Z" fill="#47494C"/>
<path d="M84.7404 79.5009C84.9829 77.4394 83.5715 75.9939 81.5054 76.1928C79.4684 76.3868 77.7369 78.1282 77.4798 80.2333C77.2373 82.2511 78.6875 83.7451 80.7197 83.5656C82.7228 83.3813 84.4979 81.5915 84.7404 79.5009Z" fill="#47494C"/>
</g>
<defs>
<clipPath id="clip0_116_27">
<rect width="104" height="124" fill="white"/>
</clipPath>
</defs>
</svg>
