<svg width="25" height="25" viewBox="0 0 25 25" fill="none" xmlns="http://www.w3.org/2000/svg">
<g clip-path="url(#clip0_2001_144)">
<path d="M24.2188 21.0942H13.2812C12.85 21.0942 12.5 20.7442 12.5 20.313C12.5 19.8817 12.5 5.11924 12.5 4.68799C12.5 4.25674 12.85 3.90674 13.2812 3.90674H24.2188C24.65 3.90674 25 4.25674 25 4.68799V20.313C25 20.7442 24.65 21.0942 24.2188 21.0942Z" fill="#ECEFF1"/>
<path d="M16.4062 8.59424H13.2812C12.85 8.59424 12.5 8.24424 12.5 7.81299C12.5 7.38174 12.85 7.03174 13.2812 7.03174H16.4062C16.8375 7.03174 17.1875 7.38174 17.1875 7.81299C17.1875 8.24424 16.8375 8.59424 16.4062 8.59424Z" fill="#388E3C"/>
<path d="M16.4062 11.7192H13.2812C12.85 11.7192 12.5 11.3692 12.5 10.938C12.5 10.5067 12.85 10.1567 13.2812 10.1567H16.4062C16.8375 10.1567 17.1875 10.5067 17.1875 10.938C17.1875 11.3692 16.8375 11.7192 16.4062 11.7192Z" fill="#388E3C"/>
<path d="M16.4062 14.8442H13.2812C12.85 14.8442 12.5 14.4942 12.5 14.063C12.5 13.6317 12.85 13.2817 13.2812 13.2817H16.4062C16.8375 13.2817 17.1875 13.6317 17.1875 14.063C17.1875 14.4942 16.8375 14.8442 16.4062 14.8442Z" fill="#388E3C"/>
<path d="M16.4062 17.9692H13.2812C12.85 17.9692 12.5 17.6192 12.5 17.188C12.5 16.7567 12.85 16.4067 13.2812 16.4067H16.4062C16.8375 16.4067 17.1875 16.7567 17.1875 17.188C17.1875 17.6192 16.8375 17.9692 16.4062 17.9692Z" fill="#388E3C"/>
<path d="M21.0938 8.59424H19.5312C19.1 8.59424 18.75 8.24424 18.75 7.81299C18.75 7.38174 19.1 7.03174 19.5312 7.03174H21.0938C21.525 7.03174 21.875 7.38174 21.875 7.81299C21.875 8.24424 21.525 8.59424 21.0938 8.59424Z" fill="#388E3C"/>
<path d="M21.0938 11.7192H19.5312C19.1 11.7192 18.75 11.3692 18.75 10.938C18.75 10.5067 19.1 10.1567 19.5312 10.1567H21.0938C21.525 10.1567 21.875 10.5067 21.875 10.938C21.875 11.3692 21.525 11.7192 21.0938 11.7192Z" fill="#388E3C"/>
<path d="M21.0938 14.8442H19.5312C19.1 14.8442 18.75 14.4942 18.75 14.063C18.75 13.6317 19.1 13.2817 19.5312 13.2817H21.0938C21.525 13.2817 21.875 13.6317 21.875 14.063C21.875 14.4942 21.525 14.8442 21.0938 14.8442Z" fill="#388E3C"/>
<path d="M21.0938 17.9692H19.5312C19.1 17.9692 18.75 17.6192 18.75 17.188C18.75 16.7567 19.1 16.4067 19.5312 16.4067H21.0938C21.525 16.4067 21.875 16.7567 21.875 17.188C21.875 17.6192 21.525 17.9692 21.0938 17.9692Z" fill="#388E3C"/>
<path d="M13.7797 0.961502C13.6016 0.813064 13.3625 0.749002 13.1375 0.795877L0.6375 3.13963C0.267187 3.20838 0 3.53025 0 3.90681V21.0943C0 21.4693 0.267187 21.7928 0.6375 21.8615L13.1375 24.2053C13.1844 24.2146 13.2328 24.2193 13.2812 24.2193C13.4625 24.2193 13.6391 24.1568 13.7797 24.0396C13.9594 23.8912 14.0625 23.6693 14.0625 23.4381V1.56306C14.0625 1.33025 13.9594 1.10994 13.7797 0.961502Z" fill="#2E7D32"/>
<path d="M10.7437 15.1115L8.27339 12.2881L10.7718 9.07558C11.0374 8.73496 10.9749 8.24433 10.6359 7.97871C10.2968 7.71308 9.8062 7.77558 9.53901 8.11465L7.22495 11.0896L5.27495 8.86152C4.98901 8.5334 4.49526 8.50371 4.17339 8.78808C3.84839 9.07246 3.81557 9.56621 4.09995 9.88965L6.24839 12.3459L4.07026 15.1459C3.80464 15.4865 3.86714 15.9771 4.2062 16.2428C4.34995 16.3537 4.52026 16.4068 4.68745 16.4068C4.92026 16.4068 5.14995 16.3037 5.30464 16.1053L7.29682 13.5428L9.5687 16.1381C9.72339 16.3162 9.93901 16.4068 10.1562 16.4068C10.339 16.4068 10.5218 16.3428 10.6703 16.2131C10.9953 15.9287 11.0281 15.435 10.7437 15.1115Z" fill="#FAFAFA"/>
</g>
<defs>
<clipPath id="clip0_2001_144">
<rect width="25" height="25" fill="white"/>
</clipPath>
</defs>
</svg>
