<svg width="291" height="291" viewBox="0 0 291 291" fill="none" xmlns="http://www.w3.org/2000/svg">
<circle cx="276.676" cy="179.847" r="11.3245" fill="#2ECC71"/>
<circle cx="14.3245" cy="191.172" r="11.3245" fill="#2ECC71"/>
<circle cx="36.9734" cy="57.3245" r="11.3245" fill="#6849EF"/>
<path d="M197.222 100.32V175.809H83.9753V100.32C83.9753 95.3663 87.6604 91.3656 92.1905 91.3656H189.007C193.523 91.3656 197.222 95.3663 197.222 100.32Z" fill="#878A96"/>
<g opacity="0.2">
<path d="M197.223 100.311V103.234C197.223 98.2987 193.53 94.291 189.002 94.291H92.1987C87.655 94.291 83.978 98.2987 83.978 103.234V100.311C83.978 95.3762 87.655 91.3684 92.1987 91.3684H189.002C193.53 91.3684 197.223 95.3762 197.223 100.311Z" fill="white"/>
</g>
<path d="M197.223 171.329H83.978V175.809H197.223V171.329Z" fill="#73757F"/>
<path d="M190.595 100.605V166.569C190.595 167.68 189.765 168.586 188.745 168.586H92.4524C91.4329 168.586 90.6025 167.68 90.6025 166.569V100.605C90.6025 99.4942 91.4329 98.5888 92.4524 98.5888H188.745C189.765 98.5888 190.595 99.4942 190.595 100.605Z" fill="white"/>
<path d="M190.592 159.359V166.569C190.592 167.689 189.773 168.582 188.746 168.582H92.4555C91.428 168.582 90.6091 167.689 90.6091 166.569V159.359C90.6091 160.461 91.428 161.371 92.4555 161.371H188.746C189.773 161.371 190.592 160.461 190.592 159.359Z" fill="#E6E7E8"/>
<path d="M221.315 207.276H59.8755L83.9789 175.807H197.212L221.315 207.276Z" fill="#E6E7E8"/>
<path d="M207.627 202.026H73.5569C72.2245 202.026 71.486 200.311 72.3527 199.19L85.7599 181.672C86.0649 181.287 86.4984 181.06 86.9802 181.06H194.22C194.686 181.06 195.136 181.287 195.441 181.672L208.848 199.19C209.715 200.311 208.976 202.026 207.627 202.026Z" fill="#C2C3C4"/>
<path d="M168.402 202.026H112.799L117.808 195.481C118.643 194.378 119.896 193.748 121.213 193.748H159.988C161.305 193.748 162.542 194.378 163.377 195.481L168.402 202.026Z" fill="white"/>
<path d="M221.343 207.259V210.863C221.343 214.815 218.415 217.927 214.847 217.927H66.3513C62.7974 217.927 59.8694 214.815 59.8694 210.863V207.259H221.343Z" fill="#E6E7E8"/>
<g opacity="0.2">
<path d="M221.34 207.258H59.8774V209.674H221.34V207.258Z" fill="#C2C3C4"/>
</g>
<path d="M221.34 207.661V210.864C221.34 214.819 218.418 217.933 214.853 217.933H66.3486C62.7998 217.933 59.8774 214.819 59.8774 210.864V207.661C59.8774 211.599 62.7998 214.732 66.3486 214.732H214.853C218.418 214.732 221.34 211.599 221.34 207.661Z" fill="#C2C3C4"/>
<path d="M197.22 176.599H83.9807C83.5782 176.599 83.2524 176.243 83.2524 175.805V100.317C83.2524 94.945 87.2622 90.5745 92.1916 90.5745H189.01C193.939 90.5745 197.949 94.9451 197.949 100.317V175.805C197.949 176.243 197.623 176.599 197.22 176.599ZM84.709 175.011H196.492V100.317C196.492 95.8206 193.135 92.1621 189.01 92.1621H92.1916C88.0659 92.1621 84.709 95.8206 84.709 100.317V175.011Z" fill="#102770"/>
<path d="M188.745 169.382H92.4559C91.0321 169.382 89.8735 168.12 89.8735 166.568V100.606C89.8735 99.0542 91.0321 97.7914 92.4559 97.7914H188.745C190.169 97.7914 191.327 99.0542 191.327 100.606V166.568C191.327 168.12 190.169 169.382 188.745 169.382ZM92.4559 99.3791C91.835 99.3791 91.3301 99.9294 91.3301 100.606V166.568C91.3301 167.244 91.835 167.794 92.4559 167.794H188.745C189.366 167.794 189.871 167.244 189.871 166.568V100.606C189.871 99.9294 189.366 99.3791 188.745 99.3791H92.4559Z" fill="#102770"/>
<path d="M221.315 208.069H59.8756C59.5926 208.069 59.3358 207.891 59.2156 207.612C59.0961 207.333 59.1353 207.003 59.3166 206.767L83.4201 175.299C83.5581 175.118 83.7629 175.014 83.9791 175.014H197.212C197.428 175.014 197.633 175.118 197.771 175.299L221.874 206.767C222.056 207.003 222.095 207.333 221.975 207.612C221.855 207.891 221.598 208.069 221.315 208.069ZM61.4325 206.482H219.758L196.871 176.601H84.3198L61.4325 206.482Z" fill="#102770"/>
<path d="M207.628 202.819H73.5573C72.6527 202.819 71.8532 202.261 71.4699 201.362C71.0866 200.463 71.2118 199.435 71.7964 198.678L85.2012 181.164C85.6557 180.589 86.3014 180.266 86.9807 180.266H194.221C194.9 180.266 195.546 180.589 195.992 181.154L209.407 198.682C209.989 199.433 210.114 200.46 209.732 201.357C209.347 202.259 208.541 202.819 207.628 202.819ZM86.9806 181.853C86.7217 181.853 86.4842 181.973 86.3114 182.191L72.9122 199.699C72.691 199.985 72.6462 200.355 72.7906 200.693C72.9343 201.03 73.2209 201.232 73.5573 201.232H207.628C207.973 201.232 208.266 201.028 208.411 200.688C208.554 200.352 208.509 199.984 208.291 199.702L194.882 182.181C194.722 181.98 194.472 181.853 194.221 181.853H86.9806Z" fill="#102770"/>
<path d="M168.402 202.819H112.8C112.517 202.819 112.26 202.641 112.14 202.362C112.02 202.083 112.059 201.754 112.241 201.517L117.25 194.972C118.219 193.691 119.665 192.954 121.212 192.954H159.989C161.526 192.954 162.967 193.691 163.939 194.976L168.961 201.516C169.143 201.753 169.182 202.082 169.062 202.362C168.942 202.641 168.685 202.819 168.402 202.819ZM114.356 201.232H166.843L162.819 195.99C162.12 195.068 161.09 194.542 159.989 194.542H121.212C120.101 194.542 119.065 195.068 118.37 195.986L114.356 201.232Z" fill="#102770"/>
<path d="M214.852 218.729H66.3549C62.3779 218.729 59.1426 215.202 59.1426 210.867V207.264C59.1426 206.826 59.4683 206.471 59.8709 206.471H221.336C221.739 206.471 222.064 206.826 222.064 207.264V210.867C222.064 215.202 218.829 218.729 214.852 218.729ZM60.5991 208.058V210.867C60.5991 214.327 63.1815 217.141 66.3549 217.141H214.852C218.025 217.141 220.608 214.327 220.608 210.867V208.058H60.5991Z" fill="#102770"/>
<path d="M177.748 72.696V148.09C177.748 151.567 175.156 154.393 171.98 154.393H116.675C113.485 154.393 110.892 151.567 110.892 148.09V72.696C110.892 69.2348 113.485 66.4092 116.675 66.4092H171.98C175.156 66.4092 177.748 69.2348 177.748 72.696Z" fill="#E6E7E8"/>
<path d="M171.975 155.189H116.67C113.083 155.189 110.164 152.008 110.164 148.097V72.7026C110.164 68.7922 113.083 65.6108 116.67 65.6108H171.975C175.562 65.6108 178.481 68.7922 178.481 72.7026V148.097C178.481 152.008 175.562 155.189 171.975 155.189ZM116.67 67.1984C113.886 67.1984 111.621 69.6678 111.621 72.7026V148.097C111.621 151.132 113.886 153.601 116.67 153.601H171.975C174.759 153.601 177.025 151.132 177.025 148.097V72.7026C177.025 69.6678 174.759 67.1984 171.975 67.1984H116.67Z" fill="#102770"/>
<path d="M170.305 79.0301V154.424C170.305 157.901 167.713 160.727 164.537 160.727H109.232C106.042 160.727 103.45 157.901 103.45 154.424V79.0301C103.45 75.5533 106.042 72.727 109.232 72.727H164.537C167.713 72.727 170.305 75.5533 170.305 79.0301Z" fill="white"/>
<path d="M170.314 146.918V154.426C170.314 157.89 167.712 160.725 164.533 160.725H109.219C106.04 160.725 103.455 157.89 103.455 154.426V146.918C103.455 150.4 106.04 153.217 109.219 153.217H164.533C167.712 153.217 170.314 150.4 170.314 146.918Z" fill="#E6E7E8"/>
<path d="M164.53 161.514H109.226C105.638 161.514 102.719 158.333 102.719 154.422V79.0277C102.719 75.1177 105.638 71.9363 109.226 71.9363H164.53C168.118 71.9363 171.037 75.1177 171.037 79.0277V154.422C171.037 158.333 168.118 161.514 164.53 161.514ZM109.226 73.5239C106.44 73.5239 104.175 75.9929 104.175 79.0277V154.422C104.175 157.457 106.441 159.926 109.226 159.926H164.53C167.315 159.926 169.58 157.457 169.58 154.422V79.0277C169.58 75.9929 167.315 73.5239 164.53 73.5239H109.226Z" fill="#102770"/>
<path d="M140.595 154.514H109.87C109.467 154.514 109.142 154.158 109.142 153.72C109.142 153.282 109.467 152.926 109.87 152.926H140.595C140.998 152.926 141.324 153.282 141.324 153.72C141.324 154.158 140.998 154.514 140.595 154.514Z" fill="#102770"/>
<path d="M163.886 98.0954H130.244C129.842 98.0954 129.516 97.7399 129.516 97.3016C129.516 96.8632 129.842 96.5078 130.244 96.5078H163.886C164.288 96.5078 164.614 96.8632 164.614 97.3016C164.614 97.7399 164.288 98.0954 163.886 98.0954Z" fill="#102770"/>
<path d="M123.421 98.0954H109.87C109.467 98.0954 109.142 97.7399 109.142 97.3016C109.142 96.8632 109.467 96.5078 109.87 96.5078H123.421C123.823 96.5078 124.149 96.8632 124.149 97.3016C124.149 97.7399 123.823 98.0954 123.421 98.0954Z" fill="#102770"/>
<path d="M163.886 107.498H150.717C150.314 107.498 149.988 107.143 149.988 106.705C149.988 106.266 150.314 105.911 150.717 105.911H163.886C164.289 105.911 164.614 106.266 164.614 106.705C164.614 107.143 164.289 107.498 163.886 107.498Z" fill="#102770"/>
<path d="M145.699 107.498H109.87C109.467 107.498 109.142 107.143 109.142 106.705C109.142 106.266 109.467 105.911 109.87 105.911H145.699C146.102 105.911 146.427 106.266 146.427 106.705C146.427 107.143 146.102 107.498 145.699 107.498Z" fill="#102770"/>
<path d="M163.886 116.901H132.051C131.648 116.901 131.323 116.546 131.323 116.108C131.323 115.669 131.648 115.314 132.051 115.314H163.886C164.288 115.314 164.614 115.669 164.614 116.108C164.614 116.546 164.288 116.901 163.886 116.901Z" fill="#102770"/>
<path d="M126.632 116.901H109.87C109.467 116.901 109.142 116.546 109.142 116.108C109.142 115.669 109.467 115.314 109.87 115.314H126.632C127.034 115.314 127.36 115.669 127.36 116.108C127.36 116.546 127.034 116.901 126.632 116.901Z" fill="#102770"/>
<path d="M163.886 126.304H147.505C147.102 126.304 146.776 125.949 146.776 125.511C146.776 125.072 147.102 124.717 147.505 124.717H163.886C164.288 124.717 164.614 125.072 164.614 125.511C164.614 125.949 164.288 126.304 163.886 126.304Z" fill="#102770"/>
<path d="M140.595 126.304H109.87C109.467 126.304 109.142 125.949 109.142 125.511C109.142 125.072 109.467 124.717 109.87 124.717H140.595C140.998 124.717 141.324 125.072 141.324 125.511C141.324 125.949 140.998 126.304 140.595 126.304Z" fill="#102770"/>
<path d="M163.886 135.708H125.233C124.83 135.708 124.504 135.352 124.504 134.914C124.504 134.476 124.83 134.12 125.233 134.12H163.886C164.289 134.12 164.614 134.476 164.614 134.914C164.614 135.352 164.289 135.708 163.886 135.708Z" fill="#102770"/>
<path d="M119.808 135.708H109.87C109.467 135.708 109.142 135.352 109.142 134.914C109.142 134.476 109.467 134.12 109.87 134.12H119.808C120.21 134.12 120.536 134.476 120.536 134.914C120.536 135.352 120.21 135.708 119.808 135.708Z" fill="#102770"/>
<path d="M163.886 145.111H155.533C155.13 145.111 154.804 144.755 154.804 144.317C154.804 143.879 155.13 143.523 155.533 143.523H163.886C164.288 143.523 164.614 143.879 164.614 144.317C164.614 144.755 164.288 145.111 163.886 145.111Z" fill="#102770"/>
<path d="M148.91 145.111H109.87C109.467 145.111 109.142 144.755 109.142 144.317C109.142 143.879 109.467 143.523 109.87 143.523H148.91C149.313 143.523 149.638 143.879 149.638 144.317C149.638 144.755 149.313 145.111 148.91 145.111Z" fill="#102770"/>
<path d="M158.849 84.3525C158.849 86.8896 156.954 88.955 154.61 88.955H119.142C117.97 88.955 116.926 88.4295 116.155 87.6074C115.4 86.7674 114.919 85.6292 114.919 84.3525C114.919 81.7975 116.813 79.7321 119.142 79.7321H154.61C156.954 79.7321 158.849 81.7975 158.849 84.3525Z" fill="#2ECC71"/>
<g opacity="0.2">
<path d="M158.846 84.3592C158.846 84.6926 158.817 85.0259 158.744 85.3437C158.336 83.2794 156.632 81.7236 154.608 81.7236H119.141C117.116 81.7236 115.426 83.2794 115.019 85.3437C114.946 85.0259 114.917 84.6926 114.917 84.3592C114.917 81.8027 116.81 79.7392 119.141 79.7392H154.608C156.953 79.7392 158.846 81.8027 158.846 84.3592Z" fill="white"/>
</g>
<path d="M158.846 84.3592C158.846 86.8833 156.953 88.9468 154.608 88.9468H119.141C117.975 88.9468 116.927 88.4228 116.154 87.6135C115.397 86.7724 114.917 85.629 114.917 84.3592C114.917 83.9143 114.975 83.4701 115.091 83.0732C115.295 83.8189 115.674 84.4864 116.154 85.0259C116.927 85.8514 117.961 86.3754 119.141 86.3754H154.608C156.53 86.3754 158.161 84.9778 158.671 83.0732C158.788 83.4701 158.846 83.9143 158.846 84.3592Z" fill="#39F586"/>
<path d="M154.61 89.7489H119.141C117.838 89.7489 116.597 89.19 115.647 88.1745C114.704 87.1269 114.191 85.7738 114.191 84.3525C114.191 81.3669 116.412 78.9382 119.141 78.9382H154.61C157.349 78.9382 159.577 81.3669 159.577 84.3525C159.577 87.328 157.349 89.7489 154.61 89.7489ZM119.141 80.5258C117.215 80.5258 115.647 82.2424 115.647 84.3525C115.647 85.3555 116.013 86.3141 116.676 87.0517C117.343 87.7633 118.222 88.1613 119.141 88.1613H154.61C156.546 88.1613 158.12 86.4528 158.12 84.3525C158.12 82.2424 156.546 80.5258 154.61 80.5258H119.141Z" fill="#102770"/>
<path d="M187.421 110.971C186.787 111.562 187.129 112.698 187.971 112.689C189.872 112.689 192.324 112.226 194.1 110.226C194.392 109.89 194.85 109.799 195.259 109.954C196.994 110.572 198.87 110.908 200.829 110.908C209.518 110.908 216.564 104.282 216.564 96.1204C216.564 87.9498 209.518 81.324 200.829 81.324C192.14 81.324 185.094 87.9498 185.094 96.1204C185.094 100.083 186.754 103.682 189.464 106.336C189.847 106.718 189.931 107.345 189.672 107.836C189.114 108.936 188.363 110.081 187.421 110.971Z" fill="#2DC66C"/>
<g opacity="0.2">
<path d="M200.995 88.4437C202.334 88.72 203.258 89.5071 203.672 88.0914C204.108 86.6893 203.209 85.0942 201.638 84.769C200.063 84.4422 198.722 85.5652 198.649 87.0455C198.553 88.5279 199.659 88.1653 200.995 88.4437Z" fill="white"/>
</g>
<g opacity="0.2">
<path d="M185.094 96.1242C185.094 96.4476 185.103 96.7716 185.13 97.0854C185.67 89.3715 192.496 83.2768 200.825 83.2768C209.163 83.2768 215.997 89.3815 216.528 97.0955C216.555 96.7716 216.564 96.4476 216.564 96.1241C216.564 87.9487 209.514 81.324 200.825 81.324C192.145 81.324 185.094 87.9487 185.094 96.1242Z" fill="white"/>
</g>
<path d="M187.417 110.973C186.787 111.562 187.129 112.7 187.967 112.691C189.876 112.691 192.325 112.229 194.099 110.227C194.396 109.893 194.855 109.795 195.26 109.952C196.998 110.571 198.871 110.904 200.825 110.904C208.479 110.904 214.863 105.762 216.267 98.9601C214.007 104.505 208.281 108.451 201.581 108.451C199.618 108.451 197.746 108.117 196.008 107.499C195.602 107.342 195.143 107.44 194.855 107.773C193.072 109.776 190.623 110.237 188.723 110.237C188.534 110.237 188.372 110.188 188.237 110.08C187.985 110.394 187.706 110.698 187.417 110.973Z" fill="#2ECC71"/>
<path d="M190.425 105.379C190.677 104.888 190.596 104.26 190.218 103.887C187.507 101.227 185.841 97.6255 185.841 93.6705C185.841 92.6891 185.941 91.7268 186.139 90.8044C185.463 92.4533 185.094 94.2494 185.094 96.1241C185.094 100.079 186.751 103.681 189.461 106.341C189.551 106.429 189.632 106.537 189.686 106.654C189.966 106.233 190.209 105.801 190.425 105.379Z" fill="#2ECC71"/>
<path d="M187.955 113.483C187.289 113.483 186.704 113.045 186.47 112.362C186.225 111.65 186.412 110.869 186.946 110.37C187.711 109.646 188.433 108.637 189.035 107.451C189.131 107.269 189.103 107.051 188.972 106.922C186.004 104.014 184.366 100.176 184.366 96.1202C184.366 87.5237 191.752 80.53 200.83 80.53C209.907 80.53 217.293 87.5238 217.293 96.1202C217.293 104.712 209.908 111.702 200.83 111.702C198.833 111.702 196.883 111.368 195.033 110.708C194.87 110.647 194.713 110.674 194.629 110.771C193.052 112.548 190.752 113.483 187.971 113.483C187.965 113.483 187.96 113.483 187.955 113.483ZM200.83 82.1176C192.555 82.1176 185.823 88.3993 185.823 96.1202C185.823 99.7202 187.288 103.138 189.95 105.746C190.585 106.377 190.731 107.421 190.304 108.232C189.625 109.567 188.792 110.726 187.899 111.571C187.897 111.572 187.896 111.573 187.894 111.575C187.799 111.664 187.82 111.765 187.834 111.805C187.862 111.886 187.928 111.897 187.964 111.896C189.628 111.896 191.946 111.51 193.577 109.674C194.049 109.13 194.806 108.943 195.498 109.204C197.19 109.806 198.988 110.114 200.83 110.114C209.105 110.114 215.836 103.836 215.836 96.1201C215.836 88.3993 209.105 82.1176 200.83 82.1176Z" fill="#102770"/>
<path d="M210.495 91.5982H191.165C190.763 91.5982 190.437 91.2427 190.437 90.8044C190.437 90.366 190.763 90.0106 191.165 90.0106H210.495C210.897 90.0106 211.223 90.366 211.223 90.8044C211.223 91.2427 210.897 91.5982 210.495 91.5982Z" fill="#102770"/>
<path d="M210.494 96.6345H191.165C190.762 96.6345 190.436 96.2791 190.436 95.8407C190.436 95.4023 190.762 95.0469 191.165 95.0469H210.494C210.897 95.0469 211.223 95.4023 211.223 95.8407C211.223 96.2791 210.897 96.6345 210.494 96.6345Z" fill="#102770"/>
<path d="M202.326 101.671H191.165C190.762 101.671 190.436 101.316 190.436 100.877C190.436 100.439 190.762 100.084 191.165 100.084H202.326C202.728 100.084 203.054 100.439 203.054 100.877C203.054 101.316 202.728 101.671 202.326 101.671Z" fill="#102770"/>
<path d="M73.45 145.646L71.383 191.209L60.3118 190.612L62.3796 145.032C62.4604 143.251 63.6715 141.688 65.3043 141.461C67.0808 141.241 68.8441 141.318 70.5768 141.709C72.3106 142.083 73.5363 143.742 73.45 145.646Z" fill="#2ECC71"/>
<g opacity="0.2">
<path d="M69.1587 141.469C68.5172 141.451 67.8889 141.488 67.2427 141.575C65.611 141.785 64.3995 143.348 64.3179 145.147L62.2501 190.727L60.3115 190.623L62.3793 145.042C62.4609 143.243 63.6721 141.68 65.3041 141.471C66.5966 141.295 67.8816 141.294 69.1587 141.469Z" fill="white"/>
</g>
<path d="M73.4498 145.656L71.3828 191.219L67.986 191.036L70.053 145.473C70.1402 143.552 68.898 141.91 67.1809 141.52C66.9267 141.453 66.6561 141.403 66.4006 141.372C67.8023 141.273 69.1939 141.401 70.5773 141.703C72.3103 142.093 73.5369 143.735 73.4498 145.656Z" fill="#39F586"/>
<path d="M73.4498 145.656L72.9142 157.461L61.843 156.864L62.3793 145.042C62.4609 143.243 63.6721 141.68 65.3042 141.471C65.6758 141.421 66.0623 141.389 66.4327 141.374C66.5458 141.362 66.6424 141.35 66.7547 141.356C67.2057 141.328 67.6391 141.334 68.0877 141.358C68.9209 141.403 69.7509 141.518 70.5773 141.703C72.3103 142.093 73.5369 143.735 73.4498 145.656Z" fill="white"/>
<path d="M73.4496 145.656L73.1169 152.991L62.0457 152.394L62.3792 145.042C62.4608 143.243 63.672 141.68 65.304 141.471C65.6756 141.421 66.0621 141.389 66.4325 141.374L66.4486 141.375C66.5613 141.363 66.6423 141.35 66.7545 141.356L66.8347 141.361C67.2537 141.33 67.6706 141.336 68.0876 141.358C68.9208 141.403 69.7508 141.518 70.5772 141.703C72.3102 142.094 73.5368 143.735 73.4496 145.656Z" fill="#2DC66C"/>
<path d="M71.3895 191.22L66.637 200.546C66.0783 201.61 64.6493 201.533 64.2065 200.415L60.3044 190.623L71.3895 191.22Z" fill="#F8C471"/>
<path d="M71.384 192.003C71.3719 192.003 71.3598 192.002 71.347 192.002L60.2764 191.405C60.0836 191.395 59.9023 191.301 59.7728 191.145C59.6434 190.989 59.5758 190.783 59.5851 190.573L61.6526 144.993C61.7528 142.798 63.2834 140.942 65.2129 140.674C67.0855 140.442 68.9389 140.529 70.7247 140.932C72.827 141.385 74.2822 143.385 74.1784 145.685L72.1109 191.248C72.0916 191.673 71.7694 192.003 71.384 192.003ZM61.0758 189.859L70.692 190.377L72.7232 145.607C72.7915 144.1 71.8292 142.789 70.436 142.488C68.7952 142.118 67.0975 142.039 65.3864 142.25C64.1567 142.421 63.1731 143.634 63.1077 145.071L61.0758 189.859Z" fill="#102770"/>
<path d="M69.7232 152.811L69.5205 157.278L72.9173 157.461L73.12 152.994L69.7232 152.811Z" fill="#E6E7E8"/>
<path d="M72.9214 158.263C72.9093 158.263 72.8972 158.262 72.8844 158.261L61.7996 157.664C61.6068 157.654 61.4255 157.56 61.296 157.404C61.1666 157.248 61.099 157.042 61.1083 156.832L61.6452 145C61.7448 142.793 63.2796 140.936 65.2141 140.68C67.0582 140.437 68.9145 140.519 70.7295 140.925C72.8354 141.395 74.2883 143.398 74.1845 145.688L73.6483 157.508C73.629 157.932 73.3068 158.263 72.9214 158.263ZM62.5989 156.118L72.2293 156.637L72.7293 145.61C72.7976 144.108 71.8332 142.792 70.4364 142.48C68.775 142.109 67.0766 142.034 65.3889 142.256C64.1493 142.42 63.1657 143.633 63.1003 145.079L62.5989 156.118Z" fill="#102770"/>
<path d="M73.4497 145.656L73.117 152.991L69.7202 152.808L70.053 145.473C70.1401 143.552 68.8979 141.91 67.1809 141.52C66.9431 141.454 66.6881 141.405 66.4487 141.375C66.5614 141.363 66.6424 141.35 66.7546 141.356L66.8348 141.361C67.2538 141.33 67.6708 141.336 68.0878 141.358C68.9209 141.403 69.7509 141.518 70.5773 141.703C72.3103 142.094 73.5369 143.735 73.4497 145.656Z" fill="#2ECC71"/>
<path d="M73.1241 153.788C73.112 153.788 73.0999 153.787 73.0878 153.787L62.0022 153.19C61.8095 153.179 61.6281 153.085 61.4987 152.93C61.3692 152.773 61.3016 152.568 61.3109 152.358L61.6452 145C61.7447 142.793 63.2795 140.936 65.214 140.68C67.0582 140.437 68.9144 140.519 70.7294 140.925C72.8353 141.395 74.2883 143.398 74.1844 145.688L73.8516 153.033C73.8416 153.244 73.7563 153.441 73.6126 153.582C73.479 153.715 73.304 153.788 73.1241 153.788ZM62.8016 151.643L72.4328 152.162L72.7294 145.61C72.7977 144.108 71.8333 142.792 70.4365 142.48C68.7751 142.109 67.0767 142.034 65.3891 142.256C64.1494 142.42 63.1658 143.633 63.1004 145.079L62.8016 151.643Z" fill="#102770"/>
<path d="M67.6624 198.529L66.6399 200.539C66.0771 201.612 64.651 201.535 64.2046 200.407L63.3687 198.297C63.9682 197.822 64.7515 197.549 65.5526 197.592C66.3537 197.635 67.1084 197.991 67.6624 198.529Z" fill="#102770"/>
<path d="M65.448 202.094C65.4082 202.094 65.3684 202.093 65.3285 202.09C64.5377 202.042 63.8506 201.518 63.5356 200.722L59.6439 190.939C59.5436 190.687 59.5692 190.397 59.7129 190.171C59.8565 189.946 60.1012 189.822 60.348 189.83L71.4193 190.426C71.6704 190.44 71.8973 190.594 72.0196 190.834C72.1419 191.073 72.1419 191.364 72.0196 191.604L67.2773 200.924C66.8918 201.657 66.2005 202.094 65.448 202.094ZM61.4468 191.478L64.8727 200.093C65.0121 200.444 65.2951 200.498 65.4104 200.506C65.6422 200.523 65.8812 200.386 66.0078 200.145L70.179 191.949L61.4468 191.478Z" fill="#102770"/>
<path d="M48.5647 175.937C48.4175 175.937 48.2681 175.888 48.1394 175.787C47.8129 175.531 47.7397 175.034 47.9744 174.679L49.1166 172.953C49.2033 172.823 49.2389 172.658 49.2154 172.5L47.4445 160.575C47.3528 159.955 47.4879 159.333 47.825 158.823C48.1621 158.314 48.6614 157.978 49.2304 157.878L53.7693 157.077C54.1733 157.006 54.5402 157.301 54.6049 157.734C54.669 158.166 54.3994 158.574 54.0025 158.644L49.4629 159.445C49.278 159.478 49.1158 159.587 49.0063 159.752C48.8968 159.918 48.8527 160.12 48.8826 160.322L50.6535 172.247C50.7388 172.827 50.6122 173.408 50.2979 173.882L49.1564 175.608C49.0135 175.823 48.7909 175.937 48.5647 175.937Z" fill="#102770"/>
<path d="M50.615 145.063L51.3849 150.248L55.1811 149.579L54.4112 144.393C54.2422 143.255 53.2586 142.481 52.2001 142.668C51.1559 142.852 50.446 143.925 50.615 145.063Z" fill="#FFCA28"/>
<path d="M51.3848 151.042C51.2326 151.042 51.0832 150.99 50.9588 150.892C50.8023 150.769 50.6964 150.583 50.6658 150.375L49.8962 145.19C49.7832 144.43 49.9489 143.668 50.3621 143.043C50.7753 142.419 51.3869 142.007 52.0846 141.884C53.5284 141.634 54.8967 142.697 55.1307 144.266L55.9003 149.452C55.9643 149.884 55.6947 150.292 55.2979 150.362L51.5014 151.032C51.4623 151.039 51.4232 151.042 51.3848 151.042ZM52.5121 143.434C52.4473 143.434 52.3826 143.44 52.3172 143.452C52.0035 143.507 51.729 143.692 51.5434 143.972C51.3578 144.253 51.2831 144.594 51.3343 144.936V144.936L51.9872 149.338L54.3462 148.922L53.6927 144.52C53.5988 143.886 53.0896 143.434 52.5121 143.434Z" fill="#102770"/>
<path d="M55.6141 191.8L49.4231 150.105C49.2677 149.059 49.9184 148.076 50.8642 147.909L54.985 147.182C55.9446 147.013 56.8464 147.722 57.0018 148.768L63.1928 190.463L55.6141 191.8Z" fill="#22A7F0"/>
<g opacity="0.2">
<path d="M53.3901 147.464C54.3356 147.297 55.2371 148.006 55.3924 149.052L61.5838 190.749L63.1928 190.466L57.0015 148.768C56.8461 147.722 55.9442 147.013 54.9847 147.182L53.3901 147.464Z" fill="white"/>
</g>
<path d="M49.4226 150.105L55.614 191.802L58.2532 191.337L52.0618 149.639C51.9064 148.593 52.5571 147.61 53.5167 147.441L50.8637 147.909C49.9179 148.076 49.2672 149.059 49.4226 150.105Z" fill="#1C7FC8"/>
<path d="M55.6134 192.594C55.262 192.594 54.9533 192.317 54.895 191.927L48.704 150.232C48.598 149.518 48.7524 148.802 49.1385 148.215C49.5254 147.627 50.0965 147.241 50.7473 147.125L54.868 146.399C56.2271 146.159 57.5009 147.166 57.7206 148.641L63.9117 190.337C63.9423 190.544 63.896 190.757 63.7829 190.928C63.6706 191.099 63.4999 191.213 63.3093 191.247L55.7307 192.584C55.6909 192.591 55.6518 192.594 55.6134 192.594ZM55.2663 147.951C55.2115 147.951 55.1568 147.956 55.1013 147.966L50.9806 148.693C50.7146 148.74 50.4813 148.898 50.322 149.14C50.162 149.384 50.098 149.681 50.1421 149.978L56.2165 190.89L62.3577 189.806L56.2826 148.895C56.2008 148.344 55.762 147.951 55.2663 147.951Z" fill="#102770"/>
<path d="M57.8544 154.479L50.2754 155.816L51.3606 163.123L58.9396 161.786L57.8544 154.479Z" fill="white"/>
<path d="M52.9147 155.351L50.2754 155.816L51.3606 163.123L53.9999 162.658L52.9147 155.351Z" fill="#E6E7E8"/>
<path d="M51.3541 163.908C51.0028 163.908 50.6941 163.631 50.6358 163.241L49.5505 155.935C49.5199 155.727 49.5661 155.514 49.6792 155.344C49.7916 155.173 49.9622 155.058 50.1528 155.024L57.7314 153.687C58.1361 153.616 58.5024 153.912 58.5671 154.344L59.6524 161.651C59.683 161.859 59.6368 162.071 59.5237 162.242C59.4113 162.413 59.2407 162.528 59.0501 162.561L51.4715 163.898C51.4316 163.905 51.3925 163.908 51.3541 163.908ZM51.1052 156.465L51.9572 162.204L58.0977 161.121L57.2457 155.382L51.1052 156.465Z" fill="#102770"/>
<path d="M55.6128 191.793L59.6527 198.105C60.0139 198.859 61.048 198.678 61.1733 197.838L63.1914 190.456L55.6128 191.793Z" fill="white"/>
<path d="M60.3614 199.375C59.7931 199.375 59.2789 199.04 59.0066 198.473L55.0153 192.247C54.8723 192.023 54.8446 191.735 54.942 191.483C55.0394 191.232 55.2493 191.053 55.496 191.009L63.0747 189.672C63.3236 189.63 63.5725 189.727 63.7382 189.932C63.9039 190.137 63.9608 190.421 63.889 190.683L61.8713 198.065C61.7838 198.692 61.2831 199.236 60.6168 199.353C60.5307 199.368 60.4453 199.375 60.3614 199.375ZM56.873 192.375L60.3856 197.786C60.3906 197.752 60.4667 197.644 60.4759 197.611L62.1622 191.442L56.873 192.375Z" fill="#102770"/>
<path d="M89.4113 153.798L78.9522 194.664C78.5874 196.09 77.2283 196.915 75.9202 196.518L68.1368 194.151C66.8291 193.753 66.058 192.28 66.4228 190.855L76.8819 149.988C77.2466 148.563 78.6091 147.726 79.9169 148.123L87.7003 150.49C89.0083 150.887 89.7761 152.373 89.4113 153.798Z" fill="#FFCA28"/>
<g opacity="0.2">
<path d="M69.6555 194.613L68.1368 194.151C66.8291 193.753 66.058 192.28 66.4228 190.855L76.8819 149.988C77.2467 148.563 78.6091 147.726 79.9169 148.123L81.4356 148.585C80.1278 148.187 78.7653 149.025 78.4006 150.45L67.9414 191.317C67.5767 192.742 68.3477 194.215 69.6555 194.613Z" fill="white"/>
</g>
<path d="M89.4112 153.798L78.9521 194.664C78.5873 196.09 77.2282 196.915 75.9201 196.518L73.5471 195.796C74.8552 196.194 76.2143 195.368 76.5791 193.943L87.0382 153.076C87.403 151.651 86.6352 150.166 85.3272 149.768L87.7002 150.49C89.0082 150.887 89.776 152.373 89.4112 153.798Z" fill="#FFA726"/>
<path d="M76.584 197.411C76.3002 197.411 76.0115 197.369 75.7249 197.282L67.9414 194.916C67.1214 194.666 66.4394 194.086 66.0197 193.28C65.5987 192.472 65.4927 191.535 65.7217 190.642L76.1808 149.775C76.6537 147.927 78.4161 146.844 80.1123 147.358L87.8958 149.725C88.7158 149.975 89.3985 150.558 89.8175 151.369C90.2363 152.179 90.3416 153.118 90.1126 154.011L79.6536 194.878C79.2624 196.408 77.9794 197.411 76.584 197.411ZM79.2553 148.818C78.4965 148.818 77.7974 149.366 77.5833 150.201L67.1242 191.068C67.0005 191.552 67.0581 192.059 67.2857 192.496C67.514 192.935 67.886 193.251 68.3326 193.386L76.116 195.753C77.0371 196.032 77.9951 195.449 78.2511 194.451L88.7101 153.585C88.8338 153.099 88.777 152.589 88.5487 152.148C88.3204 151.707 87.9498 151.39 87.5046 151.255L79.7212 148.888C79.5661 148.841 79.4097 148.818 79.2553 148.818Z" fill="#102770"/>
<path d="M78.7877 154.442C78.7223 154.442 78.6569 154.433 78.5915 154.413L75.9543 153.611C75.5667 153.493 75.3405 153.055 75.4486 152.633C75.556 152.21 75.9614 151.965 76.3454 152.082L78.9826 152.884C79.3702 153.001 79.5964 153.439 79.4883 153.861C79.3987 154.213 79.1064 154.442 78.7877 154.442Z" fill="#102770"/>
<path d="M76.4479 159.142C76.3825 159.142 76.317 159.132 76.2516 159.112L74.6699 158.631C74.2823 158.513 74.0561 158.075 74.1642 157.653C74.2723 157.23 74.6756 156.986 75.061 157.102L76.6427 157.583C77.0304 157.701 77.2565 158.138 77.1484 158.561C77.0588 158.912 76.7665 159.142 76.4479 159.142Z" fill="#102770"/>
<path d="M76.2184 164.482C76.153 164.482 76.0876 164.472 76.0221 164.452L73.385 163.651C72.9974 163.533 72.7712 163.095 72.8793 162.673C72.9874 162.25 73.3921 162.004 73.7761 162.121L76.4133 162.923C76.8009 163.041 77.027 163.479 76.9189 163.901C76.8293 164.252 76.537 164.482 76.2184 164.482Z" fill="#102770"/>
<path d="M73.8783 169.181C73.8129 169.181 73.7475 169.171 73.682 169.152L72.1003 168.671C71.7127 168.553 71.4865 168.115 71.5946 167.693C71.7027 167.269 72.106 167.025 72.4914 167.141L74.0732 167.622C74.4608 167.74 74.6869 168.178 74.5788 168.6C74.4893 168.951 74.1969 169.181 73.8783 169.181Z" fill="#102770"/>
<path d="M73.6484 174.521C73.5829 174.521 73.5175 174.512 73.4521 174.492L70.8156 173.69C70.428 173.572 70.2019 173.134 70.31 172.712C70.4173 172.289 70.822 172.044 71.2068 172.161L73.8432 172.962C74.2308 173.08 74.457 173.518 74.3489 173.94C74.2593 174.291 73.967 174.521 73.6484 174.521Z" fill="#102770"/>
<path d="M71.3094 179.22C71.244 179.22 71.1786 179.211 71.1132 179.191L69.5307 178.71C69.1431 178.592 68.917 178.154 69.025 177.732C69.1331 177.309 69.5364 177.065 69.9219 177.181L71.5043 177.662C71.8919 177.779 72.1181 178.217 72.01 178.64C71.9204 178.991 71.6281 179.22 71.3094 179.22Z" fill="#102770"/>
<path d="M71.079 184.561C71.0136 184.561 70.9482 184.551 70.8828 184.531L68.2463 183.73C67.8587 183.612 67.6325 183.174 67.7406 182.752C67.8487 182.328 68.2527 182.084 68.6374 182.2L71.2739 183.002C71.6615 183.12 71.8877 183.558 71.7796 183.98C71.69 184.331 71.3977 184.561 71.079 184.561Z" fill="#102770"/>
<path d="M68.7401 189.26C68.6747 189.26 68.6092 189.25 68.5438 189.23L66.9614 188.749C66.5738 188.632 66.3476 188.194 66.4557 187.772C66.5638 187.348 66.9678 187.105 67.3526 187.22L68.935 187.701C69.3226 187.819 69.5488 188.257 69.4407 188.679C69.351 189.03 69.0587 189.26 68.7401 189.26Z" fill="#102770"/>
<path d="M86.7952 154.034C86.9989 153.198 86.5425 152.341 85.7758 152.119C85.0091 151.897 84.2225 152.394 84.0187 153.23C83.815 154.066 84.2714 154.923 85.0381 155.145C85.8048 155.367 86.5915 154.87 86.7952 154.034Z" fill="#102770"/>
<path d="M85.6269 181.815L79.9 213.095C79.483 215.368 77.7989 217.099 75.6974 217.396C70.6923 218.113 65.6716 218.113 60.6666 217.396C58.5651 217.099 56.8811 215.368 56.464 213.095L50.7371 181.815C50.3361 179.7 51.8278 177.724 53.8013 177.724H82.5632C84.5362 177.724 86.0279 179.7 85.6269 181.815Z" fill="#2ECC71"/>
<path d="M85.6269 181.815L79.9 213.095C79.483 215.368 77.7989 217.099 75.6974 217.396C70.6923 218.113 65.6716 218.113 60.6666 217.396C58.5651 217.099 56.8811 215.368 56.464 213.095L50.7371 181.815C50.3361 179.7 51.8278 177.724 53.8013 177.724H82.5632C84.5362 177.724 86.0279 179.7 85.6269 181.815Z" fill="#2ECC71"/>
<g opacity="0.2">
<path d="M85.6269 181.815L85.4507 182.742C84.9854 181.536 83.8786 180.662 82.5632 180.662H53.8013C52.4858 180.662 51.3786 181.536 50.9134 182.742L50.7371 181.815C50.3361 179.7 51.8278 177.724 53.8013 177.724H82.5632C84.5362 177.724 86.0279 179.7 85.6269 181.815Z" fill="white"/>
</g>
<path d="M80.5416 209.563L79.8997 213.095C79.4826 215.368 77.7986 217.099 75.6971 217.396C70.692 218.113 65.6713 218.113 60.6662 217.396C58.5647 217.099 56.8807 215.368 56.4637 213.095L55.8218 209.563C56.2549 211.958 58.0678 213.777 60.2813 214.091C65.5429 214.843 70.8205 214.843 76.0821 214.091C78.2955 213.777 80.1084 211.958 80.5416 209.563Z" fill="#2ECC71"/>
<path d="M68.182 218.726C65.6394 218.726 63.0968 218.544 60.5721 218.183C58.1668 217.843 56.2287 215.86 55.7501 213.25L50.0227 181.97C49.7887 180.737 50.0746 179.464 50.8086 178.482C51.5454 177.496 52.6364 176.93 53.8013 176.93H82.5632C83.7275 176.93 84.8177 177.495 85.5546 178.481C86.2878 179.463 86.5745 180.735 86.3398 181.973L80.6138 213.25C80.1352 215.86 78.1972 217.843 75.7911 218.183C73.2671 218.544 70.7246 218.726 68.182 218.726ZM53.8014 178.518C53.076 178.518 52.3975 178.87 51.938 179.484C51.4821 180.095 51.3043 180.886 51.4501 181.654L57.1782 212.939C57.5345 214.881 58.974 216.356 60.7606 216.608C65.6857 217.314 70.6791 217.314 75.6027 216.608C77.39 216.356 78.8295 214.881 79.1858 212.939L84.9124 181.66C84.9124 181.658 84.9131 181.656 84.9131 181.654C85.0589 180.885 84.8811 180.094 84.4252 179.484C83.9665 178.87 83.288 178.518 82.5633 178.518H53.8014Z" fill="#102770"/>
<path d="M234.088 224.31V237.011C234.088 240.519 231.466 243.376 228.232 243.376H53.985C50.766 243.376 48.1445 240.519 48.1445 237.011V224.31C48.1445 220.801 50.766 217.943 53.985 217.943H228.232C231.466 217.943 234.088 220.801 234.088 224.31Z" fill="#2ECC71"/>
<g opacity="0.2">
<path d="M234.092 224.304V227.686C234.092 224.177 231.47 221.304 228.236 221.304H53.989C50.7701 221.304 48.1482 224.177 48.1482 227.686V224.304C48.1482 220.796 50.7701 217.938 53.989 217.938H228.236C231.47 217.938 234.092 220.796 234.092 224.304Z" fill="white"/>
</g>
<path d="M234.088 230.866V237.011C234.088 240.519 231.466 243.376 228.232 243.376H53.985C50.766 243.376 48.1445 240.519 48.1445 237.011V230.866C48.1445 234.375 50.766 237.217 53.985 237.217H228.232C231.466 237.217 234.088 234.375 234.088 230.866Z" fill="#02A545"/>
<path d="M228.236 244.165H53.9888C50.3667 244.165 47.4194 240.953 47.4194 237.005V224.304C47.4194 220.356 50.3667 217.144 53.9888 217.144H228.236C231.866 217.144 234.82 220.356 234.82 224.304V237.005C234.82 240.953 231.866 244.165 228.236 244.165ZM53.9888 218.732C51.1696 218.732 48.876 221.232 48.876 224.304V237.005C48.876 240.078 51.1696 242.577 53.9888 242.577H228.236C231.063 242.577 233.363 240.078 233.363 237.005V224.304C233.363 221.232 231.063 218.732 228.236 218.732H53.9888Z" fill="#102770"/>
<path d="M178.165 217.934H225.756C229.083 217.934 231.781 214.994 231.781 211.367V204.964C231.781 201.337 229.083 198.397 225.756 198.397H178.165C177.438 198.397 176.964 199.19 177.217 199.933C179.086 205.421 179.086 210.909 177.217 216.397C176.964 217.14 177.438 217.934 178.165 217.934Z" fill="#2ECC71"/>
<g opacity="0.2">
<path d="M231.773 204.957V206.861C231.773 203.232 229.086 200.286 225.756 200.286H178.166C177.867 200.286 177.628 200.416 177.434 200.612C177.359 200.383 177.285 200.155 177.21 199.928C176.956 199.195 177.434 198.397 178.166 198.397H225.756C229.086 198.397 231.773 201.343 231.773 204.957Z" fill="white"/>
</g>
<path d="M231.773 208.993V211.37C231.773 214.999 229.086 217.928 225.756 217.928H178.165C177.434 217.928 176.956 217.147 177.21 216.399C177.329 216.041 177.449 215.682 177.553 215.325C177.717 215.471 177.927 215.552 178.165 215.552H225.756C229.086 215.552 231.773 212.623 231.773 208.993Z" fill="#39F586"/>
<path d="M177.923 213.968H224.139C225.574 213.968 226.742 212.695 226.742 211.119V205.214C226.742 203.637 225.574 202.364 224.139 202.364H177.923C178.858 206.232 178.858 210.1 177.923 213.968Z" fill="#102770"/>
<path d="M177.923 213.968H224.139C225.574 213.968 226.742 212.695 226.742 211.119V205.214C226.742 203.637 225.574 202.364 224.139 202.364H177.923C178.858 206.232 178.858 210.1 177.923 213.968Z" fill="white"/>
<path d="M226.741 208.749V211.126C226.741 212.688 225.576 213.974 224.143 213.974H177.927C178.121 213.176 178.27 212.379 178.375 211.598H224.143C225.576 211.598 226.741 210.328 226.741 208.749Z" fill="#E6E7E8"/>
<path d="M225.756 218.727H178.164C177.586 218.727 177.066 218.432 176.738 217.917C176.405 217.396 176.329 216.724 176.534 216.121C178.332 210.842 178.332 205.489 176.534 200.21C176.329 199.606 176.405 198.935 176.738 198.413C177.066 197.899 177.586 197.603 178.164 197.603H225.756C229.48 197.603 232.509 200.905 232.509 204.964V211.367C232.509 215.426 229.48 218.727 225.756 218.727ZM178.164 199.191C178.041 199.191 177.971 199.261 177.933 199.32C177.904 199.366 177.842 199.49 177.899 199.658C179.823 205.303 179.823 211.028 177.899 216.674C177.842 216.84 177.904 216.965 177.933 217.01C177.971 217.069 178.042 217.14 178.164 217.14H225.756C228.676 217.14 231.053 214.55 231.053 211.367V204.964C231.053 201.78 228.676 199.191 225.756 199.191H178.164Z" fill="#102770"/>
<path d="M224.139 214.762H177.923C177.696 214.762 177.484 214.648 177.346 214.453C177.208 214.258 177.161 214.005 177.218 213.766C178.116 210.05 178.116 206.282 177.218 202.566C177.161 202.328 177.208 202.074 177.346 201.88C177.484 201.685 177.696 201.57 177.923 201.57H224.139C225.976 201.57 227.47 203.205 227.47 205.214V211.119C227.47 213.128 225.976 214.762 224.139 214.762ZM178.847 213.175H224.139C225.172 213.175 226.014 212.253 226.014 211.119V205.214C226.014 204.08 225.172 203.158 224.139 203.158H178.847C179.516 206.486 179.516 209.847 178.847 213.175Z" fill="#102770"/>
<path d="M224.139 214.762H177.923C177.696 214.762 177.484 214.648 177.346 214.453C177.208 214.258 177.161 214.005 177.218 213.766C178.116 210.05 178.116 206.282 177.218 202.566C177.161 202.328 177.208 202.074 177.346 201.88C177.484 201.685 177.696 201.57 177.923 201.57H224.139C225.976 201.57 227.47 203.205 227.47 205.214V211.119C227.47 213.128 225.976 214.762 224.139 214.762ZM178.847 213.175H224.139C225.172 213.175 226.014 212.253 226.014 211.119V205.214C226.014 204.08 225.172 203.158 224.139 203.158H178.847C179.516 206.486 179.516 209.847 178.847 213.175Z" fill="#102770"/>
<path d="M211.097 207.067H178.836C178.433 207.067 178.107 206.711 178.107 206.273C178.107 205.835 178.433 205.479 178.836 205.479H211.097C211.499 205.479 211.825 205.835 211.825 206.273C211.825 206.711 211.499 207.067 211.097 207.067Z" fill="#102770"/>
<path d="M206.569 210.852H178.903C178.5 210.852 178.174 210.496 178.174 210.058C178.174 209.619 178.5 209.264 178.903 209.264H206.569C206.971 209.264 207.297 209.619 207.297 210.058C207.297 210.496 206.971 210.852 206.569 210.852Z" fill="#102770"/>
<path d="M232.865 198.055H185.274C181.946 198.055 179.249 195.115 179.249 191.488V185.085C179.249 181.459 181.946 178.519 185.274 178.519H232.865C233.592 178.519 234.066 179.312 233.813 180.055C231.944 185.543 231.944 191.031 233.813 196.519C234.066 197.262 233.592 198.055 232.865 198.055Z" fill="#2ECC71"/>
<g opacity="0.2">
<path d="M179.257 185.079V186.983C179.257 183.353 181.944 180.407 185.274 180.407H232.864C233.163 180.407 233.402 180.538 233.596 180.733C233.671 180.505 233.745 180.277 233.82 180.05C234.074 179.317 233.596 178.519 232.864 178.519H185.274C181.944 178.519 179.257 181.465 179.257 185.079Z" fill="white"/>
</g>
<path d="M179.257 189.115V191.491C179.257 195.121 181.944 198.05 185.274 198.05H232.864C233.596 198.05 234.074 197.269 233.82 196.52C233.7 196.163 233.581 195.804 233.476 195.447C233.312 195.593 233.103 195.674 232.864 195.674H185.274C181.944 195.674 179.257 192.745 179.257 189.115Z" fill="#2ECC71"/>
<path d="M233.107 194.09H186.891C185.456 194.09 184.288 192.817 184.288 191.241V185.335C184.288 183.759 185.456 182.486 186.891 182.486H233.107C232.172 186.354 232.172 190.222 233.107 194.09Z" fill="#102770"/>
<path d="M233.107 194.09H186.891C185.456 194.09 184.288 192.817 184.288 191.241V185.335C184.288 183.759 185.456 182.486 186.891 182.486H233.107C232.172 186.354 232.172 190.222 233.107 194.09Z" fill="white"/>
<path d="M184.289 188.871V191.247C184.289 192.81 185.454 194.096 186.887 194.096H233.103C232.909 193.298 232.76 192.501 232.655 191.719H186.887C185.454 191.719 184.289 190.449 184.289 188.871Z" fill="#E6E7E8"/>
<path d="M232.866 198.849H185.274C181.55 198.849 178.521 195.547 178.521 191.489V185.086C178.521 181.027 181.55 177.725 185.274 177.725H232.865C233.444 177.725 233.964 178.02 234.292 178.535C234.625 179.057 234.701 179.728 234.496 180.331C232.698 185.61 232.698 190.963 234.496 196.242C234.701 196.846 234.625 197.518 234.292 198.039C233.964 198.554 233.444 198.849 232.866 198.849ZM185.274 179.312C182.353 179.312 179.977 181.902 179.977 185.086V191.489C179.977 194.672 182.353 197.261 185.274 197.261H232.865C232.989 197.261 233.059 197.191 233.097 197.132C233.126 197.086 233.188 196.962 233.131 196.794C231.207 191.149 231.207 185.424 233.131 179.779C233.188 179.612 233.126 179.488 233.097 179.442C233.059 179.383 232.988 179.312 232.865 179.312L185.274 179.312Z" fill="#102770"/>
<path d="M233.107 194.884H186.891C185.054 194.884 183.56 193.249 183.56 191.24V185.336C183.56 183.327 185.054 181.692 186.891 181.692H233.107C233.333 181.692 233.546 181.806 233.684 182.001C233.822 182.196 233.869 182.45 233.811 182.688C232.914 186.404 232.914 190.172 233.811 193.888C233.869 194.126 233.822 194.38 233.684 194.575C233.546 194.77 233.333 194.884 233.107 194.884ZM186.891 183.28C185.857 183.28 185.016 184.202 185.016 185.336V191.24C185.016 192.374 185.857 193.296 186.891 193.296H232.183C231.514 189.968 231.514 186.608 232.183 183.28L186.891 183.28Z" fill="#102770"/>
<path d="M233.107 194.884H186.891C185.054 194.884 183.56 193.249 183.56 191.24V185.336C183.56 183.327 185.054 181.692 186.891 181.692H233.107C233.333 181.692 233.546 181.806 233.684 182.001C233.822 182.196 233.869 182.45 233.811 182.688C232.914 186.404 232.914 190.172 233.811 193.888C233.869 194.126 233.822 194.38 233.684 194.575C233.546 194.77 233.333 194.884 233.107 194.884ZM186.891 183.28C185.857 183.28 185.016 184.202 185.016 185.336V191.24C185.016 192.374 185.857 193.296 186.891 193.296H232.183C231.514 189.968 231.514 186.608 232.183 183.28L186.891 183.28Z" fill="#102770"/>
<path d="M232.194 187.188H199.933C199.53 187.188 199.205 186.833 199.205 186.394C199.205 185.956 199.53 185.601 199.933 185.601H232.194C232.596 185.601 232.922 185.956 232.922 186.394C232.922 186.833 232.596 187.188 232.194 187.188Z" fill="#102770"/>
<path d="M232.127 190.973H204.461C204.059 190.973 203.733 190.618 203.733 190.179C203.733 189.741 204.059 189.385 204.461 189.385H232.127C232.53 189.385 232.856 189.741 232.856 190.179C232.856 190.618 232.53 190.973 232.127 190.973Z" fill="#102770"/>
<path d="M206.188 76.9471C205.791 76.9471 205.466 76.5999 205.46 76.1657L205.354 68.7468C205.347 68.3084 205.669 67.9476 206.071 67.9406C206.461 67.9274 206.804 68.2841 206.81 68.722L206.916 76.1409C206.923 76.5793 206.601 76.9401 206.199 76.9471C206.196 76.9471 206.192 76.9471 206.188 76.9471Z" fill="#22A7F0"/>
<path d="M202.731 73.2956C202.333 73.2956 202.008 72.948 202.003 72.5135C201.997 72.0755 202.318 71.7146 202.72 71.708L209.53 71.5976C209.951 71.6103 210.263 71.941 210.269 72.3797C210.275 72.8177 209.954 73.1786 209.551 73.1852L202.741 73.2956C202.738 73.2956 202.734 73.2956 202.731 73.2956Z" fill="#22A7F0"/>
<path d="M193.177 63.8267C191.352 63.8271 189.727 62.4046 189.387 60.3798C189.005 58.1012 190.396 55.9089 192.486 55.4927C193.499 55.2907 194.523 55.5315 195.37 56.1698C196.217 56.8082 196.785 57.7675 196.97 58.8709C197.154 59.9748 196.934 61.0911 196.349 62.0143C195.763 62.9375 194.884 63.5565 193.871 63.7581C193.638 63.8043 193.406 63.8267 193.177 63.8267ZM193.183 57.0113C193.039 57.0113 192.893 57.0256 192.748 57.0547C191.447 57.3132 190.582 58.6772 190.82 60.0946C191.057 61.512 192.307 62.4558 193.609 62.1961C194.239 62.0709 194.787 61.6857 195.151 61.1117C195.515 60.5372 195.652 59.843 195.537 59.1562V59.1559C195.422 58.4694 195.068 57.8729 194.542 57.4761C194.137 57.1702 193.666 57.0113 193.183 57.0113Z" fill="#FFCA28"/>
<path d="M221.772 68.4419C222.713 68.0803 223.207 66.956 222.875 65.9306C222.543 64.9053 221.512 64.3672 220.571 64.7288C219.63 65.0904 219.137 66.2148 219.468 67.2401C219.8 68.2655 220.832 68.8035 221.772 68.4419Z" fill="#102770"/>
<path d="M233.561 89.0617C234.701 87.8198 234.701 85.8064 233.561 84.5645C232.422 83.3227 230.575 83.3227 229.435 84.5645C228.296 85.8064 228.296 87.8198 229.435 89.0617C230.575 90.3035 232.422 90.3035 233.561 89.0617Z" fill="#2ECC71"/>
<path d="M67.0403 110.137C67.0218 110.137 67.0027 110.137 66.9834 110.135L60.1957 109.563C59.7945 109.53 59.4944 109.148 59.5257 108.711C59.557 108.274 59.8998 107.946 60.308 107.98L67.0958 108.552C67.4969 108.586 67.7971 108.968 67.7658 109.405C67.7359 109.821 67.4173 110.137 67.0403 110.137Z" fill="#22A7F0"/>
<path d="M63.3839 113.551C63.3647 113.551 63.3462 113.551 63.3263 113.549C62.9259 113.515 62.6257 113.133 62.657 112.696L63.1862 105.295C63.2175 104.857 63.5567 104.533 63.9692 104.565C64.3696 104.599 64.6697 104.981 64.6385 105.418L64.1093 112.819C64.0794 113.236 63.7608 113.551 63.3839 113.551Z" fill="#22A7F0"/>
<path d="M50.7305 126.135C49.8279 126.135 48.9617 125.793 48.2612 125.153C47.4724 124.432 46.9881 123.42 46.8978 122.302C46.8074 121.184 47.1218 120.095 47.7832 119.235C48.4439 118.375 49.3735 117.847 50.399 117.749C51.4203 117.647 52.4239 117.992 53.2126 118.714C54.0013 119.434 54.4857 120.447 54.576 121.564C54.6663 122.682 54.3519 123.771 53.6912 124.632C53.0298 125.492 52.101 126.02 51.0754 126.118C50.9602 126.129 50.8449 126.135 50.7305 126.135ZM50.5271 119.33C49.8884 119.391 49.3109 119.72 48.8991 120.254C48.4881 120.789 48.2925 121.467 48.3487 122.162C48.4049 122.857 48.7064 123.488 49.1971 123.936C49.6879 124.384 50.3094 124.597 50.9474 124.537C51.5853 124.475 52.1628 124.147 52.5746 123.612C52.9857 123.077 53.1813 122.399 53.1251 121.704C53.0689 121.009 52.7674 120.378 52.2773 119.93C51.7859 119.482 51.1636 119.267 50.5271 119.33Z" fill="#FFCA28"/>
<path d="M61.0712 93.4648C61.7119 92.6316 61.6115 91.39 60.8471 90.6917C60.0826 89.9934 58.9435 90.1028 58.3029 90.936C57.6622 91.7693 57.7625 93.0108 58.527 93.7091C59.2915 94.4074 60.4305 94.2981 61.0712 93.4648Z" fill="#2ECC71"/>
<path d="M72.1582 84.1936C73.2976 82.9517 73.2976 80.9383 72.1582 79.6965C71.0188 78.4546 69.1716 78.4546 68.0322 79.6965C66.8929 80.9383 66.8929 82.9517 68.0322 84.1936C69.1716 85.4354 71.0188 85.4354 72.1582 84.1936Z" fill="#2DC66C"/>
<g opacity="0.2">
<path d="M60.6512 193.126C61.0966 197.234 61.9452 200.502 60.2599 200.719C58.5746 200.936 56.8474 197.782 56.4019 193.674C55.9565 189.566 56.9616 186.06 58.6469 185.843C60.3321 185.626 60.2058 189.019 60.6512 193.126Z" fill="white"/>
<path d="M62.0447 205.977C62.2355 207.737 62.8776 209.1 61.1923 209.318C59.507 209.535 57.9862 208.284 57.7954 206.525C57.6046 204.765 58.8161 203.163 60.5014 202.946C62.1867 202.729 61.8539 204.218 62.0447 205.977Z" fill="white"/>
</g>
<g opacity="0.2">
<path d="M86.5535 232.162C81.5741 232.13 77.5338 232.806 77.5469 230.38C77.5601 227.953 81.6073 226.011 86.5866 226.043C91.566 226.075 95.5919 228.069 95.5788 230.496C95.5657 232.922 91.5329 232.194 86.5535 232.162Z" fill="white"/>
<path d="M70.9757 232.062C68.843 232.049 67.1103 232.739 67.1234 230.313C67.1365 227.886 68.8761 225.929 71.0089 225.943C73.1416 225.957 74.8599 227.935 74.8468 230.362C74.8336 232.789 73.1085 232.076 70.9757 232.062Z" fill="white"/>
</g>
</svg>
