<svg width="291" height="291" viewBox="0 0 291 291" fill="none" xmlns="http://www.w3.org/2000/svg">
<circle cx="272.914" cy="54" r="12" fill="#2ECC71"/>
<circle cx="39.1375" cy="181.016" r="12" fill="#2ECC71"/>
<circle cx="27.1373" cy="98.7015" r="21.1373" fill="#6849EF"/>
<path d="M214.693 60.4504V237.828C214.693 244.077 209.608 249.17 203.369 249.17H100.618C94.3794 249.17 89.2944 244.077 89.2944 237.828V60.4504C89.2944 54.2014 94.3794 49.1698 100.618 49.1698H203.369C209.608 49.1699 214.693 54.2014 214.693 60.4504Z" fill="#3A3A3A"/>
<path d="M206.082 60.4504V237.828C206.082 244.077 201.029 249.17 194.759 249.17H92.0082C85.7695 249.17 80.7158 244.077 80.7158 237.828V60.4504C80.7158 54.2014 85.7695 49.1698 92.0082 49.1698H194.759C201.029 49.1699 206.082 54.2014 206.082 60.4504Z" fill="#51504F"/>
<path d="M199.501 60.4504V237.828C199.501 240.452 197.38 242.576 194.76 242.576H92.0086C89.3881 242.576 87.2671 240.452 87.2671 237.828V60.4504C87.2671 57.8568 89.388 55.7636 92.0086 55.7636H194.76C197.38 55.7636 199.501 57.8568 199.501 60.4504Z" fill="white"/>
<path d="M190.143 78.79V124.283C190.143 129.282 186.088 133.313 181.128 133.313H105.64C100.68 133.313 96.6252 129.282 96.6252 124.283V78.79C96.6252 73.7921 100.68 69.7613 105.64 69.7613H181.128C186.088 69.7613 190.143 73.7921 190.143 78.79Z" fill="#D1DAFE"/>
<path d="M181.107 61.2893H107.426C107.419 61.2893 107.413 61.2835 107.413 61.2762V52.2486C107.413 52.2413 107.419 52.2355 107.426 52.2355H181.107C181.114 52.2355 181.12 52.2413 181.12 52.2486V61.2762C181.12 61.2835 181.114 61.2893 181.107 61.2893Z" fill="#51504F"/>
<path d="M129.292 56.7626C136.038 55.5299 142.784 55.2537 149.531 55.2003C156.277 55.2461 163.023 55.5238 169.77 56.7626C163.024 58.0014 156.277 58.2775 149.531 58.3233C142.784 58.2714 136.038 57.9938 129.292 56.7626Z" fill="#3A3A3A"/>
<path d="M118.763 56.7626C119.662 55.5299 120.561 55.2537 121.46 55.2003C122.359 55.2461 123.257 55.5238 124.156 56.7626C123.257 58.0014 122.358 58.2775 121.46 58.3233C120.561 58.2714 119.662 57.9938 118.763 56.7626Z" fill="#3A3A3A"/>
<path d="M120.487 147.811V161.339C120.487 163.589 118.678 165.402 116.433 165.402H102.895C100.679 165.402 98.8394 163.589 98.8394 161.339V147.811C98.8394 145.561 100.679 143.718 102.895 143.718H116.433C118.678 143.718 120.487 145.561 120.487 147.811Z" fill="#8A9BEA"/>
<path d="M154.208 179.9V193.429C154.208 195.678 152.398 197.49 150.152 197.49H136.614C134.369 197.49 132.56 195.678 132.56 193.429V179.9C132.56 177.65 134.369 175.807 136.614 175.807H150.152C152.398 175.807 154.208 177.65 154.208 179.9Z" fill="#8A9BEA"/>
<path d="M154.208 147.811V161.339C154.208 163.589 152.398 165.402 150.152 165.402H136.614C134.369 165.402 132.56 163.589 132.56 161.339V147.811C132.56 145.561 134.369 143.718 136.614 143.718H150.152C152.398 143.718 154.208 145.561 154.208 147.811Z" fill="#8A9BEA"/>
<path d="M187.928 179.9V193.429C187.928 195.678 186.118 197.49 183.873 197.49H170.334C168.088 197.49 166.28 195.678 166.28 193.429V179.9C166.28 177.65 168.088 175.807 170.334 175.807H183.873C186.118 175.807 187.928 177.65 187.928 179.9Z" fill="#8A9BEA"/>
<path d="M120.487 179.9V193.429C120.487 195.678 118.678 197.49 116.433 197.49H102.895C100.679 197.49 98.8394 195.678 98.8394 193.429V179.9C98.8394 177.65 100.679 175.807 102.895 175.807H116.433C118.678 175.807 120.487 177.65 120.487 179.9Z" fill="#8A9BEA"/>
<path d="M187.928 147.811V161.339C187.928 163.589 186.118 165.402 183.873 165.402H170.334C168.088 165.402 166.28 163.589 166.28 161.339V147.811C166.28 145.561 168.088 143.718 170.334 143.718H183.873C186.118 143.718 187.928 145.561 187.928 147.811Z" fill="#8A9BEA"/>
<path d="M167.311 218.091C167.311 220.747 166.251 223.122 164.504 224.84C162.788 226.558 160.417 227.621 157.797 227.621H134.184C128.943 227.621 124.669 223.372 124.669 218.091C124.669 215.467 125.73 213.093 127.446 211.373C129.192 209.623 131.563 208.561 134.184 208.561H157.797C163.038 208.561 167.311 212.842 167.311 218.091Z" fill="#D1DAFE"/>
<path d="M164.711 220.174C164.711 222.83 163.651 225.205 161.904 226.923C160.188 228.641 157.817 229.704 155.198 229.704H131.584C126.344 229.704 122.07 225.455 122.07 220.174C122.07 217.55 123.131 215.176 124.846 213.456C126.593 211.706 128.963 210.645 131.584 210.645H155.198C160.438 210.645 164.711 214.925 164.711 220.174Z" fill="#2ECC71"/>
<path d="M166.798 91.6217V113.02C166.798 114.784 165.335 116.228 162.923 117.372C161.738 117.928 160.318 118.42 158.727 118.826C157.5 119.137 156.176 119.414 154.766 119.639C149.824 120.441 143.973 120.676 138.496 120.334C128.632 119.735 119.984 117.308 119.984 113.02V91.6217L166.798 91.6217Z" fill="#255299"/>
<path d="M176.662 92.3029L145.661 104.601C144.193 105.182 142.558 105.182 141.09 104.601L110.12 92.3029C108.931 91.8364 108.931 90.1478 110.12 89.6818L141.079 77.3728C142.558 76.7824 144.193 76.7824 145.661 77.3728L176.662 89.6712C177.851 90.1478 177.851 91.8365 176.662 92.3029Z" fill="#4269C4"/>
<path d="M149.207 90.978C149.207 92.3551 146.596 93.4733 143.387 93.4733C140.178 93.4733 137.574 92.3551 137.574 90.978C137.574 89.6009 140.178 88.4932 143.387 88.4932C146.596 88.4932 149.207 89.6009 149.207 90.978Z" fill="#2ECC71"/>
<path d="M143.386 90.9835C141.956 91.7855 140.504 92.5233 139.041 93.2506C137.578 93.967 136.116 94.6834 134.632 95.3569C131.888 96.6299 129.112 97.8382 126.316 98.9931C126.337 100.725 126.305 102.436 126.294 104.169C126.273 106.115 126.209 108.061 126.145 110.007C125.995 113.9 125.771 117.792 125.312 121.684C124.853 117.792 124.639 113.9 124.479 110.007C124.415 108.061 124.351 106.115 124.33 104.169C124.319 102.222 124.287 100.287 124.319 98.3405V98.3086C124.33 97.9024 124.586 97.5598 124.938 97.41C127.96 96.2018 131.002 95.0468 134.077 93.967C135.604 93.4109 137.151 92.9081 138.699 92.3953C140.247 91.8925 141.806 91.4111 143.386 90.9835Z" fill="#D1DAFE"/>
<path d="M128.632 124.785C128.632 126.593 121.992 126.593 121.992 124.785L123.593 115.643C122.846 115.108 122.355 114.231 122.355 113.248C122.355 111.601 123.679 110.285 125.312 110.285C126.956 110.285 128.269 111.601 128.269 113.248C128.269 114.231 127.789 115.108 127.031 115.643L128.632 124.785Z" fill="#2ECC71"/>
<path d="M236.25 227.843C236.25 229.081 235.239 230.094 234.003 230.094H186.096C181.061 230.094 176.588 226.334 176.206 221.291C176.004 218.365 177.083 215.708 178.971 213.817C180.702 212.106 183.084 211.025 185.714 211.025H234.003C235.239 211.025 236.25 212.039 236.25 213.277C236.25 214.514 235.239 215.528 234.003 215.528H233.486V225.592H234.003C235.239 225.592 236.25 226.604 236.25 227.843Z" fill="#617F4D"/>
<path d="M249.88 227.843C249.88 229.081 248.868 230.094 247.632 230.094H199.725C194.69 230.094 190.217 226.334 189.836 221.291C189.633 218.365 190.712 215.708 192.6 213.817C194.331 212.106 196.713 211.025 199.343 211.025H247.632C248.868 211.025 249.88 212.039 249.88 213.277C249.88 214.514 248.868 215.528 247.632 215.528H247.115V225.592H247.632C248.868 225.592 249.88 226.604 249.88 227.843Z" fill="#AEC46E"/>
<path d="M199.343 225.592C196.567 225.592 194.309 223.34 194.309 220.571C194.309 219.219 194.831 217.951 195.779 217C196.732 216.059 198.006 215.528 199.343 215.528H247.113V225.592H199.343Z" fill="#D1DAFE"/>
<path d="M244.092 218.581C240.819 218.873 237.547 219.01 234.275 219.123C231.002 219.253 227.73 219.271 224.458 219.288C221.185 219.273 210.418 219.254 207.145 219.125C203.873 219.012 200.601 218.875 197.328 218.581C200.601 218.287 203.873 218.15 207.145 218.037C210.418 217.908 221.185 217.889 224.458 217.873C227.73 217.891 231.002 217.909 234.275 218.039C237.547 218.152 240.819 218.288 244.092 218.581Z" fill="#8A9BEA"/>
<path d="M244.092 222.122C240.819 222.415 237.547 222.551 234.275 222.665C231.002 222.794 227.73 222.812 224.458 222.83C221.185 222.814 210.418 222.795 207.145 222.667C203.873 222.553 200.601 222.417 197.328 222.122C200.601 221.828 203.873 221.691 207.145 221.578C210.418 221.449 221.185 221.43 224.458 221.415C227.73 221.432 231.002 221.45 234.275 221.58C237.547 221.693 240.819 221.83 244.092 222.122Z" fill="#8A9BEA"/>
<path d="M193.104 246.912C193.104 248.15 194.115 249.164 195.352 249.164H243.259C248.293 249.164 252.766 245.403 253.148 240.361C253.351 237.434 252.272 234.777 250.384 232.887C248.653 231.175 246.271 230.094 243.641 230.094H195.352C194.115 230.094 193.104 231.108 193.104 232.346C193.104 233.584 194.115 234.597 195.352 234.597H195.869V244.661H195.352C194.115 244.661 193.104 245.673 193.104 246.912Z" fill="#259A71"/>
<path d="M179.474 246.912C179.474 248.15 180.485 249.164 181.721 249.164H229.628C234.663 249.164 239.136 245.403 239.518 240.361C239.72 237.434 238.641 234.777 236.753 232.887C235.022 231.175 232.64 230.094 230.01 230.094H181.721C180.485 230.094 179.474 231.108 179.474 232.346C179.474 233.584 180.485 234.597 181.721 234.597H182.238V244.661H181.721C180.485 244.661 179.474 245.673 179.474 246.912Z" fill="#2ECC71"/>
<path d="M230.011 244.661C232.786 244.661 235.045 242.409 235.045 239.641C235.045 238.288 234.523 237.02 233.574 236.07C232.622 235.128 231.348 234.597 230.011 234.597H182.241V244.661H230.011Z" fill="#D1DAFE"/>
<path d="M185.261 237.65C188.534 237.942 191.806 238.079 195.079 238.192C198.351 238.322 201.623 238.34 204.896 238.358C208.168 238.342 218.936 238.323 222.208 238.194C225.481 238.081 228.753 237.944 232.025 237.65C228.753 237.356 225.481 237.219 222.208 237.106C218.936 236.977 208.168 236.958 204.896 236.943C201.623 236.96 198.351 236.978 195.079 237.108C191.806 237.221 188.534 237.358 185.261 237.65Z" fill="#8A9BEA"/>
<path d="M185.261 241.191C188.534 241.484 191.806 241.62 195.079 241.734C198.351 241.863 201.623 241.881 204.896 241.899C208.168 241.883 218.936 241.864 222.208 241.736C225.481 241.622 228.753 241.486 232.025 241.191C228.753 240.897 225.481 240.761 222.208 240.647C218.936 240.518 208.168 240.5 204.896 240.484C201.623 240.502 198.351 240.519 195.079 240.649C191.806 240.763 188.534 240.899 185.261 241.191Z" fill="#8A9BEA"/>
<path d="M106.077 230.235C106.077 235.859 104.33 241.108 101.304 245.389C99.838 247.513 97.4048 248.732 94.8155 248.732H64.4331C61.875 248.732 59.4106 247.513 57.9454 245.389C54.9501 241.108 53.1719 235.859 53.1719 230.235C53.1719 218.643 60.6275 208.802 70.984 205.207V186.993H88.2965V205.207C98.6522 208.802 106.077 218.643 106.077 230.235Z" fill="#D1DAFE"/>
<path d="M102.271 230.235C102.271 234.89 100.867 239.391 98.1846 243.202C97.436 244.263 96.1878 244.889 94.8154 244.889H64.433C63.0919 244.889 61.8125 244.263 61.0646 243.202C58.4129 239.391 57.0085 234.89 57.0085 230.235C57.0085 227.298 57.5706 224.487 58.6002 221.893C59.505 219.612 62.1559 218.706 64.433 219.55C73.9784 223.08 85.7384 216.363 95.97 217.237C97.5601 217.394 98.9332 218.331 99.6505 219.705C101.335 222.892 102.271 226.485 102.271 230.235Z" fill="#2ECC71"/>
<path d="M91.6338 187.491C91.509 188.648 90.6362 189.617 89.4816 189.742C82.8378 190.585 76.3181 190.553 69.9545 189.71C68.9249 189.585 68.1138 188.804 67.8648 187.804C67.3964 185.836 67.3652 183.899 67.8648 181.961C68.0833 181.056 68.8312 180.306 69.7672 180.118C76.0371 178.869 82.6504 178.869 89.6065 180.086C90.6986 180.275 91.5401 181.212 91.6338 182.306C91.8212 184.024 91.7899 185.743 91.6338 187.491Z" fill="#8A9BEA"/>
<path d="M71.0777 228.889C71.3129 227.41 70.3069 226.021 68.8308 225.785C67.3547 225.55 65.9675 226.557 65.7324 228.036C65.4972 229.514 66.5033 230.904 67.9793 231.139C69.4554 231.375 70.8426 230.367 71.0777 228.889Z" fill="#259A71"/>
<path d="M93.3724 239.111C93.6435 237.961 92.9326 236.808 91.7846 236.537C90.6367 236.265 89.4863 236.977 89.2152 238.127C88.9441 239.277 89.655 240.43 90.803 240.701C91.951 240.973 93.1014 240.261 93.3724 239.111Z" fill="#259A71"/>
<path d="M93.4903 225.434C93.8337 223.977 92.9329 222.516 91.4782 222.172C90.0235 221.828 88.5658 222.731 88.2223 224.188C87.8788 225.645 88.7796 227.105 90.2343 227.449C91.689 227.793 93.1468 226.891 93.4903 225.434Z" fill="#259A71"/>
<path d="M81.7227 233.741C82.845 233.29 83.3903 232.014 82.9407 230.89C82.4911 229.766 81.2167 229.219 80.0944 229.67C78.9721 230.12 78.4268 231.397 78.8764 232.521C79.326 233.645 80.6003 234.191 81.7227 233.741Z" fill="#259A71"/>
<path d="M76.6382 216.519C77.493 215.663 77.493 214.275 76.6381 213.418C75.7833 212.562 74.3972 212.562 73.5423 213.418C72.6874 214.275 72.6874 215.663 73.5423 216.519C74.3972 217.376 75.7833 217.376 76.6382 216.519Z" fill="#2ECC71"/>
<path d="M85.2606 205.532C85.468 204.339 84.6705 203.204 83.4794 202.996C82.2882 202.788 81.1546 203.587 80.9472 204.78C80.7399 205.973 81.5374 207.109 82.7285 207.317C83.9196 207.524 85.0533 206.725 85.2606 205.532Z" fill="#2ECC71"/>
<path d="M80.2697 197.463C81.1246 196.606 81.1246 195.218 80.2697 194.362C79.4148 193.505 78.0288 193.505 77.1739 194.362C76.319 195.218 76.319 196.606 77.1739 197.463C78.0288 198.319 79.4149 198.319 80.2697 197.463Z" fill="#2ECC71"/>
<path d="M72.049 241.531C73.258 241.531 74.2381 240.549 74.2381 239.338C74.2381 238.127 73.258 237.145 72.049 237.145C70.84 237.145 69.8599 238.127 69.8599 239.338C69.8599 240.549 70.84 241.531 72.049 241.531Z" fill="#259A71"/>
<path d="M191.142 88.4787L190.177 91.8311C189.576 93.9202 191.66 95.7751 193.661 94.9324L197.113 93.4783C197.814 93.1831 198.598 93.2311 199.281 93.5644C202.605 95.1846 206.457 96.115 210.574 96.115C223.109 96.115 233.265 87.527 233.265 76.93C233.265 66.333 223.109 57.7451 210.574 57.7451C198.055 57.7451 187.9 66.333 187.9 76.93C187.9 80.326 188.943 83.5026 190.766 86.2653C191.2 86.922 191.359 87.7221 191.142 88.4787Z" fill="#259A71"/>
<path d="M187.982 88.4787L187.018 91.831C186.417 93.9202 188.5 95.7751 190.501 94.9324L193.953 93.4783C194.654 93.1831 195.438 93.2311 196.121 93.5644C199.445 95.1846 203.297 96.1149 207.414 96.1149C219.95 96.1149 230.105 87.527 230.105 76.93C230.105 66.333 219.95 57.7451 207.414 57.7451C194.895 57.7451 184.74 66.333 184.74 76.93C184.74 80.326 185.783 83.5026 187.607 86.2653C188.04 86.922 188.2 87.7221 187.982 88.4787Z" fill="#2ECC71"/>
<path d="M187.022 91.8369C186.419 93.9273 188.506 95.7721 190.494 94.9398L193.95 93.4864C194.651 93.1763 195.433 93.2249 196.118 93.5677C199.443 95.1846 203.29 96.1149 207.414 96.1149C215.451 96.1149 222.509 92.5879 226.535 87.2488C222.427 88.8656 217.635 89.78 212.516 89.78C198.53 89.78 186.941 82.8568 185.034 73.8606C184.838 74.8564 184.74 75.8848 184.74 76.93C184.74 80.3263 185.783 83.5105 187.609 86.2689C188.033 86.9227 188.196 87.7223 187.984 88.4733L187.022 91.8369Z" fill="#2ECC71"/>
<path d="M224.714 76.8051C221.223 71.1583 214.28 67.7789 207.423 67.796C200.566 67.7699 193.617 71.1529 190.132 76.806C192.941 75.0923 195.726 73.7413 198.616 72.8358C201.501 71.9322 204.463 71.5028 207.423 71.4893C210.384 71.4965 213.346 71.9294 216.233 72.8304C219.123 73.735 221.909 75.0887 224.714 76.8051Z" fill="white"/>
<path d="M218.3 81.5146C216.487 77.5562 211.906 75.1383 207.423 75.1626C202.94 75.1319 198.353 77.5499 196.546 81.5155C198.516 80.6461 200.29 79.9543 202.091 79.5223C203.877 79.0768 205.649 78.8621 207.423 78.8558C209.198 78.8577 210.97 79.0723 212.757 79.5178C214.559 79.9472 216.333 80.6425 218.3 81.5146Z" fill="white"/>
<path d="M213.2 86.0637C212.237 83.9612 209.804 82.677 207.423 82.6899C205.042 82.6736 202.606 83.9579 201.646 86.0641C202.692 85.6023 203.634 85.2349 204.591 85.0055C205.54 84.7689 206.48 84.6549 207.423 84.6515C208.365 84.6524 209.307 84.7664 210.256 85.0031C211.213 85.2311 212.156 85.6004 213.2 86.0637Z" fill="white"/>
</svg>
