<svg width="23" height="23" viewBox="0 0 23 23" fill="none" xmlns="http://www.w3.org/2000/svg">
<path d="M17.3466 3.24645C16.2873 2.37765 15.0482 1.755 13.7189 1.42347C12.3896 1.09194 11.0033 1.05981 9.66002 1.3294C7.83563 1.70304 6.16757 2.62153 4.87637 3.96347C3.58516 5.30541 2.7316 7.00761 2.42851 8.84504C2.12543 10.6825 2.3871 12.5686 3.17893 14.2542C3.97076 15.9397 5.25547 17.3452 6.86322 18.285C8.29065 19.1074 9.56236 20.1743 10.6203 21.4372C10.7343 21.5622 10.874 21.6611 11.0298 21.727C11.1856 21.7929 11.3539 21.8243 11.523 21.819C11.6963 21.8132 11.8664 21.771 12.0222 21.6948C12.178 21.6187 12.3159 21.5105 12.4269 21.3774C13.5367 20.1052 14.8488 19.025 16.3105 18.1804C17.5594 17.4146 18.6073 16.3615 19.3668 15.1088C20.1263 13.856 20.5754 12.4399 20.6767 10.9784C20.7779 9.51685 20.5284 8.05231 19.949 6.70677C19.3695 5.36122 18.4769 4.17365 17.3455 3.243L17.3466 3.24645ZM11.5 14.95C10.5902 14.95 9.70087 14.6802 8.9444 14.1748C8.18794 13.6693 7.59834 12.9509 7.25018 12.1103C6.90202 11.2698 6.81092 10.3449 6.98841 9.45259C7.1659 8.56028 7.60401 7.74063 8.24733 7.09731C8.89066 6.45399 9.7103 6.01588 10.6026 5.83839C11.4949 5.6609 12.4198 5.752 13.2604 6.10016C14.1009 6.44832 14.8193 7.03791 15.3248 7.79438C15.8302 8.55085 16.1 9.44021 16.1 10.35C16.1 11.57 15.6154 12.74 14.7527 13.6027C13.89 14.4654 12.72 14.95 11.5 14.95Z" fill="#3C3F4E"/>
</svg>
