<svg width="180" height="180" viewBox="0 0 180 180" fill="none" xmlns="http://www.w3.org/2000/svg">
<ellipse opacity="0.1" cx="90" cy="174.6" rx="90" ry="5.4" fill="#BF5952"/>
<path fill-rule="evenodd" clip-rule="evenodd" d="M40.4344 30.5996C32.4815 30.5996 26.0344 37.0467 26.0344 44.9996V115.2C26.0344 123.153 32.4815 129.6 40.4344 129.6H134.118C142.07 129.6 148.518 123.153 148.518 115.2V113.342C149.085 113.38 149.657 113.4 150.234 113.4C164.152 113.4 175.434 102.117 175.434 88.1996C175.434 74.282 164.152 62.9996 150.234 62.9996C149.657 62.9996 149.085 63.019 148.518 63.0572V44.9996C148.518 37.0467 142.07 30.5996 134.118 30.5996H40.4344ZM144.918 63.5615V56.2162H29.6344V115.2C29.6344 121.164 34.4697 126 40.4344 126H134.118C140.082 126 144.918 121.164 144.918 115.2V112.838C133.553 110.397 125.034 100.293 125.034 88.1996C125.034 76.1061 133.553 66.0023 144.918 63.5615ZM144.918 44.9996V52.6162H29.6344V44.9996C29.6344 39.0349 34.4697 34.1996 40.4344 34.1996H134.118C140.082 34.1996 144.918 39.0349 144.918 44.9996ZM128.634 88.1996C128.634 76.2703 138.305 66.5996 150.234 66.5996C162.164 66.5996 171.834 76.2703 171.834 88.1996C171.834 100.129 162.164 109.8 150.234 109.8C138.305 109.8 128.634 100.129 128.634 88.1996ZM145.734 76.4996C145.734 74.0143 147.749 71.9996 150.234 71.9996C152.72 71.9996 154.734 74.0143 154.734 76.4996V87.2996C154.734 89.7849 152.72 91.7996 150.234 91.7996C147.749 91.7996 145.734 89.7849 145.734 87.2996V76.4996ZM150.234 75.5996C149.737 75.5996 149.334 76.0026 149.334 76.4996V87.2996C149.334 87.7967 149.737 88.1996 150.234 88.1996C150.732 88.1996 151.134 87.7967 151.134 87.2996V76.4996C151.134 76.0026 150.732 75.5996 150.234 75.5996ZM150.234 104.4C147.749 104.4 145.734 102.385 145.734 99.8996C145.734 97.4143 147.749 95.3996 150.234 95.3996C152.72 95.3996 154.734 97.4143 154.734 99.8996C154.734 102.385 152.72 104.4 150.234 104.4ZM149.334 99.8996C149.334 100.397 149.737 100.8 150.234 100.8C150.732 100.8 151.134 100.397 151.134 99.8996C151.134 99.4025 150.732 98.9996 150.234 98.9996C149.737 98.9996 149.334 99.4025 149.334 99.8996ZM43.1344 48.5996C45.6197 48.5996 47.6344 46.5849 47.6344 44.0996C47.6344 41.6143 45.6197 39.5996 43.1344 39.5996C40.6491 39.5996 38.6344 41.6143 38.6344 44.0996C38.6344 46.5849 40.6491 48.5996 43.1344 48.5996ZM60.2344 44.0996C60.2344 46.5849 58.2197 48.5996 55.7344 48.5996C53.2491 48.5996 51.2344 46.5849 51.2344 44.0996C51.2344 41.6143 53.2491 39.5996 55.7344 39.5996C58.2197 39.5996 60.2344 41.6143 60.2344 44.0996ZM88.1344 71.9996C92.2812 71.9996 96.2411 72.7986 99.8681 74.2507L89.6017 85.5584C89.1178 85.5194 88.6284 85.4996 88.1344 85.4996C78.7711 85.4996 71.0753 92.6282 70.1927 101.747C70.0994 102.711 69.3215 103.5 68.3508 103.5H58.3464C57.3757 103.5 56.5837 102.712 56.637 101.745C57.5488 85.164 71.302 71.9996 88.1344 71.9996ZM107.846 78.9046L109.778 75.9094C110.497 74.7946 110.232 73.3145 109.171 72.5175C108.104 71.7164 106.602 71.859 105.705 72.8464L84.9975 95.6541C83.0371 97.8134 83.2008 101.151 85.3632 103.108C85.4274 103.166 85.4931 103.223 85.5601 103.278C87.6723 105.009 90.7899 104.702 92.5234 102.593C92.6437 102.447 92.7555 102.294 92.8581 102.135L100.455 90.3601L107.846 78.9046ZM102.775 92.996C104.584 95.506 105.762 98.5003 106.076 101.747C106.169 102.711 106.947 103.5 107.918 103.5H117.922C118.893 103.5 119.685 102.712 119.632 101.745C119.191 93.7229 115.744 86.5007 110.397 81.1821L102.775 92.996ZM26.7806 148.996C25.3666 151.2 22.4332 151.841 20.2286 150.427C18.024 149.013 17.3831 146.08 18.7971 143.875L24.0641 135.663C25.4781 133.459 28.4115 132.818 30.6161 134.232C32.8207 135.646 33.4616 138.579 32.0476 140.784L26.7806 148.996ZM22.1722 147.397C22.7032 147.737 23.4098 147.583 23.7504 147.052L29.0173 138.84C29.3579 138.309 29.2035 137.603 28.6725 137.262C28.1415 136.921 27.4349 137.076 27.0943 137.607L21.8274 145.819C21.4868 146.35 21.6412 147.056 22.1722 147.397ZM5.72633 132.86C6.67874 135.3 9.42865 136.506 11.8684 135.553L20.9562 132.006C23.396 131.053 24.6017 128.303 23.6493 125.864C22.6969 123.424 19.947 122.218 17.5072 123.17L8.41942 126.718C5.97965 127.67 4.77392 130.42 5.72633 132.86ZM10.5593 132.2C9.97164 132.429 9.30927 132.139 9.07986 131.551C8.85046 130.963 9.14088 130.301 9.72854 130.072L18.8163 126.524C19.404 126.295 20.0664 126.585 20.2958 127.173C20.5252 127.76 20.2347 128.423 19.6471 128.652L10.5593 132.2Z" fill="#BF5952"/>
</svg>
