<svg width="256" height="277" viewBox="0 0 256 277" fill="none" xmlns="http://www.w3.org/2000/svg">
<path d="M57.9711 130.809C57.9711 140.178 52.2749 151.062 45.2483 155.119C38.2216 159.176 32.5254 154.869 32.5254 145.501C32.5254 136.132 38.2216 125.248 45.2483 121.191C52.2749 117.134 57.9711 121.44 57.9711 130.809Z" fill="#E84C3D"/>
<path d="M43.0642 130.159L52.8964 132.051C53.9713 132.258 53.9713 134.327 52.8964 135.775L43.0642 149.02C41.9893 150.468 40.6455 150.21 40.6455 148.555V133.418C40.6455 131.763 41.9893 129.952 43.0642 130.159Z" fill="white"/>
<path d="M24.1398 126.857L23.3412 122.803L22.5431 127.779L20.541 130.092L22.5431 130.095L23.3412 134.149L24.1398 129.172L26.1414 126.86L24.1398 126.857Z" stroke="#2E466C" stroke-width="0.527319" stroke-miterlimit="10" stroke-linecap="round"/>
<path d="M164.997 142.401L164.198 138.347L163.4 143.323L161.398 145.637L163.4 145.638L164.198 149.692L164.997 144.717L166.998 142.403L164.997 142.401Z" stroke="#2E466C" stroke-width="0.527319" stroke-miterlimit="10" stroke-linecap="round"/>
<path d="M252.598 148.054L251.8 144L251.002 148.976L249 151.29L251.002 151.292L251.8 155.346L252.598 150.37L254.6 148.056L252.598 148.054Z" stroke="#2E466C" stroke-width="0.527319" stroke-miterlimit="10" stroke-linecap="round"/>
<path d="M200.598 32.0545L199.8 28L199.002 32.9762L197 35.2896L199.002 35.2915L199.8 39.3455L200.598 34.3698L202.6 32.0565L200.598 32.0545Z" stroke="#2E466C" stroke-width="0.527319" stroke-miterlimit="10" stroke-linecap="round"/>
<path d="M133.75 253.138L132.952 249.084L132.153 254.06L130.151 256.373L132.153 256.375L132.952 260.43L133.75 255.453L135.751 253.14L133.75 253.138Z" stroke="#2E466C" stroke-width="0.527319" stroke-miterlimit="10" stroke-linecap="round"/>
<path d="M36.3447 90.8417L88.2316 60.8853" stroke="#2E466C" stroke-width="0.988415" stroke-miterlimit="10" stroke-linecap="round"/>
<path d="M81.7773 219.369L114.536 200.455V137.722" stroke="#2E466C" stroke-width="0.988415" stroke-miterlimit="10" stroke-linecap="round"/>
<path d="M159.076 175.841L130.246 159.196V128.476" stroke="#2E466C" stroke-width="0.988415" stroke-miterlimit="10" stroke-linecap="round"/>
<path d="M122.825 122.807V41.687" stroke="#2E466C" stroke-width="0.988415" stroke-miterlimit="10" stroke-linecap="round"/>
<path d="M234.726 230.379V226.302L194.662 204.265L195.647 158.592L192.52 156.787C192.176 156.496 191.689 156.47 191.146 156.783L144.372 183.789C143.331 184.389 142.488 186 142.488 187.387V230.796C142.488 233.246 143.795 235.511 145.918 236.736L183.194 258.258C184.395 258.951 186.212 259.026 187.252 258.426L234.027 231.42C234.508 231.142 234.736 230.769 234.726 230.379Z" fill="#2E466C"/>
<path d="M145.698 232.535L183.195 254.183C184.396 254.877 186.212 254.952 187.253 254.351L234.028 227.346C235.068 226.745 234.938 225.697 233.737 225.003L196.24 203.355L145.698 232.535Z" fill="#607ACE"/>
<path d="M213.859 234.612L199.701 242.786C199.281 243.029 198.764 243.029 198.345 242.786L189.611 237.744C189.249 237.535 189.249 237.013 189.611 236.803L203.77 228.629C204.189 228.387 204.706 228.387 205.126 228.629L213.859 233.672C214.222 233.881 214.222 234.403 213.859 234.612Z" fill="#2E466C"/>
<path d="M194.356 158.634L147.581 185.639C146.541 186.24 145.698 187.851 145.698 189.238V232.535L196.24 203.355V160.058C196.239 158.671 195.396 158.033 194.356 158.634Z" fill="#CADAF1"/>
<path d="M192.926 161.903L148.495 187.555C147.741 187.99 147.276 188.795 147.276 189.666V223.307C147.276 224.198 148.241 224.755 149.013 224.31L193.443 198.658C194.197 198.222 194.662 197.418 194.662 196.546V162.905C194.662 162.015 193.698 161.458 192.926 161.903Z" fill="#607ACE"/>
<path d="M194.662 162.906C194.662 162.015 193.697 161.458 192.926 161.903L148.495 187.555C147.741 187.99 147.276 188.795 147.276 189.666V223.307C147.276 223.921 147.737 224.368 148.275 224.445L194.662 163.188V162.906H194.662Z" fill="#8095D8"/>
<path d="M216.177 217.4L170.027 244.044C169.686 244.241 169.09 244.217 168.695 243.989L151.598 234.117C151.203 233.89 151.161 233.546 151.502 233.348L197.652 206.704C197.993 206.507 198.589 206.532 198.984 206.76L216.081 216.631C216.475 216.858 216.518 217.203 216.177 217.4Z" fill="#2E466C"/>
<path d="M154.803 232.27L152.531 233.582C152.374 233.673 152.393 233.831 152.575 233.936L153.579 234.515C153.76 234.62 154.035 234.631 154.192 234.54L156.464 233.228C156.621 233.137 156.602 232.979 156.42 232.875L155.417 232.295C155.235 232.191 154.96 232.179 154.803 232.27Z" fill="#CADAF1"/>
<path d="M158.13 230.349L155.858 231.661C155.701 231.752 155.721 231.91 155.902 232.015L156.906 232.594C157.087 232.699 157.362 232.71 157.519 232.62L159.791 231.308C159.949 231.217 159.929 231.058 159.747 230.954L158.744 230.375C158.562 230.27 158.288 230.258 158.13 230.349Z" fill="#CADAF1"/>
<path d="M161.458 228.428L159.185 229.739C159.028 229.83 159.048 229.988 159.229 230.093L160.232 230.672C160.414 230.777 160.689 230.789 160.846 230.698L163.118 229.386C163.275 229.295 163.255 229.137 163.074 229.032L162.071 228.453C161.889 228.349 161.615 228.337 161.458 228.428Z" fill="#CADAF1"/>
<path d="M164.786 226.507L162.513 227.819C162.356 227.91 162.376 228.068 162.557 228.173L163.561 228.752C163.742 228.857 164.017 228.868 164.174 228.778L166.446 227.466C166.603 227.375 166.584 227.217 166.402 227.112L165.399 226.532C165.218 226.427 164.943 226.416 164.786 226.507Z" fill="#CADAF1"/>
<path d="M168.113 224.586L165.84 225.898C165.683 225.989 165.703 226.147 165.884 226.252L166.888 226.831C167.07 226.936 167.344 226.947 167.501 226.856L169.774 225.545C169.931 225.454 169.911 225.295 169.73 225.191L168.727 224.611C168.545 224.506 168.27 224.495 168.113 224.586Z" fill="#CADAF1"/>
<path d="M171.44 222.665L169.168 223.977C169.01 224.068 169.03 224.226 169.212 224.331L170.215 224.91C170.396 225.015 170.671 225.026 170.828 224.935L173.1 223.623C173.258 223.532 173.238 223.374 173.057 223.269L172.053 222.69C171.872 222.585 171.597 222.574 171.44 222.665Z" fill="#CADAF1"/>
<path d="M174.768 220.744L172.496 222.056C172.339 222.147 172.358 222.305 172.54 222.41L173.543 222.989C173.724 223.094 173.999 223.105 174.156 223.015L176.429 221.702C176.586 221.612 176.566 221.453 176.385 221.349L175.381 220.769C175.2 220.664 174.925 220.653 174.768 220.744Z" fill="#CADAF1"/>
<path d="M178.095 218.823L175.823 220.134C175.666 220.225 175.685 220.383 175.867 220.489L176.87 221.068C177.051 221.173 177.326 221.184 177.483 221.093L179.756 219.781C179.913 219.69 179.893 219.532 179.712 219.427L178.709 218.848C178.527 218.743 178.252 218.732 178.095 218.823Z" fill="#CADAF1"/>
<path d="M181.421 216.901L179.149 218.213C178.992 218.304 179.012 218.462 179.193 218.567L180.196 219.146C180.378 219.251 180.652 219.263 180.81 219.172L183.082 217.86C183.239 217.769 183.219 217.61 183.038 217.506L182.035 216.927C181.853 216.822 181.579 216.811 181.421 216.901Z" fill="#CADAF1"/>
<path d="M184.75 214.98L182.477 216.292C182.32 216.383 182.34 216.541 182.521 216.646L183.524 217.225C183.706 217.33 183.981 217.341 184.138 217.25L186.41 215.938C186.567 215.847 186.547 215.689 186.366 215.584L185.363 215.005C185.181 214.901 184.907 214.89 184.75 214.98Z" fill="#CADAF1"/>
<path d="M188.077 213.059L185.804 214.371C185.647 214.462 185.667 214.621 185.848 214.725L186.852 215.305C187.033 215.409 187.308 215.421 187.465 215.33L189.738 214.018C189.895 213.927 189.875 213.768 189.694 213.664L188.69 213.085C188.509 212.98 188.234 212.969 188.077 213.059Z" fill="#CADAF1"/>
<path d="M191.404 211.138L189.131 212.45C188.974 212.541 188.994 212.699 189.175 212.804L190.179 213.383C190.361 213.488 190.635 213.499 190.793 213.408L193.065 212.097C193.222 212.006 193.202 211.847 193.021 211.743L192.018 211.163C191.836 211.059 191.561 211.047 191.404 211.138Z" fill="#CADAF1"/>
<path d="M194.731 209.217L192.459 210.529C192.301 210.62 192.321 210.778 192.503 210.883L193.506 211.462C193.687 211.567 193.962 211.578 194.119 211.488L196.392 210.176C196.549 210.085 196.529 209.927 196.348 209.822L195.344 209.243C195.163 209.138 194.888 209.126 194.731 209.217Z" fill="#CADAF1"/>
<path d="M198.059 207.296L195.787 208.608C195.63 208.699 195.649 208.858 195.831 208.962L196.834 209.541C197.015 209.646 197.29 209.657 197.447 209.566L199.72 208.255C199.877 208.164 199.857 208.006 199.676 207.901L198.672 207.322C198.491 207.217 198.216 207.205 198.059 207.296Z" fill="#CADAF1"/>
<path d="M157.04 233.562L154.767 234.875C154.61 234.966 154.63 235.124 154.811 235.228L157.435 236.743C157.616 236.848 157.891 236.859 158.048 236.768L160.321 235.457C160.478 235.366 160.458 235.208 160.277 235.103L157.653 233.588C157.472 233.483 157.197 233.472 157.04 233.562Z" fill="#CADAF1"/>
<path d="M160.367 231.642L158.094 232.954C157.937 233.045 157.957 233.203 158.138 233.307L160.762 234.822C160.943 234.927 161.218 234.938 161.375 234.847L163.648 233.536C163.805 233.445 163.785 233.286 163.604 233.182L160.98 231.667C160.799 231.562 160.524 231.551 160.367 231.642Z" fill="#CADAF1"/>
<path d="M163.695 229.72L161.422 231.033C161.265 231.124 161.285 231.282 161.466 231.386L164.09 232.901C164.272 233.006 164.546 233.017 164.704 232.926L166.976 231.615C167.133 231.524 167.113 231.366 166.932 231.261L164.308 229.746C164.126 229.641 163.852 229.63 163.695 229.72Z" fill="#CADAF1"/>
<path d="M167.022 227.799L164.75 229.111C164.592 229.202 164.612 229.36 164.794 229.465L167.417 230.98C167.599 231.085 167.874 231.096 168.031 231.006L170.303 229.694C170.46 229.603 170.44 229.445 170.259 229.34L167.635 227.825C167.454 227.72 167.179 227.709 167.022 227.799Z" fill="#CADAF1"/>
<path d="M170.349 225.878L168.077 227.19C167.92 227.281 167.939 227.439 168.121 227.544L170.745 229.059C170.926 229.164 171.201 229.175 171.358 229.084L173.63 227.772C173.787 227.681 173.768 227.523 173.586 227.419L170.962 225.904C170.781 225.799 170.506 225.788 170.349 225.878Z" fill="#CADAF1"/>
<path d="M173.677 223.957L171.405 225.269C171.248 225.36 171.268 225.518 171.449 225.622L174.073 227.137C174.254 227.242 174.529 227.253 174.686 227.163L176.958 225.851C177.115 225.76 177.096 225.602 176.914 225.497L174.291 223.982C174.109 223.878 173.834 223.867 173.677 223.957Z" fill="#CADAF1"/>
<path d="M177.004 222.036L174.732 223.348C174.575 223.439 174.595 223.597 174.776 223.702L177.4 225.217C177.581 225.322 177.856 225.333 178.013 225.242L180.285 223.93C180.443 223.839 180.423 223.681 180.241 223.576L177.618 222.061C177.436 221.957 177.162 221.946 177.004 222.036Z" fill="#CADAF1"/>
<path d="M180.332 220.115L178.059 221.427C177.902 221.518 177.922 221.676 178.103 221.781L180.727 223.295C180.908 223.4 181.183 223.411 181.34 223.321L183.613 222.009C183.77 221.918 183.75 221.76 183.569 221.655L180.945 220.14C180.764 220.035 180.489 220.024 180.332 220.115Z" fill="#CADAF1"/>
<path d="M183.658 218.194L181.385 219.506C181.228 219.597 181.248 219.755 181.429 219.86L184.053 221.374C184.234 221.479 184.509 221.49 184.666 221.4L186.939 220.087C187.096 219.996 187.076 219.838 186.895 219.734L184.271 218.219C184.09 218.115 183.815 218.103 183.658 218.194Z" fill="#CADAF1"/>
<path d="M186.986 216.273L184.714 217.585C184.556 217.676 184.576 217.834 184.757 217.939L187.381 219.453C187.563 219.558 187.837 219.57 187.995 219.479L190.267 218.167C190.424 218.076 190.404 217.918 190.223 217.813L187.599 216.298C187.417 216.194 187.143 216.182 186.986 216.273Z" fill="#CADAF1"/>
<path d="M190.313 214.352L188.041 215.664C187.883 215.755 187.903 215.913 188.085 216.018L190.708 217.533C190.89 217.638 191.165 217.649 191.322 217.558L193.594 216.246C193.751 216.156 193.731 215.997 193.55 215.893L190.926 214.378C190.744 214.273 190.47 214.261 190.313 214.352Z" fill="#CADAF1"/>
<path d="M193.64 212.431L191.368 213.742C191.211 213.833 191.23 213.992 191.412 214.096L194.036 215.611C194.217 215.716 194.492 215.727 194.649 215.636L196.921 214.324C197.078 214.234 197.059 214.075 196.877 213.971L194.253 212.456C194.072 212.352 193.797 212.34 193.64 212.431Z" fill="#CADAF1"/>
<path d="M196.968 210.51L194.696 211.822C194.539 211.913 194.559 212.071 194.74 212.176L197.364 213.69C197.545 213.795 197.82 213.807 197.977 213.716L200.249 212.405C200.406 212.314 200.387 212.155 200.205 212.051L197.582 210.536C197.4 210.431 197.125 210.419 196.968 210.51Z" fill="#CADAF1"/>
<path d="M200.295 208.589L198.023 209.901C197.866 209.992 197.886 210.15 198.067 210.255L200.691 211.769C200.872 211.874 201.147 211.886 201.304 211.795L203.576 210.483C203.734 210.392 203.714 210.234 203.532 210.129L200.909 208.614C200.727 208.509 200.453 208.498 200.295 208.589Z" fill="#CADAF1"/>
<path d="M162.562 234.83L158.627 237.103C158.469 237.194 158.489 237.352 158.671 237.456L161.294 238.971C161.476 239.076 161.75 239.087 161.908 238.996L165.844 236.724C166.001 236.633 165.981 236.475 165.8 236.37L163.176 234.855C162.994 234.751 162.72 234.739 162.562 234.83Z" fill="#CADAF1"/>
<path d="M165.889 232.909L163.617 234.221C163.46 234.312 163.479 234.47 163.661 234.575L166.285 236.09C166.466 236.195 166.741 236.206 166.898 236.115L169.17 234.804C169.327 234.713 169.308 234.554 169.126 234.45L166.502 232.935C166.321 232.83 166.046 232.818 165.889 232.909Z" fill="#CADAF1"/>
<path d="M169.217 230.988L166.945 232.3C166.788 232.391 166.808 232.549 166.989 232.654L169.613 234.168C169.794 234.273 170.069 234.285 170.226 234.194L172.498 232.882C172.656 232.791 172.636 232.633 172.454 232.528L169.831 231.013C169.649 230.909 169.374 230.897 169.217 230.988Z" fill="#CADAF1"/>
<path d="M172.543 229.067L170.271 230.378C170.114 230.469 170.134 230.627 170.315 230.733L172.939 232.247C173.12 232.352 173.395 232.364 173.552 232.273L175.825 230.961C175.982 230.871 175.962 230.712 175.781 230.608L173.157 229.093C172.975 228.988 172.701 228.976 172.543 229.067Z" fill="#CADAF1"/>
<path d="M175.873 227.146L173.6 228.458C173.443 228.549 173.463 228.707 173.644 228.812L176.268 230.327C176.449 230.431 176.724 230.443 176.881 230.352L179.154 229.04C179.311 228.949 179.291 228.791 179.11 228.686L176.486 227.172C176.305 227.067 176.03 227.055 175.873 227.146Z" fill="#CADAF1"/>
<path d="M179.2 225.225L176.927 226.536C176.77 226.627 176.79 226.786 176.971 226.89L179.595 228.405C179.776 228.51 180.051 228.521 180.208 228.431L182.481 227.119C182.638 227.028 182.618 226.87 182.437 226.765L179.813 225.25C179.631 225.145 179.357 225.134 179.2 225.225Z" fill="#CADAF1"/>
<path d="M182.527 223.304L180.255 224.616C180.097 224.706 180.117 224.865 180.299 224.97L182.922 226.485C183.104 226.589 183.378 226.601 183.536 226.51L185.808 225.198C185.965 225.107 185.945 224.949 185.764 224.844L183.14 223.329C182.958 223.224 182.684 223.213 182.527 223.304Z" fill="#CADAF1"/>
<path d="M185.855 221.383L183.583 222.694C183.425 222.785 183.445 222.944 183.627 223.048L186.25 224.563C186.432 224.668 186.707 224.679 186.864 224.589L189.136 223.277C189.293 223.186 189.273 223.028 189.092 222.923L186.468 221.408C186.287 221.303 186.012 221.292 185.855 221.383Z" fill="#CADAF1"/>
<path d="M189.182 219.462L186.91 220.773C186.753 220.864 186.772 221.023 186.954 221.127L189.578 222.642C189.759 222.747 190.034 222.758 190.191 222.667L192.463 221.355C192.62 221.264 192.601 221.106 192.419 221.001L189.795 219.487C189.614 219.382 189.339 219.371 189.182 219.462Z" fill="#CADAF1"/>
<path d="M192.508 217.54L190.236 218.852C190.079 218.943 190.099 219.101 190.28 219.206L192.904 220.721C193.085 220.825 193.36 220.837 193.517 220.746L195.789 219.434C195.947 219.343 195.927 219.185 195.745 219.08L193.122 217.566C192.94 217.461 192.665 217.45 192.508 217.54Z" fill="#CADAF1"/>
<path d="M195.836 215.619L193.564 216.931C193.407 217.022 193.427 217.181 193.608 217.285L196.232 218.8C196.413 218.905 196.688 218.916 196.845 218.825L199.117 217.514C199.275 217.423 199.255 217.264 199.074 217.16L196.45 215.645C196.268 215.54 195.994 215.529 195.836 215.619Z" fill="#CADAF1"/>
<path d="M199.164 213.698L196.891 215.01C196.734 215.101 196.754 215.26 196.935 215.364L199.559 216.879C199.74 216.983 200.015 216.995 200.172 216.904L202.445 215.592C202.602 215.501 202.582 215.343 202.401 215.238L199.777 213.724C199.596 213.619 199.321 213.608 199.164 213.698Z" fill="#CADAF1"/>
<path d="M204.154 210.817L200.218 213.089C200.061 213.18 200.081 213.338 200.262 213.443L202.886 214.958C203.067 215.062 203.342 215.074 203.499 214.983L207.435 212.711C207.592 212.62 207.573 212.462 207.391 212.357L204.768 210.842C204.586 210.738 204.311 210.726 204.154 210.817Z" fill="#CADAF1"/>
<path d="M168.086 236.097L162.486 239.33C162.329 239.421 162.349 239.58 162.53 239.684L165.154 241.199C165.335 241.304 165.61 241.315 165.767 241.224L171.367 237.991C171.524 237.9 171.504 237.742 171.323 237.637L168.699 236.123C168.518 236.018 168.243 236.007 168.086 236.097Z" fill="#CADAF1"/>
<path d="M171.414 234.176L169.141 235.488C168.984 235.579 169.004 235.738 169.185 235.842L171.809 237.357C171.99 237.462 172.265 237.473 172.422 237.382L174.695 236.071C174.852 235.98 174.832 235.821 174.651 235.717L172.027 234.202C171.845 234.097 171.571 234.086 171.414 234.176Z" fill="#CADAF1"/>
<path d="M174.742 232.255L172.469 233.567C172.312 233.658 172.332 233.817 172.513 233.921L175.137 235.436C175.318 235.541 175.593 235.552 175.75 235.461L178.023 234.15C178.18 234.059 178.16 233.901 177.979 233.796L175.355 232.281C175.173 232.176 174.899 232.164 174.742 232.255Z" fill="#CADAF1"/>
<path d="M178.068 230.334L175.796 231.646C175.638 231.737 175.658 231.896 175.84 232L178.463 233.515C178.645 233.62 178.919 233.631 179.077 233.541L181.349 232.229C181.506 232.138 181.486 231.98 181.305 231.875L178.681 230.361C178.5 230.255 178.225 230.243 178.068 230.334Z" fill="#CADAF1"/>
<path d="M181.396 228.413L179.124 229.726C178.966 229.816 178.986 229.975 179.168 230.079L181.791 231.594C181.973 231.699 182.248 231.71 182.405 231.619L184.677 230.308C184.834 230.217 184.814 230.059 184.633 229.954L182.009 228.439C181.828 228.334 181.553 228.322 181.396 228.413Z" fill="#CADAF1"/>
<path d="M184.723 226.492L182.451 227.804C182.294 227.895 182.313 228.053 182.495 228.158L185.119 229.673C185.3 229.778 185.575 229.789 185.732 229.699L188.004 228.387C188.161 228.296 188.142 228.138 187.96 228.033L185.336 226.518C185.155 226.413 184.88 226.401 184.723 226.492Z" fill="#CADAF1"/>
<path d="M188.05 224.571L185.778 225.882C185.621 225.973 185.641 226.132 185.822 226.237L188.446 227.752C188.627 227.856 188.902 227.868 189.059 227.777L191.331 226.465C191.489 226.374 191.469 226.216 191.287 226.111L188.664 224.597C188.482 224.492 188.208 224.48 188.05 224.571Z" fill="#CADAF1"/>
<path d="M191.376 222.65L189.104 223.962C188.947 224.052 188.967 224.211 189.148 224.315L191.772 225.83C191.953 225.935 192.228 225.946 192.385 225.856L194.658 224.544C194.815 224.453 194.795 224.295 194.614 224.19L191.99 222.675C191.808 222.571 191.534 222.559 191.376 222.65Z" fill="#CADAF1"/>
<path d="M194.705 220.729L192.432 222.041C192.275 222.131 192.295 222.29 192.476 222.394L195.1 223.909C195.281 224.014 195.556 224.025 195.713 223.934L197.986 222.623C198.143 222.532 198.123 222.374 197.942 222.268L195.318 220.754C195.137 220.65 194.862 220.638 194.705 220.729Z" fill="#CADAF1"/>
<path d="M198.032 218.808L195.759 220.12C195.602 220.211 195.622 220.369 195.803 220.473L198.427 221.988C198.609 222.093 198.883 222.104 199.04 222.014L201.313 220.702C201.47 220.611 201.45 220.453 201.269 220.348L198.645 218.833C198.463 218.729 198.189 218.718 198.032 218.808Z" fill="#CADAF1"/>
<path d="M201.359 216.887L199.087 218.199C198.929 218.289 198.949 218.448 199.131 218.552L201.754 220.067C201.936 220.172 202.21 220.183 202.368 220.092L204.64 218.781C204.797 218.69 204.777 218.531 204.596 218.427L201.972 216.912C201.791 216.807 201.516 216.796 201.359 216.887Z" fill="#CADAF1"/>
<path d="M208.015 213.045L202.415 216.278C202.258 216.369 202.277 216.528 202.459 216.632L205.082 218.147C205.264 218.251 205.539 218.263 205.696 218.172L211.296 214.939C211.453 214.848 211.433 214.689 211.252 214.585L208.628 213.07C208.446 212.965 208.172 212.954 208.015 213.045Z" fill="#CADAF1"/>
<path d="M170.281 239.286L166.345 241.558C166.188 241.649 166.208 241.808 166.389 241.912L169.013 243.427C169.194 243.532 169.469 243.543 169.626 243.452L173.562 241.18C173.719 241.089 173.7 240.931 173.518 240.826L170.895 239.311C170.713 239.207 170.438 239.195 170.281 239.286Z" fill="#CADAF1"/>
<path d="M173.609 237.365L171.337 238.676C171.179 238.767 171.199 238.926 171.381 239.03L174.004 240.545C174.186 240.65 174.46 240.661 174.618 240.57L176.89 239.259C177.047 239.168 177.027 239.01 176.846 238.905L174.222 237.39C174.041 237.285 173.766 237.274 173.609 237.365Z" fill="#CADAF1"/>
<path d="M176.937 235.444L174.665 236.756C174.508 236.847 174.527 237.005 174.709 237.11L177.332 238.625C177.514 238.729 177.789 238.741 177.946 238.65L180.218 237.338C180.375 237.247 180.355 237.089 180.174 236.984L177.55 235.47C177.369 235.364 177.094 235.353 176.937 235.444Z" fill="#CADAF1"/>
<path d="M180.264 233.523L177.992 234.835C177.835 234.926 177.854 235.085 178.036 235.189L180.66 236.704C180.841 236.808 181.116 236.82 181.273 236.729L183.545 235.417C183.702 235.326 183.683 235.168 183.501 235.063L180.877 233.549C180.696 233.443 180.422 233.432 180.264 233.523Z" fill="#CADAF1"/>
<path d="M183.591 231.602L181.319 232.914C181.162 233.005 181.182 233.163 181.363 233.268L183.987 234.783C184.168 234.887 184.443 234.899 184.6 234.808L186.872 233.497C187.03 233.406 187.01 233.247 186.828 233.143L184.205 231.628C184.023 231.522 183.748 231.511 183.591 231.602Z" fill="#CADAF1"/>
<path d="M186.918 229.68L184.646 230.993C184.489 231.083 184.509 231.242 184.69 231.346L187.314 232.861C187.495 232.966 187.77 232.977 187.927 232.886L190.2 231.575C190.357 231.484 190.337 231.326 190.156 231.221L187.532 229.706C187.35 229.601 187.076 229.59 186.918 229.68Z" fill="#CADAF1"/>
<path d="M190.247 227.759L187.974 229.071C187.817 229.162 187.837 229.32 188.018 229.425L190.642 230.94C190.823 231.045 191.098 231.056 191.255 230.966L193.528 229.654C193.685 229.563 193.665 229.405 193.484 229.3L190.86 227.785C190.678 227.68 190.404 227.669 190.247 227.759Z" fill="#CADAF1"/>
<path d="M193.573 225.838L191.3 227.151C191.143 227.241 191.163 227.4 191.344 227.504L193.968 229.019C194.15 229.124 194.424 229.135 194.581 229.044L196.854 227.733C197.011 227.642 196.991 227.484 196.81 227.379L194.186 225.864C194.005 225.759 193.73 225.748 193.573 225.838Z" fill="#CADAF1"/>
<path d="M196.9 223.917L194.628 225.229C194.47 225.32 194.49 225.478 194.672 225.583L197.295 227.098C197.477 227.202 197.751 227.214 197.909 227.123L200.181 225.811C200.338 225.72 200.318 225.562 200.137 225.457L197.513 223.943C197.332 223.838 197.057 223.826 196.9 223.917Z" fill="#CADAF1"/>
<path d="M200.228 221.996L197.956 223.308C197.799 223.399 197.818 223.558 198 223.662L200.623 225.177C200.805 225.282 201.08 225.293 201.237 225.202L203.509 223.891C203.666 223.8 203.646 223.642 203.465 223.536L200.841 222.022C200.66 221.917 200.385 221.905 200.228 221.996Z" fill="#CADAF1"/>
<path d="M203.555 220.076L201.283 221.387C201.126 221.478 201.145 221.636 201.327 221.741L203.951 223.256C204.132 223.361 204.407 223.372 204.564 223.281L206.836 221.969C206.993 221.878 206.974 221.72 206.792 221.615L204.169 220.1C203.987 219.996 203.712 219.985 203.555 220.076Z" fill="#CADAF1"/>
<path d="M206.882 218.155L204.61 219.466C204.453 219.557 204.473 219.715 204.654 219.82L207.278 221.335C207.459 221.44 207.734 221.451 207.891 221.36L210.163 220.048C210.321 219.957 210.301 219.799 210.119 219.694L207.496 218.18C207.314 218.075 207.04 218.064 206.882 218.155Z" fill="#CADAF1"/>
<path d="M211.873 215.273L207.937 217.545C207.78 217.636 207.8 217.795 207.981 217.899L210.605 219.414C210.786 219.519 211.061 219.53 211.218 219.439L215.154 217.167C215.311 217.076 215.291 216.918 215.11 216.813L212.486 215.298C212.305 215.193 212.03 215.182 211.873 215.273Z" fill="#CADAF1"/>
<path d="M103.754 200.215L99.8564 197.96C98.8394 197.397 97.5495 197.325 96.3995 197.989L75.2227 210.216C72.7284 211.656 71.1914 214.317 71.1914 217.198V270.342C71.1914 271.717 71.949 272.827 73.0002 273.412L72.9992 273.415L76.8002 275.617L103.754 200.215Z" fill="#2E466C"/>
<path d="M100.2 200.192L79.0234 212.419C76.5292 213.859 74.9922 216.52 74.9922 219.401V272.546C74.9922 275.252 77.9219 276.944 80.2659 275.591L101.443 263.364C103.937 261.924 105.474 259.262 105.474 256.382V203.237C105.474 200.531 102.544 198.839 100.2 200.192Z" fill="white"/>
<path d="M103.437 203.818V256.178C103.437 258.458 102.222 260.563 100.248 261.703L79.7504 273.537C78.5396 274.236 77.0264 273.362 77.0264 271.964V219.604C77.0264 217.325 78.2421 215.219 80.216 214.079L100.713 202.245C101.924 201.546 103.437 202.42 103.437 203.818Z" fill="#607ACE"/>
<path d="M103.437 220.21V203.818C103.437 202.42 101.924 201.546 100.713 202.245L80.216 214.079C78.2421 215.219 77.0264 217.325 77.0264 219.604V255.087L103.437 220.21Z" fill="#8095D8"/>
<path d="M79.8533 218.489L100.5 206.569C100.994 206.284 101.61 206.64 101.61 207.21V223.099C101.61 223.813 101.23 224.472 100.611 224.829L79.9645 236.749C79.4713 237.034 78.8545 236.678 78.8545 236.108V220.218C78.8545 219.505 79.2355 218.845 79.8533 218.489Z" fill="#FDDA5C"/>
<path d="M79.8533 240.542L100.5 228.621C100.994 228.337 101.61 228.693 101.61 229.262V245.152C101.61 245.865 101.23 246.525 100.611 246.881L79.9645 258.802C79.4713 259.086 78.8545 258.73 78.8545 258.161V242.271C78.8545 241.558 79.2355 240.898 79.8533 240.542Z" fill="#FAA226"/>
<path d="M51.6686 87.7504L26.6582 89.915V97.4838H26.6602C26.6755 99.128 27.6763 100.696 29.7089 101.869C34.2309 104.48 42.1289 104.153 47.3502 101.138C50.2462 99.466 51.7076 97.3187 51.6656 95.2925H51.6681L51.6686 87.7504Z" fill="#607ACE"/>
<path d="M40.0273 95.8894C46.9184 95.0495 52.1195 91.2082 51.6443 87.3098C51.1692 83.4114 45.1976 80.932 38.3065 81.7719C31.4154 82.6119 26.2143 86.4531 26.6895 90.3515C27.1647 94.25 33.1362 96.7294 40.0273 95.8894Z" fill="#CADAF1"/>
<path d="M51.6676 77.0578L26.6572 79.2224V86.7912H26.6592C26.6745 88.4354 27.6753 90.003 29.708 91.1763C34.23 93.7872 42.1279 93.4595 47.3492 90.4449C50.2453 88.773 51.7066 86.6261 51.6646 84.5994H51.6671L51.6676 77.0578Z" fill="#FAA226"/>
<path d="M30.9753 73.4046C36.1966 70.3899 44.0945 70.0628 48.6165 72.6732C53.138 75.2836 52.5711 79.8436 47.3498 82.8583C42.1285 85.8729 34.2306 86.2001 29.7086 83.5897C25.1871 80.9793 25.7545 76.4193 30.9753 73.4046Z" fill="#FDDA5C"/>
<path d="M51.6651 66.3661C51.6493 64.7224 50.6485 63.1547 48.6159 61.9815C44.0943 59.3711 36.1959 59.6982 30.9746 62.7129C28.0919 64.3774 26.631 66.5124 26.6592 68.5307H26.6572V76.0995H26.6592C26.6745 77.7437 27.6753 79.3114 29.708 80.4846C34.23 83.095 42.1279 82.7679 47.3492 79.7532C50.2453 78.0813 51.7066 75.9339 51.6646 73.9077H51.6671V66.3661H51.6651Z" fill="#F8EBE5" stroke="#2E466C" stroke-width="0.494208" stroke-miterlimit="10"/>
<path d="M30.9753 62.7124C36.1966 59.6978 44.0945 59.3706 48.6165 61.981C53.138 64.5914 52.5711 69.1515 47.3498 72.1661C42.1285 75.1808 34.2306 75.508 29.7086 72.8975C25.1871 70.2866 25.7545 65.7266 30.9753 62.7124Z" stroke="#2E466C" stroke-width="0.494208" stroke-miterlimit="10"/>
<path d="M191.483 53.5746L190.115 52.7839C190.147 52.6608 190.196 52.5323 190.263 52.4033C190.725 51.5207 190.725 50.5219 190.263 50.1725L189.215 49.3798C189.185 49.3571 185.325 47.1297 185.325 47.1297V47.1302C184.866 46.9102 184.199 47.3308 183.769 48.1344L182.235 47.2483C182.024 47.1104 181.742 47.1143 181.433 47.2932L179.95 48.1492C179.297 48.5263 178.767 49.5384 178.767 50.4097C178.767 51.2034 178.047 52.0159 177.627 51.6981C177.165 51.3487 176.416 51.7811 175.954 52.6638L174.906 54.6668C174.444 55.5495 174.444 56.5483 174.906 56.8977C175.327 57.2159 175.029 58.3472 174.433 58.6907C173.78 59.0677 173.25 60.0799 173.25 60.9512V62.928C173.25 63.4039 173.408 63.739 173.658 63.8838L175.054 64.6898C175.022 64.8129 174.973 64.9409 174.906 65.0699C174.444 65.9525 174.444 66.9513 174.906 67.3002L179.816 70.3292C180.276 70.5798 180.962 70.1592 181.399 69.3398L182.974 70.2497V70.2492C183.18 70.3619 183.445 70.348 183.736 70.1805L185.219 69.3245C185.872 68.9474 186.402 67.9353 186.402 67.064C186.402 66.2703 187.121 65.4578 187.542 65.7756C188.004 66.125 188.753 65.6926 189.215 64.8099L190.263 62.8069C190.725 61.9243 190.725 60.9255 190.263 60.5761C189.842 60.2578 190.141 59.1265 190.736 58.7831C191.389 58.406 191.919 57.3939 191.919 56.5226V54.5457C191.918 54.0525 191.748 53.71 191.483 53.5746Z" stroke="#2E466C" stroke-width="0.494208" stroke-miterlimit="10" stroke-linecap="round"/>
<path d="M190.735 53.6511C190.14 53.9946 189.842 53.2073 190.262 52.4033C190.724 51.5206 190.724 50.5218 190.262 50.1724L189.214 49.3797C188.752 49.0303 188.003 49.4627 187.541 50.3454C187.12 51.1495 186.401 51.1673 186.401 50.3741C186.401 49.5028 185.871 49.1025 185.218 49.48L183.735 50.336C183.082 50.7131 182.552 51.7252 182.552 52.5965C182.552 53.3902 181.832 54.2027 181.412 53.8849C180.95 53.5355 180.201 53.9679 179.739 54.8506L178.691 56.8536C178.229 57.7363 178.229 58.7351 178.691 59.0845C179.112 59.4027 178.813 60.534 178.218 60.8774C177.565 61.2545 177.035 62.2667 177.035 63.1375V65.1143C177.035 65.9856 177.565 66.3859 178.218 66.0088C178.813 65.6653 179.111 66.4526 178.691 67.2567C178.229 68.1393 178.229 69.1381 178.691 69.4875L179.739 70.2802C180.201 70.6296 180.95 70.1972 181.412 69.3146C181.833 68.5105 182.552 68.4922 182.552 69.2859C182.552 70.1572 183.082 70.5575 183.735 70.1804L185.218 69.3244C185.871 68.9474 186.401 67.9352 186.401 67.0639C186.401 66.2702 187.12 65.4578 187.541 65.7755C188.003 66.1249 188.752 65.6925 189.214 64.8099L190.262 62.8068C190.724 61.9242 190.724 60.9254 190.262 60.5765C189.841 60.2582 190.14 59.127 190.735 58.7835C191.388 58.4064 191.918 57.3943 191.918 56.523V54.5462C191.918 53.6744 191.388 53.2741 190.735 53.6511Z" stroke="#2E466C" stroke-width="0.494208" stroke-miterlimit="10" stroke-linecap="round"/>
<path d="M188.709 57.3869C188.709 60.5034 186.814 64.1235 184.477 65.4732C182.14 66.8228 180.245 65.3901 180.245 62.2737C180.245 59.1572 182.14 55.5371 184.477 54.1874C186.814 52.8382 188.709 54.2705 188.709 57.3869Z" stroke="#2E466C" stroke-width="0.494208" stroke-miterlimit="10" stroke-linecap="round"/>
<path d="M186.301 60.5983C187.052 58.8329 186.852 57.0572 185.853 56.6322C184.854 56.2073 183.436 57.2939 182.685 59.0593C181.933 60.8248 182.134 62.6004 183.132 63.0254C184.131 63.4504 185.55 62.3637 186.301 60.5983Z" stroke="#2E466C" stroke-width="0.494208" stroke-miterlimit="10" stroke-linecap="round"/>
<path d="M206.263 91.7135L233.531 75.971C234.182 75.5949 234.997 76.0649 234.997 76.8176V97.8016C234.997 98.7441 234.494 99.6149 233.678 100.086L206.41 115.828C205.759 116.204 204.944 115.734 204.944 114.982V93.9977C204.944 93.0557 205.447 92.1849 206.263 91.7135Z" fill="#2E466C"/>
<mask id="mask0_2640_4011" style="mask-type:luminance" maskUnits="userSpaceOnUse" x="204" y="75" width="32" height="41">
<path d="M206.267 91.7134L233.535 75.9709C234.186 75.5948 235.001 76.0648 235.001 76.8175V97.8015C235.001 98.744 234.498 99.6148 233.681 100.086L206.414 115.828C205.763 116.204 204.948 115.734 204.948 114.982V93.9976C204.948 93.0557 205.451 92.1849 206.267 91.7134Z" fill="white"/>
</mask>
<g mask="url(#mask0_2640_4011)">
<path d="M209.571 100.132V119.278" stroke="#F8EBE5" stroke-width="0.378464" stroke-miterlimit="10"/>
<path d="M216.316 96.2369V115.383" stroke="#F8EBE5" stroke-width="0.378464" stroke-miterlimit="10"/>
<path d="M223.063 89.826V111.488" stroke="#F8EBE5" stroke-width="0.378464" stroke-miterlimit="10"/>
<path d="M229.811 89.3625V107.593" stroke="#F8EBE5" stroke-width="0.378464" stroke-miterlimit="10"/>
<path d="M202.719 107.593C202.719 107.593 206.979 100.982 211.486 99.0356C215.993 97.0894 215.993 102.224 221.482 99.3821C226.972 96.5404 230.987 85.1543 235.821 81.9262" stroke="#EF651D" stroke-width="0.756928" stroke-miterlimit="10"/>
<path d="M202.719 111.635C202.719 111.635 206.816 109.615 209.684 106.203C212.551 102.791 217.467 92.5245 220.991 90.4893C226.945 87.0506 228.284 98.2968 235.822 93.0706" stroke="#607ACE" stroke-width="0.756928" stroke-miterlimit="10"/>
<path d="M217.233 95.4041C217.233 96.0777 216.823 96.8605 216.318 97.1521C215.813 97.4437 215.403 97.1343 215.403 96.4607C215.403 95.7871 215.813 95.0043 216.318 94.7127C216.823 94.4211 217.233 94.7305 217.233 95.4041Z" fill="white"/>
<path d="M230.725 88.8341C230.725 89.5077 230.315 90.2906 229.81 90.5821C229.305 90.8737 228.896 90.5643 228.896 89.8902C228.896 89.2166 229.305 88.4338 229.81 88.1422C230.315 87.8512 230.725 88.1605 230.725 88.8341Z" fill="white"/>
</g>
<path d="M206.263 91.7135L233.531 75.971C234.182 75.5949 234.997 76.0649 234.997 76.8176V97.8016C234.997 98.7441 234.494 99.6149 233.678 100.086L206.41 115.828C205.759 116.204 204.944 115.734 204.944 114.982V93.9977C204.944 93.0557 205.447 92.1849 206.263 91.7135Z" fill="#2E466C"/>
<mask id="mask1_2640_4011" style="mask-type:luminance" maskUnits="userSpaceOnUse" x="204" y="75" width="32" height="41">
<path d="M206.267 91.7134L233.535 75.9709C234.186 75.5948 235.001 76.0648 235.001 76.8175V97.8015C235.001 98.744 234.498 99.6148 233.681 100.086L206.414 115.828C205.763 116.204 204.948 115.734 204.948 114.982V93.9976C204.948 93.0557 205.451 92.1849 206.267 91.7134Z" fill="white"/>
</mask>
<g mask="url(#mask1_2640_4011)">
<path d="M209.571 100.132V119.278" stroke="#F8EBE5" stroke-width="0.378464" stroke-miterlimit="10"/>
<path d="M216.316 96.2369V115.383" stroke="#F8EBE5" stroke-width="0.378464" stroke-miterlimit="10"/>
<path d="M223.063 89.826V111.488" stroke="#F8EBE5" stroke-width="0.378464" stroke-miterlimit="10"/>
<path d="M229.811 89.3625V107.593" stroke="#F8EBE5" stroke-width="0.378464" stroke-miterlimit="10"/>
<path d="M202.719 107.593C202.719 107.593 206.979 100.982 211.486 99.0356C215.993 97.0894 215.993 102.224 221.482 99.3821C226.972 96.5404 230.987 85.1543 235.821 81.9262" stroke="#EF651D" stroke-width="0.756928" stroke-miterlimit="10"/>
<path d="M202.719 111.635C202.719 111.635 206.816 109.615 209.684 106.203C212.551 102.791 217.467 92.5245 220.991 90.4893C226.945 87.0506 228.284 98.2968 235.822 93.0706" stroke="#607ACE" stroke-width="0.756928" stroke-miterlimit="10"/>
<path d="M217.233 95.4041C217.233 96.0777 216.823 96.8605 216.318 97.1521C215.813 97.4437 215.403 97.1343 215.403 96.4607C215.403 95.7871 215.813 95.0043 216.318 94.7127C216.823 94.4211 217.233 94.7305 217.233 95.4041Z" fill="white"/>
<path d="M230.725 88.8341C230.725 89.5077 230.315 90.2906 229.81 90.5821C229.305 90.8737 228.896 90.5643 228.896 89.8902C228.896 89.2166 229.305 88.4338 229.81 88.1422C230.315 87.8512 230.725 88.1605 230.725 88.8341Z" fill="white"/>
</g>
<path d="M221.645 103.396L181.755 126.426C181.078 126.817 180.661 127.539 180.661 128.321V158.524C180.661 159.324 181.527 159.824 182.22 159.424L222.109 136.394C222.786 136.003 223.204 135.28 223.204 134.499V104.296C223.204 103.496 222.338 102.996 221.645 103.396Z" fill="#607ACE"/>
<path d="M229.747 129.106L204.905 143.449C204.484 143.692 204.224 144.142 204.224 144.629V163.438C204.224 163.936 204.763 164.247 205.194 163.998L230.036 149.656C230.457 149.412 230.717 148.963 230.717 148.476V129.667C230.718 129.169 230.178 128.857 229.747 129.106Z" fill="#CADAF1"/>
<path d="M193.602 134.541L188.438 137.522V146.552L193.602 143.571V134.541Z" fill="#FDDA5C"/>
<path d="M200.911 134.057L195.747 137.038V142.334L200.911 139.352V134.057Z" fill="#E84C3D"/>
<path d="M208.216 121.105L203.053 124.086V138.115L208.216 135.134V121.105Z" fill="#FAA226"/>
<path d="M215.524 111.95L210.36 114.931V133.896L215.524 130.915V111.95Z" fill="#92B938"/>
<path d="M186.393 128.768V150.87L217.471 132.927" stroke="white" stroke-width="0.473401" stroke-miterlimit="10" stroke-linecap="round"/>
<path d="M206.955 146.019L217.657 139.827V141.7L206.955 147.892V146.019Z" fill="#FAA226"/>
<path d="M206.955 149.696L215.07 145.031V146.904L206.955 151.569V149.696Z" fill="#E84C3D"/>
<path d="M206.955 153.373L225.64 142.601V144.474L206.955 155.246V153.373Z" fill="#92B938"/>
<path d="M206.955 157.05L228.358 144.693V146.566L206.955 158.923V157.05Z" fill="#607ACE"/>
<path d="M67.4378 89.7669C67.3661 89.7634 67.2935 89.7585 67.2204 89.7515C66.2873 89.6606 65.029 89.5326 63.9265 89.4194C62.605 89.284 61.4564 90.3209 61.4564 91.6493V100.127C61.0349 99.9811 60.5836 99.8971 60.1122 99.8971C57.8472 99.8971 56.0107 101.734 56.0107 103.999C56.0107 106.264 57.8467 108.1 60.1122 108.1C62.3771 108.1 64.2136 106.264 64.2136 103.999V92.6288C64.2136 92.234 64.5793 91.9404 64.9638 92.0298C65.6097 92.1806 66.5932 92.3219 67.59 92.1336C67.6434 92.1233 67.6968 92.1104 67.7497 92.0951C69.003 91.7249 68.744 89.8257 67.4378 89.7669Z" fill="#2E466C"/>
<path d="M252.609 112.523C252.609 117.165 249.787 122.558 246.305 124.568C242.823 126.579 240 124.445 240 119.802C240 115.16 242.822 109.767 246.305 107.756C249.787 105.746 252.609 107.88 252.609 112.523Z" fill="#E84C3D"/>
<path d="M245.222 112.2L250.094 113.138C250.627 113.24 250.627 114.266 250.094 114.983L245.222 121.546C244.689 122.264 244.023 122.136 244.023 121.315V113.815C244.023 112.995 244.689 112.098 245.222 112.2Z" fill="white"/>
<path d="M185.319 160.772C185.319 165.414 182.497 170.807 179.015 172.817C175.533 174.828 172.71 172.694 172.71 168.051C172.71 163.409 175.532 158.016 179.015 156.006C182.497 153.995 185.319 156.129 185.319 160.772Z" fill="#E84C3D"/>
<path d="M177.933 160.449L182.805 161.387C183.337 161.489 183.337 162.515 182.805 163.232L177.933 169.795C177.4 170.513 176.734 170.385 176.734 169.565V162.064C176.734 161.244 177.4 160.347 177.933 160.449Z" fill="white"/>
<path d="M13.2146 104.2C13.2146 107.496 12.0824 110.028 10.3843 111.008C9.4453 111.55 8.78256 111.38 8.49246 110.499C8.00913 111.808 7.22185 112.834 6.13114 113.463C4.34952 114.492 2.94152 113.427 2.94152 110.647C2.94152 107.885 4.33618 105.202 6.13114 104.166C7.04246 103.64 7.76054 103.649 8.25722 104.153C8.25722 103.554 8.62194 102.857 9.07167 102.597L9.32076 102.453C9.77048 102.193 10.1352 102.469 10.1352 103.069V107.948C10.1352 108.832 10.4253 108.959 10.7979 108.744C11.433 108.377 11.8195 107.178 11.8195 105.043C11.8195 101.305 9.74824 99.9231 6.68317 101.693C3.60426 103.471 1.54637 107.458 1.54637 111.305C1.54637 115.227 3.56225 116.843 6.62782 115.073C7.29055 114.69 8.01802 114.132 8.71189 113.412C9.06871 113.042 9.45814 113.05 9.58219 113.453C9.70574 113.856 9.51399 114.479 9.15816 114.846C8.39313 115.635 7.46945 116.355 6.62782 116.84C2.63709 119.144 0 117.059 0 112.198C0 107.393 2.66477 102.264 6.68317 99.9443C10.5637 97.7041 13.2146 99.5791 13.2146 104.2ZM7.84653 107.735C7.84653 106.568 7.31378 106.218 6.58878 106.637C5.85438 107.061 5.3409 108.041 5.3409 109.182C5.3409 110.336 5.85438 110.737 6.58878 110.313C7.31328 109.894 7.84653 108.916 7.84653 107.735Z" fill="#607ACE"/>
<path d="M126.622 183.395C125.915 184.744 124.77 185.406 124.063 184.872C123.357 184.338 123.357 182.81 124.063 181.461C124.769 180.111 125.915 179.45 126.622 179.984C127.328 180.518 127.328 182.045 126.622 183.395Z" fill="#FBA074"/>
<path d="M128.325 178.314C128.096 178.446 127.868 178.461 127.693 178.329C126.397 177.349 124.287 178.567 122.991 181.044C122.642 181.711 122.077 182.037 121.728 181.774C121.379 181.51 121.379 180.755 121.728 180.089C123.721 176.281 126.964 174.408 128.956 175.915C129.305 176.179 129.305 176.933 128.956 177.6C128.782 177.933 128.553 178.181 128.325 178.314Z" fill="#FBA074"/>
<path d="M130.063 174.205C129.834 174.337 129.605 174.353 129.431 174.221C127.177 172.517 123.509 174.635 121.255 178.942C120.906 179.608 120.341 179.935 119.991 179.671C119.642 179.407 119.642 178.653 119.991 177.986C121.421 175.255 123.321 173.108 125.343 171.941C127.364 170.774 129.265 170.726 130.695 171.807C131.044 172.071 131.044 172.825 130.695 173.492C130.52 173.825 130.291 174.073 130.063 174.205Z" fill="#FBA074"/>
<path d="M131.815 170.051C131.586 170.183 131.358 170.199 131.184 170.067C127.962 167.632 122.721 170.658 119.499 176.813C119.151 177.48 118.585 177.807 118.236 177.543C117.887 177.279 117.887 176.525 118.236 175.858C119.195 174.026 120.314 172.39 121.561 170.995C122.765 169.649 124.037 168.585 125.342 167.831C126.646 167.078 127.918 166.674 129.122 166.63C130.369 166.584 131.488 166.928 132.447 167.653C132.796 167.917 132.796 168.671 132.447 169.338C132.273 169.671 132.044 169.919 131.815 170.051Z" fill="#FBA074"/>
<path d="M87.2801 172.424L84.9099 171.024L84.9079 171.027C84.5135 170.791 84.002 170.751 83.5469 171.014L64.68 181.907C63.7825 182.425 63.2295 183.383 63.2295 184.419V197.559C63.2295 198.067 63.5018 198.48 63.8828 198.708L63.8818 198.71L63.8942 198.717C63.9006 198.721 63.9075 198.725 63.914 198.728L66.3227 200.151L66.3242 200.15C66.7166 200.374 67.2197 200.405 67.6665 200.145L81.3407 192.186L84.3915 193.947V190.41L86.5378 189.161C87.4303 188.641 87.9799 187.686 87.9799 186.654V173.603C87.9799 173.073 87.6863 172.647 87.2801 172.424Z" fill="#607ACE"/>
<path d="M85.9638 172.438L67.097 183.331C66.1995 183.849 65.6465 184.807 65.6465 185.844V198.983C65.6465 200.02 66.7708 200.666 67.6668 200.145L81.341 192.186L84.3923 193.948V190.411L86.5386 189.161C87.4312 188.642 87.9807 187.687 87.9807 186.654V173.603C87.9802 172.567 86.8603 171.921 85.9638 172.438Z" fill="white"/>
<path d="M70.168 190.423C70.168 189.5 70.7294 188.427 71.4218 188.028C72.1142 187.628 72.6756 188.053 72.6756 188.975C72.6756 189.899 72.1142 190.971 71.4218 191.37C70.7289 191.771 70.168 191.346 70.168 190.423Z" fill="#2E466C"/>
<path d="M74.0391 188.152C74.0391 187.229 74.6005 186.156 75.2924 185.757C75.9848 185.357 76.5457 185.781 76.5457 186.704C76.5457 187.627 75.9843 188.7 75.2924 189.099C74.6005 189.499 74.0391 189.075 74.0391 188.152Z" fill="#2E466C"/>
<path d="M77.9102 185.88C77.9102 184.957 78.4716 183.885 79.1635 183.485C79.8559 183.086 80.4173 183.51 80.4173 184.433C80.4173 185.356 79.8559 186.429 79.1635 186.828C78.4716 187.228 77.9102 186.803 77.9102 185.88Z" fill="#2E466C"/>
<path d="M81.7812 183.609C81.7812 182.686 82.3427 181.613 83.0346 181.214C83.727 180.814 84.2884 181.239 84.2884 182.162C84.2884 183.085 83.727 184.157 83.0346 184.557C82.3427 184.957 81.7812 184.532 81.7812 183.609Z" fill="#2E466C"/>
<path d="M172.939 77.1207L168.022 74.2913C165.456 72.8715 162.201 72.6891 159.299 74.365L93.8397 111.956C87.546 115.589 83.6689 122.305 83.6689 129.572V140.271C83.6689 143.74 85.58 146.541 88.232 148.017L88.2295 148.024L92.9017 150.72L172.939 77.1207Z" fill="#2E466C"/>
<path d="M163.971 77.0624L98.5121 114.653C92.2184 118.287 88.3418 125.002 88.3418 132.269V142.968C88.3418 149.797 95.7342 154.065 101.648 150.65L167.107 113.059C173.401 109.426 177.277 102.711 177.277 95.4434V84.7443C177.277 77.9159 169.886 73.6479 163.971 77.0624Z" fill="#607ACE"/>
<path d="M112.127 106.67L106.99 103.704C106.987 103.703 106.984 103.701 106.981 103.699L106.98 103.698C106.586 103.496 106.056 103.594 105.507 104.055C101.393 107.507 97.1267 108.802 93.6638 107.651L91.5249 106.941C90.9185 106.739 90.1209 107.2 89.5145 108.102L87.3755 111.282C83.9126 116.432 79.6466 120.062 75.5323 121.361C74.4303 121.709 73.4053 123.426 73.4053 124.923V134.281C73.4053 143.864 76.5618 150.952 81.8167 153.998L81.8152 154.001L86.8571 156.911L112.127 106.67Z" fill="#495D1C"/>
<path d="M98.8118 110.624L96.6728 109.913C96.0664 109.711 95.2688 110.172 94.6624 111.074L92.5235 114.254C89.0606 119.404 84.7946 123.035 80.6808 124.333C79.5787 124.681 78.5537 126.398 78.5537 127.895V137.253C78.5537 150.115 84.2366 158.488 93.0528 158.616C94.7178 158.64 96.6185 157.543 98.2835 155.596C107.1 145.288 112.783 130.353 112.783 117.491V108.133C112.783 106.635 111.757 106.103 110.655 107.027C106.541 110.479 102.275 111.775 98.8118 110.624Z" fill="#92B938"/>
<path d="M95.6671 115.011L96.9145 115.426C100.088 116.48 103.796 115.865 107.638 113.647C108.231 113.305 108.825 112.925 109.416 112.509V119.434C109.416 130.511 104.509 143.405 96.917 152.283C96.5211 152.746 96.1006 153.108 95.6671 153.358C95.2337 153.608 94.8131 153.732 94.4173 153.726C86.8243 153.615 81.9183 146.387 81.9183 135.31V128.385C82.5099 128.118 83.1034 127.813 83.696 127.47C87.5379 125.252 91.246 121.585 94.4198 116.866L95.6671 115.011ZM95.6671 110.079C95.3162 110.282 94.9649 110.623 94.6619 111.073L92.523 114.254C89.9027 118.15 86.8223 121.178 83.6964 122.983C82.6912 123.563 81.6816 124.017 80.6803 124.333C80.5632 124.37 80.447 124.422 80.3329 124.488C79.3721 125.043 78.5527 126.556 78.5527 127.895V137.253C78.5527 150.114 84.2356 158.487 93.0518 158.616C93.8845 158.628 94.7756 158.36 95.6671 157.845C96.5587 157.33 97.4497 156.569 98.2825 155.595C107.099 145.287 112.782 130.352 112.782 117.491V108.133C112.782 106.794 111.962 106.227 111.001 106.782C110.887 106.847 110.771 106.929 110.654 107.027C109.653 107.867 108.643 108.58 107.638 109.16C104.511 110.965 101.432 111.494 98.8108 110.624L96.6719 109.913C96.3694 109.812 96.0185 109.877 95.6671 110.079Z" fill="white"/>
<path d="M95.3151 142.752C94.4201 144.463 92.9681 145.301 92.0731 144.625L86.5528 140.451C85.6543 139.772 85.6543 137.831 86.5528 136.114C87.4507 134.399 88.9072 133.558 89.8056 134.236L93.6946 137.176L101.534 122.196C102.425 120.495 103.888 119.53 104.804 120.153C105.753 120.797 105.77 122.778 104.855 124.526L95.3151 142.752Z" fill="white"/>
<path d="M119.563 127.316C118.813 127.749 118.094 128.051 117.406 128.221C116.718 128.381 116.164 128.396 115.744 128.267L116.481 125.954C116.883 126.052 117.357 126.052 117.902 125.954C118.456 125.841 119.014 125.621 119.577 125.296C120.006 125.049 120.35 124.804 120.609 124.562C120.877 124.304 121.073 124.051 121.198 123.803C121.323 123.556 121.386 123.319 121.386 123.092C121.386 122.803 121.288 122.633 121.091 122.581C120.894 122.519 120.635 122.529 120.314 122.612C119.992 122.684 119.635 122.787 119.242 122.921C118.858 123.04 118.469 123.141 118.076 123.223C117.692 123.3 117.339 123.318 117.017 123.277C116.696 123.236 116.432 123.089 116.227 122.836C116.03 122.578 115.932 122.161 115.932 121.583C115.932 120.964 116.075 120.319 116.361 119.649C116.656 118.963 117.093 118.303 117.674 117.668C118.264 117.018 119.001 116.438 119.885 115.928C120.475 115.587 121.055 115.334 121.627 115.169C122.199 114.994 122.704 114.94 123.141 115.007L122.471 117.297C122.034 117.261 121.596 117.302 121.158 117.421C120.72 117.529 120.291 117.704 119.872 117.947C119.452 118.189 119.108 118.444 118.84 118.713C118.572 118.981 118.38 119.241 118.264 119.494C118.147 119.736 118.089 119.976 118.089 120.214C118.089 120.492 118.188 120.662 118.384 120.724C118.581 120.776 118.84 120.76 119.161 120.678C119.483 120.595 119.836 120.495 120.22 120.376C120.613 120.252 121.002 120.147 121.386 120.059C121.779 119.966 122.136 119.94 122.458 119.982C122.779 120.023 123.039 120.172 123.235 120.43C123.441 120.683 123.543 121.093 123.543 121.66C123.543 122.269 123.396 122.911 123.101 123.587C122.806 124.262 122.364 124.925 121.774 125.575C121.194 126.22 120.457 126.8 119.563 127.316ZM127.023 116.355L131.539 113.748V115.698L127.023 118.305V116.355ZM127.184 120.719L132.29 117.771V119.783L125.027 123.976V113.145L132.115 109.052V111.064L127.184 113.911V120.719ZM138.506 116.38C137.782 116.797 137.108 117.053 136.482 117.146C135.866 117.223 135.33 117.14 134.874 116.898C134.419 116.655 134.061 116.269 133.802 115.737C133.552 115.201 133.427 114.525 133.427 113.71C133.427 112.896 133.552 112.075 133.802 111.25C134.061 110.42 134.419 109.62 134.874 108.852C135.339 108.078 135.879 107.379 136.496 106.755C137.112 106.121 137.787 105.592 138.519 105.169C139.332 104.7 140.065 104.442 140.717 104.396C141.378 104.334 141.932 104.489 142.379 104.86L140.985 107.15C140.663 106.913 140.306 106.804 139.913 106.825C139.52 106.835 139.091 106.975 138.626 107.243C138.189 107.495 137.787 107.81 137.42 108.187C137.054 108.563 136.737 108.983 136.469 109.448C136.201 109.912 135.991 110.399 135.839 110.91C135.696 111.415 135.625 111.926 135.625 112.442C135.625 112.957 135.696 113.386 135.839 113.726C135.991 114.061 136.201 114.306 136.469 114.461C136.737 114.616 137.054 114.67 137.42 114.623C137.787 114.577 138.189 114.427 138.626 114.175C139.091 113.907 139.52 113.556 139.913 113.123C140.306 112.679 140.663 112.148 140.985 111.529L142.379 112.21C141.932 113.097 141.378 113.896 140.717 114.608C140.065 115.315 139.328 115.905 138.506 116.38ZM147.96 110.922C146.629 111.69 145.588 111.863 144.837 111.44C144.087 111.017 143.712 110.011 143.712 108.423V102.357L145.883 101.104V107.077C145.883 108.108 146.066 108.745 146.432 108.987C146.798 109.23 147.312 109.16 147.973 108.779C148.634 108.397 149.148 107.873 149.514 107.208C149.88 106.543 150.063 105.694 150.063 104.663V98.6902L152.207 97.4523V103.518C152.207 105.106 151.832 106.545 151.082 107.835C150.331 109.124 149.291 110.153 147.96 110.922ZM154.353 107.045V96.2139L158.413 93.8697C159.253 93.3849 159.976 93.127 160.584 93.0961C161.191 93.0548 161.66 93.2328 161.991 93.6299C162.321 94.0271 162.487 94.6331 162.487 95.448C162.487 96.2526 162.321 97.0444 161.991 97.8232C161.66 98.5917 161.191 99.306 160.584 99.9662C159.976 100.626 159.253 101.199 158.413 101.684L155.559 103.332L156.524 101.676V105.792L154.353 107.045ZM160.316 103.602L157.971 101.026L160.289 99.6877L162.661 102.248L160.316 103.602ZM156.524 101.954L155.559 101.335L158.292 99.7573C158.962 99.3704 159.463 98.9166 159.793 98.3956C160.124 97.8644 160.289 97.3048 160.289 96.7168C160.289 96.1185 160.124 95.7497 159.793 95.6105C159.463 95.4712 158.962 95.595 158.292 95.9818L155.559 97.56L156.524 95.8116V101.954ZM166.203 93.7356L170.719 91.1284V93.078L166.203 95.6852V93.7356ZM166.364 98.099L171.469 95.1514V97.163L164.207 101.356V90.5249L171.295 86.4323V88.4438L166.364 91.2908V98.099Z" fill="white"/>
<path d="M158.278 21.7412C158.278 11.2224 149.751 2.69539 139.232 2.69539C135.23 2.69539 131.52 3.93535 128.454 6.04463C124.146 2.7626 118.785 0.791199 112.951 0.791199C98.792 0.791199 87.314 12.2692 87.314 26.4277C87.314 28.619 87.6185 30.7347 88.1359 32.7649C80.4653 34.81 74.8066 41.7847 74.8066 50.0998C74.8066 60.0185 82.8474 68.0593 92.7661 68.0593C96.9496 68.0593 103.842 64.2257 103.842 64.2257L148.729 38.2531L148.716 38.2418C154.425 34.9528 158.278 28.8029 158.278 21.7412Z" fill="white"/>
<path d="M174.328 21.878C172.565 20.8605 170.62 20.4592 168.733 20.5975C167.586 18.2135 165.155 16.5633 162.332 16.5633C159.786 16.5633 157.559 17.9066 156.303 19.919C150.348 18.3435 143.845 20.86 140.617 26.4504C139.025 29.2076 138.494 32.2791 138.87 35.2108C137.037 36.084 135.438 37.4989 134.346 39.3903C131.476 44.3615 133.179 50.7175 138.15 53.5874C141.488 55.5143 145.445 55.3715 148.557 53.5711L148.559 53.5805L173.081 39.4535C173.081 39.4535 176.773 37.2425 177.915 35.2651C180.621 30.5781 179.015 24.5843 174.328 21.878Z" fill="#CADAF1"/>
<path d="M185.147 28.6191C187.968 28.6191 190.255 26.3319 190.255 23.5105C190.255 20.6891 187.968 18.4019 185.147 18.4019C182.325 18.4019 180.038 20.6891 180.038 23.5105C180.038 26.3319 182.325 28.6191 185.147 28.6191Z" fill="#CADAF1"/>
<path d="M211.294 156.637L193.784 166.747C191.721 167.938 190.45 170.139 190.45 172.52V192.527C190.45 194.765 192.873 196.164 194.811 195.045L212.322 184.935C214.384 183.744 215.655 181.544 215.655 179.162V159.156C215.655 156.917 213.233 155.518 211.294 156.637Z" fill="white"/>
<path d="M192.452 171.089L213.655 158.848V178.401L192.452 190.643V171.089Z" fill="#607ACE"/>
<path d="M213.655 173.218L205.367 170.127L192.452 185.46L213.655 173.218Z" fill="#92B938"/>
<path d="M195.819 174.508C195.819 173.161 196.638 171.596 197.649 171.013C198.659 170.43 199.478 171.048 199.478 172.396C199.478 173.743 198.659 175.307 197.649 175.891C196.638 176.474 195.819 175.855 195.819 174.508Z" fill="#FDDA5C"/>
<path d="M192.452 185.46L213.655 173.218V178.401L192.452 190.643V185.46Z" fill="#2E466C"/>
<path d="M67.5938 202.512L65.0719 201.044C64.7832 200.855 64.3973 200.86 63.9732 201.105L41.1947 214.256C40.3002 214.772 39.5752 216.157 39.5752 217.35V240.504C39.5752 241.209 39.8282 241.688 40.2196 241.856L41.9701 242.874L42.577 243.23L43.4681 243.303V246.004C43.4681 246.213 43.5753 246.368 43.7221 246.454L43.7216 246.455L46.2416 247.909L67.5938 202.512Z" fill="#2E466C"/>
<path d="M66.4849 202.566L43.7064 215.717C42.8119 216.233 42.0869 217.618 42.0869 218.811V241.966C42.0869 243.158 42.8119 243.706 43.7064 243.19L45.9803 241.878V247.455C45.9803 247.993 46.6939 248.183 46.9618 247.716L52.4401 238.148L66.4854 230.039C67.38 229.523 68.105 228.138 68.105 226.945V203.791C68.1045 202.597 67.3795 202.049 66.4849 202.566Z" fill="white"/>
<path d="M50.1156 229.111L44.9521 232.092V237.387L50.1156 234.406V229.111Z" fill="#E84C3D"/>
<path d="M57.4232 216.158L52.2598 219.139V233.168L57.4232 230.187V216.158Z" fill="#FAA226"/>
<path d="M64.7289 207.003L59.5654 209.984V228.95L64.7289 225.969V207.003Z" fill="#92B938"/>
<path d="M64.8262 153.461L62.3043 151.993C62.0157 151.804 61.6297 151.809 61.2057 152.054L38.4271 165.205C37.5326 165.721 36.8076 167.106 36.8076 168.299V191.453C36.8076 192.158 37.0607 192.637 37.4526 192.805L39.203 193.823L39.8099 194.179L40.701 194.252V196.953C40.701 197.162 40.8082 197.317 40.955 197.403L40.9545 197.404L43.4745 198.858L64.8262 153.461Z" fill="#2E466C"/>
<path d="M63.7174 153.514L40.9389 166.665C40.0443 167.182 39.3193 168.567 39.3193 169.76V192.914C39.3193 194.107 40.0443 194.655 40.9389 194.139L43.2127 192.826V198.403C43.2127 198.942 43.9263 199.132 44.1937 198.664L49.672 189.096L63.7174 180.987C64.6119 180.471 65.3369 179.086 65.3369 177.893V154.739C65.3369 153.546 64.6119 152.998 63.7174 153.514Z" fill="white"/>
<path d="M41.6992 170.115L62.9561 157.843V177.445L41.6992 189.718V170.115Z" fill="#607ACE"/>
<path d="M62.9561 172.249L54.6465 169.15L41.6992 184.522L62.9561 172.249Z" fill="#92B938"/>
<path d="M45.0762 173.542C45.0762 172.191 45.897 170.623 46.9102 170.038C47.9228 169.454 48.7442 170.074 48.7442 171.424C48.7442 172.775 47.9233 174.344 46.9102 174.928C45.897 175.513 45.0762 174.893 45.0762 173.542Z" fill="#FDDA5C"/>
<path d="M41.6992 184.522L62.9561 172.249V177.445L41.6992 189.718V184.522Z" fill="#2E466C"/>
<path d="M132.952 70.0135C132.952 77.4716 128.418 86.1355 122.824 89.3647C117.231 92.5943 112.696 89.166 112.696 81.7084C112.696 74.2508 117.231 65.5864 122.824 62.3572C128.418 59.1271 132.952 62.5554 132.952 70.0135Z" fill="#92B938"/>
<path d="M127.43 70.7301L127.418 70.737V69.3271C127.418 65.9501 125.357 64.3924 122.824 65.8543C120.291 67.3166 118.23 71.254 118.23 74.6309V76.0409L118.218 76.0483C117.642 76.3809 117.175 77.2734 117.175 78.0419V86.269C117.175 87.0375 117.642 87.3903 118.218 87.0577L127.43 81.7391C128.006 81.4065 128.473 80.5139 128.473 79.7455V71.5184C128.473 70.7509 128.006 70.3975 127.43 70.7301ZM123.498 78.9695V80.3884C123.498 80.8846 123.196 81.4608 122.824 81.6753C122.452 81.8903 122.15 81.662 122.15 81.1663V79.7474C121.815 79.6476 121.593 79.272 121.593 78.6972C121.593 77.7904 122.144 76.7372 122.825 76.3448C123.505 75.9519 124.056 76.369 124.056 77.2754C124.055 77.8502 123.833 78.4828 123.498 78.9695ZM125.792 71.676L119.856 75.1034V73.6934C119.856 71.5115 121.187 68.9673 122.824 68.0229C124.46 67.0779 125.792 68.0846 125.792 70.2665V71.676Z" fill="#2E466C"/>
</svg>
