<svg width="25" height="29" viewBox="0 0 25 29" fill="none" xmlns="http://www.w3.org/2000/svg">
<path d="M7.11343 29C4.94409 29 3.18823 27.2441 3.18823 25.0748V3.9252C3.18823 1.75586 4.94409 0 7.11343 0H16.1533C16.2722 0 16.3855 0.0453125 16.4648 0.130273L24.2359 7.90137C24.3209 7.98633 24.3662 8.09961 24.3662 8.21856V25.0805C24.3662 27.2498 22.6046 29.0057 20.441 29.0057H7.11343V29Z" fill="black"/>
<path d="M23.7998 8.26387V25.0748C23.7998 26.9326 22.2931 28.4336 20.441 28.4336H7.11343C5.25562 28.4336 3.75464 26.927 3.75464 25.0748V3.9252C3.75464 2.06738 5.26128 0.566406 7.11343 0.566406H16.1023L23.7998 8.26387Z" fill="#EDEDED"/>
<path d="M17.49 8.83025C16.4082 8.83025 15.5359 7.95232 15.5359 6.87615V0.594702C15.5359 0.277515 15.7964 0.0169678 16.1136 0.0169678C16.2666 0.0169678 16.4138 0.0792725 16.5214 0.18689L24.1736 7.83904C24.4001 8.0656 24.4001 8.43376 24.1736 8.66033C24.066 8.76794 23.9187 8.83025 23.7658 8.83025H17.49Z" fill="black"/>
<path d="M23.7998 8.26387H17.49C16.7253 8.26387 16.1023 7.64082 16.1023 6.87617V0.566406L23.7998 8.26387Z" fill="#F15642"/>
<path d="M22.5537 14.0922V19.0993C22.5537 20.5493 21.3756 21.7274 19.9313 21.7274H3.26191C1.81191 21.7274 0.633789 20.5493 0.633789 19.0993V14.0922C0.633789 12.6422 1.81191 11.4641 3.26191 11.4641H19.9313C21.3813 11.4698 22.5537 12.6422 22.5537 14.0922Z" fill="black"/>
<path d="M3.26189 12.0361H19.9312C21.0697 12.0361 21.9873 12.9594 21.9873 14.0979V19.1049C21.9873 20.2434 21.064 21.1666 19.9312 21.1666H3.26189C2.12341 21.1666 1.20584 20.2434 1.20584 19.1049V14.0979C1.20017 12.9537 2.12341 12.0361 3.26189 12.0361Z" fill="#F15642"/>
<path d="M9.43579 15.5762C9.43579 16.7826 8.79575 17.451 7.6686 17.451H6.97759V19.4731H6.15063V13.7184H7.6686C8.79575 13.7184 9.43579 14.4037 9.43579 15.5762ZM8.59185 15.5762C8.59185 14.8682 8.28599 14.5057 7.66294 14.5057H6.97759V16.658H7.65728C8.28599 16.6637 8.59185 16.3182 8.59185 15.5762Z" fill="white"/>
<path d="M10.1438 13.7184H11.5712C12.687 13.7184 13.344 14.3754 13.344 15.5082V17.6606C13.344 18.799 12.687 19.4674 11.5769 19.4674H10.1382V13.7184H10.1438ZM11.5769 18.6801C12.1659 18.6801 12.5058 18.3289 12.5058 17.6436V15.5252C12.5058 14.8512 12.1772 14.5057 11.5769 14.5057H10.9708V18.6801H11.5769Z" fill="white"/>
<path d="M15.1622 14.5V16.2162H16.8897V16.9696H15.1622V19.4674H14.3296V13.7184H17.037V14.5H15.1622Z" fill="white"/>
</svg>
