<svg xmlns="http://www.w3.org/2000/svg" width="15" height="18" viewBox="0 0 15 18" fill="none">
    <path
        d="M8.461 18V16.7234C8.94847 16.6383 9.42897 16.5 9.90251 16.3085C10.376 16.117 10.8357 15.8511 11.2813 15.5106L12.1797 16.4468C11.6226 16.8723 11.0306 17.2128 10.4039 17.4681C9.77716 17.7234 9.12953 17.9007 8.461 18ZM6.58078 18C4.6727 17.7021 3.09889 16.8369 1.85933 15.4043C0.619777 13.9716 0 12.2624 0 10.2766C0 9.21277 0.194986 8.21631 0.584958 7.28723C0.97493 6.35816 1.51114 5.5461 2.19359 4.85106C2.87604 4.15603 3.6734 3.60993 4.58565 3.21277C5.49791 2.8156 6.47632 2.61702 7.52089 2.61702H7.93872L6.2883 0.93617L7.20752 0L10.4039 3.25532L7.20752 6.51064L6.2883 5.57447L7.93872 3.89362H7.52089C5.75209 3.89362 4.26532 4.50709 3.06059 5.73404C1.85585 6.96099 1.25348 8.47518 1.25348 10.2766C1.25348 11.9362 1.75836 13.3511 2.76811 14.5213C3.77786 15.6915 5.04875 16.4255 6.58078 16.7234V18ZM13.4958 15.1064L12.5766 14.1702C12.8969 13.7447 13.1511 13.2837 13.3391 12.7872C13.5272 12.2908 13.656 11.773 13.7256 11.234H15C14.9025 11.9574 14.7249 12.6489 14.4673 13.3085C14.2096 13.9681 13.8858 14.5674 13.4958 15.1064ZM15 9.31915H13.7256C13.656 8.82269 13.5272 8.32624 13.3391 7.82979C13.1511 7.33333 12.8969 6.85106 12.5766 6.38298L13.4958 5.46808C13.8997 6.03546 14.227 6.64184 14.4777 7.28723C14.7284 7.93262 14.9025 8.60993 15 9.31915Z"
        fill="black" />
</svg>