<svg width="180" height="180" viewBox="0 0 180 180" fill="none" xmlns="http://www.w3.org/2000/svg">
<ellipse opacity="0.1" cx="90" cy="174.6" rx="90" ry="5.4" fill="#BF5952"/>
<path fill-rule="evenodd" clip-rule="evenodd" d="M109.366 32.4028C109.091 32.4075 108.867 32.5284 108.701 32.7485C108.525 32.9816 108.423 33.3237 108.485 33.7002C108.595 34.3749 109.332 35.0895 110.464 35.1581C114.461 35.4001 118.614 36.9948 122.122 39.3626C125.627 41.7281 128.636 44.9658 130.206 48.6414C130.646 49.6707 131.524 50.1071 132.146 50.0056C132.498 49.9481 132.769 49.7561 132.92 49.535C133.061 49.3281 133.098 49.1053 133.022 48.871C129.963 39.408 119.476 32.2304 109.366 32.4028ZM104.932 34.2806C104.504 31.6627 106.291 28.8547 109.305 28.8034C120.908 28.6055 132.874 36.7087 136.448 47.7636C137.363 50.5959 135.291 53.1395 132.726 53.5585C130.012 54.0019 127.784 52.1346 126.896 50.0557C125.662 47.1675 123.191 44.4274 120.108 42.3465C117.028 40.2679 113.485 38.9476 110.247 38.7515C107.906 38.6097 105.382 37.0398 104.932 34.2806ZM91.1202 39.357C71.4732 39.357 55.0768 53.1439 51.3338 71.4304C35.7047 72.9172 23.3996 85.7761 23.3996 101.618C23.3996 105.423 24.11 109.068 25.4082 112.43C22.9944 116.296 21.5996 120.863 21.5996 125.757C21.5996 139.675 32.882 150.957 46.7996 150.957C60.7172 150.957 71.9996 139.675 71.9996 125.757C71.9996 111.839 60.7172 100.557 46.7996 100.557C39.3433 100.557 32.6433 103.795 28.0294 108.942C27.3587 106.615 26.9996 104.159 26.9996 101.618C26.9996 87.3003 38.4698 75.6468 52.9393 74.9225C53.7839 74.8802 54.4852 74.2558 54.6247 73.4218C57.5081 56.186 72.7284 42.957 91.1202 42.957C111.578 42.957 128.154 59.2994 128.154 79.3427V85.707C128.154 86.7011 128.96 87.507 129.954 87.507H132.77C144.283 87.507 153.623 96.7342 153.623 107.982C153.623 119.23 144.283 128.457 132.77 128.457H116.2C115.206 128.457 114.4 129.263 114.4 130.257C114.4 131.251 115.206 132.057 116.2 132.057H132.77C146.214 132.057 157.223 121.275 157.223 107.982C157.223 94.6891 146.214 83.907 132.77 83.907H131.754V79.3427C131.754 57.2543 113.509 39.357 91.1202 39.357ZM76.6803 102.357C73.685 102.357 71.9997 98.9124 73.838 96.5476L87.4683 79.0134C88.9096 77.1593 91.7115 77.1593 93.1528 79.0134L106.783 96.5476C108.621 98.9124 106.936 102.357 103.941 102.357H94.8105V127.107C94.8105 129.095 93.1988 130.707 91.2105 130.707H89.4105C87.4223 130.707 85.8105 129.095 85.8105 127.107V102.357H76.6803ZM25.1996 125.757C25.1996 113.828 34.8703 104.157 46.7996 104.157C58.729 104.157 68.3996 113.828 68.3996 125.757C68.3996 137.686 58.729 147.357 46.7996 147.357C34.8703 147.357 25.1996 137.686 25.1996 125.757ZM42.2996 114.057C42.2996 111.572 44.3143 109.557 46.7996 109.557C49.2849 109.557 51.2996 111.572 51.2996 114.057V124.857C51.2996 127.342 49.2849 129.357 46.7996 129.357C44.3143 129.357 42.2996 127.342 42.2996 124.857V114.057ZM46.7996 113.157C46.3026 113.157 45.8996 113.56 45.8996 114.057V124.857C45.8996 125.354 46.3026 125.757 46.7996 125.757C47.2967 125.757 47.6996 125.354 47.6996 124.857V114.057C47.6996 113.56 47.2967 113.157 46.7996 113.157ZM46.7996 141.957C44.3143 141.957 42.2996 139.942 42.2996 137.457C42.2996 134.972 44.3143 132.957 46.7996 132.957C49.2849 132.957 51.2996 134.972 51.2996 137.457C51.2996 139.942 49.2849 141.957 46.7996 141.957ZM45.8996 137.457C45.8996 137.954 46.3026 138.357 46.7996 138.357C47.2967 138.357 47.6996 137.954 47.6996 137.457C47.6996 136.96 47.2967 136.557 46.7996 136.557C46.3026 136.557 45.8996 136.96 45.8996 137.457Z" fill="#BF5952"/>
</svg>
