<?xml version="1.0" encoding="UTF-8"?>
<svg id="Layer_2" data-name="Layer 2" xmlns="http://www.w3.org/2000/svg" viewBox="0 0 885.39 743.55">
  <defs>
    <style>
      .cls-1 {
        fill: #fccc30;
      }
    </style>
  </defs>
  <g id="Layer_1-2" data-name="Layer 1">
    <g>
      <path class="cls-1" d="M801.96,563.48L501.27,103.48c-13.16-20.15-34.52-31.7-58.58-31.7s-45.41,11.55-58.58,31.7L83.43,563.48c-14.29,21.86-15.4,48.63-2.97,71.6,12.43,22.96,35.44,36.68,61.55,36.68h601.37c26.11,0,49.12-13.72,61.55-36.68,12.43-22.97,11.32-49.74-2.97-71.6ZM442.67,583.73c-20.9,0-37.84-16.94-37.84-37.84s16.94-37.84,37.84-37.84,37.83,16.95,37.83,37.84c0,20.9-16.94,37.84-37.83,37.84ZM492.81,265.22l-18.63,175.46c-.85,8.07-4.68,15.15-10.32,20.22-5.64,5.07-13.09,8.13-21.19,8.13-16.21,0-29.81-12.23-31.52-28.35l-18.63-175.46c-.2-1.82-.29-3.62-.29-5.41,0-27.45,22.31-50.35,50.44-50.35,29.96,0,53.31,25.97,50.14,55.75Z"/>
      <path class="cls-1" d="M862.05,524.2L561.37,64.21c-55.96-85.61-181.39-85.61-237.35,0L23.34,524.2c-61.65,94.3,6.01,219.35,118.67,219.35h601.37c112.65,0,180.31-125.04,118.67-219.35ZM832.82,650.16c-18.06,33.38-51.49,53.3-89.44,53.3H142.01c-37.95,0-71.38-19.92-89.44-53.29-18.05-33.38-16.44-72.27,4.33-104.03L357.58,86.13c19.12-29.26,50.15-46.05,85.11-46.05s65.99,16.79,85.11,46.05l300.69,460c20.76,31.76,22.38,70.65,4.32,104.02Z"/>
    </g>
  </g>
</svg>