<svg width="24" height="24" viewBox="0 0 24 24" fill="none" xmlns="http://www.w3.org/2000/svg">
<g clip-path="url(#clip0_2001_198)">
<path d="M23.25 20.2502H12.75C12.336 20.2502 12 19.9157 12 19.5002C12 19.0847 12 4.91424 12 4.50024C12 4.08624 12.336 3.75024 12.75 3.75024H23.25C23.664 3.75024 24 4.08624 24 4.50024V19.5002C24 19.9157 23.664 20.2502 23.25 20.2502Z" fill="#ECEFF1"/>
<path d="M20.25 8.25024H12.75C12.336 8.25024 12 7.91574 12 7.50024C12 7.08474 12.336 6.75024 12.75 6.75024H20.25C20.664 6.75024 21 7.08624 21 7.50024C21 7.91424 20.664 8.25024 20.25 8.25024Z" fill="#1976D2"/>
<path d="M20.25 11.2502H12.75C12.336 11.2502 12 10.9157 12 10.5002C12 10.0847 12.336 9.75024 12.75 9.75024H20.25C20.664 9.75024 21 10.0862 21 10.5002C21 10.9142 20.664 11.2502 20.25 11.2502Z" fill="#1976D2"/>
<path d="M20.25 14.2502H12.75C12.336 14.2502 12 13.9157 12 13.5002C12 13.0847 12.336 12.7502 12.75 12.7502H20.25C20.664 12.7502 21 13.0862 21 13.5002C21 13.9142 20.664 14.2502 20.25 14.2502Z" fill="#1976D2"/>
<path d="M20.25 17.2502H12.75C12.336 17.2502 12 16.9157 12 16.5002C12 16.0847 12.336 15.7502 12.75 15.7502H20.25C20.664 15.7502 21 16.0862 21 16.5002C21 16.9142 20.664 17.2502 20.25 17.2502Z" fill="#1976D2"/>
<path d="M13.2285 0.924154C13.0575 0.780154 12.828 0.720154 12.612 0.763654L0.612 3.01365C0.258 3.07965 0 3.39015 0 3.75015V20.2502C0 20.6102 0.2565 20.9207 0.612 20.9867L12.612 23.2367C12.6585 23.2457 12.7035 23.2502 12.75 23.2502C12.924 23.2502 13.0935 23.1902 13.2285 23.0777C13.401 22.9352 13.5 22.7237 13.5 22.5002V1.50015C13.5 1.27665 13.401 1.06665 13.2285 0.924154Z" fill="#1565C0"/>
<path d="M9.74549 15.8341C9.70649 16.1776 9.43649 16.4521 9.09299 16.4941C9.06149 16.4986 9.03149 16.5001 8.99999 16.5001C8.69099 16.5001 8.40899 16.3081 8.29799 16.0141L6.74999 11.8861L5.20199 16.0141C5.08199 16.3351 4.76699 16.5316 4.41899 16.4956C4.07849 16.4596 3.80549 16.1956 3.75749 15.8551L3.00749 10.6051C2.94899 10.1971 3.23399 9.81615 3.64349 9.75765C4.05449 9.69765 4.43399 9.98415 4.49249 10.3936L4.82699 12.7396L6.04649 9.48615C6.26549 8.90115 7.23149 8.90115 7.45199 9.48615L8.60099 12.5491L9.00449 8.91615C9.05099 8.50515 9.43199 8.20965 9.83249 8.25315C10.245 8.30115 10.5405 8.67165 10.4955 9.08265L9.74549 15.8341Z" fill="#FAFAFA"/>
</g>
<defs>
<clipPath id="clip0_2001_198">
<rect width="24" height="24" fill="white"/>
</clipPath>
</defs>
</svg>
