<svg width="24" height="24" viewBox="0 0 24 24" fill="none" xmlns="http://www.w3.org/2000/svg">
<g clip-path="url(#clip0_2001_221)">
<path d="M24 7.86207V19.8621C24 21.2333 22.8884 22.3448 21.5172 22.3448H2.48276C1.11157 22.3448 0 21.2333 0 19.8621V1.65517C0 0.741046 0.741046 0 1.65517 0H10.7586C11.6727 0 12.4138 0.741046 12.4138 1.65517V2.48276H19.8621C20.7762 2.48276 21.5172 3.2238 21.5172 4.13793V5.37931C22.8876 5.38136 23.9979 6.49173 24 7.86207Z" fill="#F0C419"/>
<path d="M21.5172 4.13793V5.37931H0V1.65517C0 0.741046 0.741046 0 1.65517 0H10.7586C11.6727 0 12.4138 0.741046 12.4138 1.65517V2.48276H19.8621C20.7762 2.48276 21.5172 3.2238 21.5172 4.13793Z" fill="#F29C1F"/>
<path d="M7.44824 5.37934H5.79307C5.56453 5.37934 5.37927 5.19408 5.37927 4.96555C5.37927 4.73702 5.56453 4.55176 5.79307 4.55176H7.44824C7.67677 4.55176 7.86203 4.73702 7.86203 4.96555C7.86203 5.19408 7.67677 5.37934 7.44824 5.37934Z" fill="#E57E25"/>
<path d="M12 16.9655C11.7714 16.9655 11.5862 16.7802 11.5862 16.5517V5.37925C11.5862 5.15072 11.7714 4.96545 12 4.96545C12.2285 4.96545 12.4138 5.15072 12.4138 5.37925V16.5517C12.4138 16.7802 12.2285 16.9655 12 16.9655Z" fill="#547580"/>
<path d="M10.7585 7.44831H10.3447C10.1162 7.44831 9.93091 7.26305 9.93091 7.03452C9.93091 6.80599 10.1162 6.62073 10.3447 6.62073H10.7585C10.987 6.62073 11.1723 6.80599 11.1723 7.03452C11.1723 7.26305 10.987 7.44831 10.7585 7.44831Z" fill="#7F8C8D"/>
<path d="M10.7585 9.10347H10.3447C10.1162 9.10347 9.93091 8.9182 9.93091 8.68967C9.93091 8.46114 10.1162 8.27588 10.3447 8.27588H10.7585C10.987 8.27588 11.1723 8.46114 11.1723 8.68967C11.1723 8.9182 10.987 9.10347 10.7585 9.10347Z" fill="#7F8C8D"/>
<path d="M10.7585 10.7586H10.3447C10.1162 10.7586 9.93091 10.5734 9.93091 10.3448C9.93091 10.1163 10.1162 9.93103 10.3447 9.93103H10.7585C10.987 9.93103 11.1723 10.1163 11.1723 10.3448C11.1723 10.5734 10.987 10.7586 10.7585 10.7586Z" fill="#7F8C8D"/>
<path d="M10.7585 12.4138H10.3447C10.1162 12.4138 9.93091 12.2285 9.93091 12C9.93091 11.7714 10.1162 11.5862 10.3447 11.5862H10.7585C10.987 11.5862 11.1723 11.7714 11.1723 12C11.1723 12.2285 10.987 12.4138 10.7585 12.4138Z" fill="#7F8C8D"/>
<path d="M10.7585 14.069H10.3447C10.1162 14.069 9.93091 13.8838 9.93091 13.6552C9.93091 13.4267 10.1162 13.2415 10.3447 13.2415H10.7585C10.987 13.2415 11.1723 13.4267 11.1723 13.6552C11.1723 13.8838 10.987 14.069 10.7585 14.069Z" fill="#7F8C8D"/>
<path d="M10.7585 15.7242H10.3447C10.1162 15.7242 9.93091 15.5389 9.93091 15.3104C9.93091 15.0819 10.1162 14.8966 10.3447 14.8966H10.7585C10.987 14.8966 11.1723 15.0819 11.1723 15.3104C11.1723 15.5389 10.987 15.7242 10.7585 15.7242Z" fill="#7F8C8D"/>
<path d="M13.6551 8.27595H13.2413C13.0128 8.27595 12.8275 8.09069 12.8275 7.86216C12.8275 7.63363 13.0128 7.44836 13.2413 7.44836H13.6551C13.8836 7.44836 14.0689 7.63363 14.0689 7.86216C14.0689 8.09069 13.8836 8.27595 13.6551 8.27595Z" fill="#7F8C8D"/>
<path d="M13.6551 9.9311H13.2413C13.0128 9.9311 12.8275 9.74584 12.8275 9.51731C12.8275 9.28878 13.0128 9.10352 13.2413 9.10352H13.6551C13.8836 9.10352 14.0689 9.28878 14.0689 9.51731C14.0689 9.74584 13.8836 9.9311 13.6551 9.9311Z" fill="#7F8C8D"/>
<path d="M13.6551 11.5863H13.2413C13.0128 11.5863 12.8275 11.401 12.8275 11.1725C12.8275 10.9439 13.0128 10.7587 13.2413 10.7587H13.6551C13.8836 10.7587 14.0689 10.9439 14.0689 11.1725C14.0689 11.401 13.8836 11.5863 13.6551 11.5863Z" fill="#7F8C8D"/>
<path d="M13.6551 13.2414H13.2413C13.0128 13.2414 12.8275 13.0561 12.8275 12.8276C12.8275 12.5991 13.0128 12.4138 13.2413 12.4138H13.6551C13.8836 12.4138 14.0689 12.5991 14.0689 12.8276C14.0689 13.0561 13.8836 13.2414 13.6551 13.2414Z" fill="#7F8C8D"/>
<path d="M13.6551 14.8967H13.2413C13.0128 14.8967 12.8275 14.7114 12.8275 14.4829C12.8275 14.2544 13.0128 14.0691 13.2413 14.0691H13.6551C13.8836 14.0691 14.0689 14.2544 14.0689 14.4829C14.0689 14.7114 13.8836 14.8967 13.6551 14.8967Z" fill="#7F8C8D"/>
<path d="M13.2413 19.0345L14.8328 22.8543C14.9392 23.1097 14.9109 23.4013 14.7574 23.6315C14.604 23.8617 14.3456 24 14.0689 24.0001H9.931C9.65433 24 9.39598 23.8617 9.24251 23.6315C9.08904 23.4013 9.06076 23.1097 9.16714 22.8543L10.7586 19.0345H13.2413Z" fill="#7F8C8D"/>
<path d="M12.4137 22.7586H11.5862C11.3576 22.7586 11.1724 22.5734 11.1724 22.3448C11.1724 22.1163 11.3576 21.931 11.5862 21.931H12.4137C12.6423 21.931 12.8275 22.1163 12.8275 22.3448C12.8275 22.5734 12.6423 22.7586 12.4137 22.7586Z" fill="#547580"/>
<path d="M21.5172 4.55176V5.37934H9.51719C9.28866 5.37934 9.10339 5.19408 9.10339 4.96555C9.10339 4.73702 9.28866 4.55176 9.51719 4.55176H21.5172Z" fill="#E57E25"/>
<path d="M13.2414 16.5518H10.7586C10.5301 16.5518 10.3448 16.737 10.3448 16.9656V18.6207C10.3448 18.8493 10.5301 19.0345 10.7586 19.0345H13.2414C13.4699 19.0345 13.6552 18.8493 13.6552 18.6207V16.9656C13.6552 16.737 13.4699 16.5518 13.2414 16.5518Z" fill="#95A5A5"/>
</g>
<defs>
<clipPath id="clip0_2001_221">
<rect width="24" height="24" fill="white"/>
</clipPath>
</defs>
</svg>
